<svg width="318" height="190" viewBox="0 0 318 190" fill="none" xmlns="http://www.w3.org/2000/svg">
<path d="M291.011 9.77869H189.846V64.7047H291.011V9.77869Z" fill="white"/>
<path d="M291.001 65.188H189.846C189.711 65.188 189.582 65.137 189.487 65.0464C189.392 64.9557 189.338 64.8328 189.338 64.7046V9.77862C189.338 9.65043 189.392 9.5275 189.487 9.43685C189.582 9.34621 189.711 9.29529 189.846 9.29529H291.001C291.135 9.29529 291.264 9.34621 291.36 9.43685C291.455 9.5275 291.508 9.65043 291.508 9.77862V64.7046C291.508 64.8328 291.455 64.9557 291.36 65.0464C291.264 65.137 291.135 65.188 291.001 65.188ZM190.353 64.2213H290.493V10.262H190.353V64.2213Z" fill="#231F20"/>
<path d="M222.752 17.7924H200.239V56.5557H222.752V17.7924Z" fill="white"/>
<path d="M222.752 57.039H200.239C200.105 57.039 199.976 56.988 199.881 56.8974C199.785 56.8068 199.732 56.6838 199.732 56.5556V17.7923C199.732 17.6641 199.785 17.5412 199.881 17.4505C199.976 17.3599 200.105 17.309 200.239 17.309H222.752C222.887 17.309 223.016 17.3599 223.111 17.4505C223.206 17.5412 223.26 17.6641 223.26 17.7923V56.5556C223.257 56.6831 223.203 56.8046 223.108 56.8947C223.013 56.9848 222.886 57.0365 222.752 57.039ZM200.747 56.0723H222.245V18.2756H200.747V56.0723Z" fill="#E6E7E8"/>
<path d="M252.735 17.7924H230.223V56.5557H252.735V17.7924Z" fill="white"/>
<path d="M252.735 57.039H230.223C230.088 57.039 229.959 56.988 229.864 56.8974C229.768 56.8068 229.715 56.6838 229.715 56.5556V17.7923C229.715 17.6641 229.768 17.5412 229.864 17.4505C229.959 17.3599 230.088 17.309 230.223 17.309H252.735C252.87 17.309 252.999 17.3599 253.094 17.4505C253.189 17.5412 253.243 17.6641 253.243 17.7923V56.5556C253.24 56.6831 253.186 56.8046 253.091 56.8947C252.997 56.9848 252.869 57.0365 252.735 57.039ZM230.73 56.0723H252.228V18.2756H230.73V56.0723Z" fill="#E6E7E8"/>
<path d="M282.718 17.7924H260.206V56.5557H282.718V17.7924Z" fill="white"/>
<path d="M282.718 57.039H260.206C260.072 57.0365 259.944 56.9848 259.85 56.8947C259.755 56.8046 259.701 56.6831 259.698 56.5556V17.7923C259.698 17.6641 259.752 17.5412 259.847 17.4505C259.942 17.3599 260.071 17.309 260.206 17.309H282.718C282.853 17.309 282.982 17.3599 283.077 17.4505C283.172 17.5412 283.226 17.6641 283.226 17.7923V56.5556C283.226 56.6838 283.172 56.8068 283.077 56.8974C282.982 56.988 282.853 57.039 282.718 57.039ZM260.713 56.0723H282.211V18.2756H260.713V56.0723Z" fill="#E6E7E8"/>
<path d="M222.752 32.1087H200.239C200.13 32.1087 200.023 32.0747 199.935 32.012C199.847 31.9492 199.783 31.8611 199.752 31.7607C199.722 31.6606 199.726 31.5538 199.764 31.4563C199.803 31.3587 199.873 31.2756 199.965 31.2193L210.552 24.7137L199.965 18.1983C199.908 18.1649 199.859 18.1209 199.82 18.0689C199.782 18.0169 199.755 17.9579 199.74 17.8957C199.726 17.8334 199.725 17.769 199.738 17.7064C199.75 17.6438 199.776 17.5843 199.813 17.5313C199.886 17.4238 200.001 17.3481 200.132 17.321C200.263 17.2938 200.4 17.3173 200.514 17.3863L211.496 24.153L222.468 17.3863C222.583 17.3168 222.721 17.293 222.854 17.3201C222.987 17.3473 223.104 17.4231 223.178 17.5313C223.251 17.6391 223.276 17.7698 223.247 17.8948C223.219 18.0198 223.139 18.129 223.026 18.1983L212.43 24.7137L223.026 31.2C223.118 31.2565 223.188 31.3399 223.227 31.4376C223.265 31.5353 223.269 31.6421 223.238 31.7421C223.207 31.8421 223.143 31.93 223.056 31.9925C222.968 32.0551 222.862 32.0891 222.752 32.0893V32.1087ZM201.965 31.142H221.027L211.496 25.284L201.965 31.142Z" fill="#E6E7E8"/>
<path d="M218.712 36.1107H204.188C204.053 36.1107 203.924 36.0598 203.829 35.9691C203.734 35.8785 203.68 35.7556 203.68 35.6274C203.68 35.4992 203.734 35.3763 203.829 35.2856C203.924 35.195 204.053 35.144 204.188 35.144H218.712C218.847 35.144 218.976 35.195 219.071 35.2856C219.166 35.3763 219.22 35.4992 219.22 35.6274C219.22 35.7556 219.166 35.8785 219.071 35.9691C218.976 36.0598 218.847 36.1107 218.712 36.1107Z" fill="#E6E7E8"/>
<path d="M218.712 41.2147H204.188C204.053 41.2147 203.924 41.1638 203.829 41.0731C203.734 40.9825 203.68 40.8596 203.68 40.7314C203.68 40.6032 203.734 40.4803 203.829 40.3896C203.924 40.299 204.053 40.248 204.188 40.248H218.712C218.847 40.248 218.976 40.299 219.071 40.3896C219.166 40.4803 219.22 40.6032 219.22 40.7314C219.22 40.8596 219.166 40.9825 219.071 41.0731C218.976 41.1638 218.847 41.2147 218.712 41.2147Z" fill="#E6E7E8"/>
<path d="M218.712 46.309H204.188C204.053 46.309 203.924 46.258 203.829 46.1674C203.734 46.0767 203.68 45.9538 203.68 45.8256C203.68 45.6974 203.734 45.5745 203.829 45.4838C203.924 45.3932 204.053 45.3423 204.188 45.3423H218.712C218.847 45.3423 218.976 45.3932 219.071 45.4838C219.166 45.5745 219.22 45.6974 219.22 45.8256C219.22 45.9538 219.166 46.0767 219.071 46.1674C218.976 46.258 218.847 46.309 218.712 46.309Z" fill="#E6E7E8"/>
<path d="M218.712 51.4033H204.188C204.053 51.4033 203.924 51.3524 203.829 51.2617C203.734 51.1711 203.68 51.0482 203.68 50.92C203.68 50.7918 203.734 50.6689 203.829 50.5782C203.924 50.4876 204.053 50.4366 204.188 50.4366H218.712C218.847 50.4366 218.976 50.4876 219.071 50.5782C219.166 50.6689 219.22 50.7918 219.22 50.92C219.22 51.0482 219.166 51.1711 219.071 51.2617C218.976 51.3524 218.847 51.4033 218.712 51.4033Z" fill="#E6E7E8"/>
<path d="M252.735 57.039H230.223C230.113 57.039 230.006 57.005 229.918 56.9423C229.83 56.8795 229.766 56.7914 229.735 56.691C229.705 56.5909 229.709 56.4841 229.748 56.3866C229.786 56.289 229.856 56.2059 229.948 56.1496L240.545 49.6343L229.948 43.1286C229.835 43.0575 229.755 42.9466 229.727 42.82C229.698 42.6934 229.723 42.5612 229.796 42.4519C229.832 42.3985 229.879 42.3524 229.934 42.3165C229.989 42.2806 230.051 42.2556 230.116 42.243C230.182 42.2304 230.249 42.2304 230.314 42.243C230.38 42.2557 230.442 42.2807 230.497 42.3166L230.862 42.5293C230.899 42.4413 230.964 42.3663 231.048 42.3144C231.131 42.2625 231.229 42.2363 231.329 42.2393H252.735C252.844 42.2387 252.95 42.2712 253.037 42.3321C253.125 42.393 253.19 42.479 253.222 42.5776C253.254 42.6791 253.25 42.7874 253.211 42.8866C253.173 42.9859 253.102 43.0707 253.009 43.1286L242.413 49.6343L253.009 56.1496C253.101 56.2059 253.172 56.289 253.21 56.3866C253.249 56.4841 253.253 56.5909 253.222 56.691C253.192 56.7914 253.128 56.8795 253.04 56.9423C252.952 57.005 252.845 57.039 252.735 57.039ZM231.948 56.0723H251.01L241.479 50.2143L231.948 56.0723ZM231.948 43.2059L241.479 49.064L251.01 43.2059H231.948Z" fill="#E6E7E8"/>
<path d="M247.386 22.4033H234.77C234.635 22.4033 234.506 22.3524 234.411 22.2617C234.316 22.1711 234.262 22.0482 234.262 21.92C234.262 21.7918 234.316 21.6689 234.411 21.5782C234.506 21.4876 234.635 21.4366 234.77 21.4366H247.386C247.521 21.4366 247.65 21.4876 247.745 21.5782C247.84 21.6689 247.894 21.7918 247.894 21.92C247.891 22.0474 247.837 22.1689 247.742 22.259C247.648 22.3491 247.52 22.4008 247.386 22.4033Z" fill="#E6E7E8"/>
<path d="M247.386 27.0143H234.77C234.635 27.0143 234.506 26.9633 234.411 26.8727C234.316 26.7821 234.262 26.6591 234.262 26.5309C234.262 26.4028 234.316 26.2798 234.411 26.1892C234.506 26.0985 234.635 26.0476 234.77 26.0476H247.386C247.521 26.0476 247.65 26.0985 247.745 26.1892C247.84 26.2798 247.894 26.4028 247.894 26.5309C247.891 26.6583 247.837 26.7799 247.742 26.87C247.648 26.9601 247.52 27.0118 247.386 27.0143Z" fill="#E6E7E8"/>
<path d="M244.575 31.6254H234.77C234.635 31.6254 234.506 31.5744 234.411 31.4838C234.316 31.3932 234.262 31.2702 234.262 31.142C234.262 31.0138 234.316 30.8909 234.411 30.8003C234.506 30.7096 234.635 30.6587 234.77 30.6587H244.575C244.709 30.6587 244.838 30.7096 244.933 30.8003C245.029 30.8909 245.082 31.0138 245.082 31.142C245.082 31.2702 245.029 31.3932 244.933 31.4838C244.838 31.5744 244.709 31.6254 244.575 31.6254Z" fill="#E6E7E8"/>
<path d="M245.986 40.2383C245.455 40.2402 244.935 40.0919 244.493 39.8122C244.051 39.5325 243.706 39.1341 243.502 38.6673C243.298 38.2006 243.244 37.6867 243.347 37.1908C243.45 36.6948 243.705 36.2392 244.081 35.8817C244.456 35.5243 244.934 35.281 245.455 35.1828C245.976 35.0847 246.515 35.136 247.006 35.3304C247.496 35.5247 247.914 35.8533 248.208 36.2745C248.501 36.6956 248.657 37.1904 248.655 37.6959C248.652 38.3694 248.37 39.0146 247.87 39.4908C247.37 39.967 246.693 40.2357 245.986 40.2383ZM245.986 36.1106C245.656 36.1087 245.333 36.2 245.058 36.3731C244.783 36.5461 244.568 36.793 244.44 37.0825C244.313 37.372 244.278 37.6911 244.341 37.9992C244.405 38.3074 244.562 38.5908 244.795 38.8135C245.027 39.0361 245.324 39.1881 245.647 39.2501C245.97 39.312 246.305 39.2812 246.61 39.1615C246.915 39.0418 247.175 38.8386 247.359 38.5777C247.542 38.3168 247.64 38.0099 247.64 37.6959C247.64 37.2771 247.466 36.8754 247.156 36.5783C246.846 36.2813 246.425 36.1131 245.986 36.1106Z" fill="#E6E7E8"/>
<path d="M277.522 38.1793H265.798C265.459 38.2 265.119 38.1542 264.799 38.0448C264.479 37.9354 264.186 37.7646 263.938 37.5432C263.69 37.3217 263.493 37.0541 263.358 36.757C263.222 36.4599 263.153 36.1396 263.153 35.8158C263.153 35.4921 263.222 35.1718 263.358 34.8747C263.493 34.5776 263.69 34.31 263.938 34.0885C264.186 33.867 264.479 33.6963 264.799 33.5869C265.119 33.4775 265.459 33.4317 265.798 33.4523H277.522C278.152 33.4908 278.744 33.7565 279.176 34.1955C279.609 34.6345 279.85 35.2139 279.85 35.8158C279.85 36.4178 279.609 36.9971 279.176 37.4362C278.744 37.8752 278.152 38.1409 277.522 38.1793ZM265.798 34.419C265.595 34.4029 265.391 34.4271 265.199 34.49C265.006 34.5529 264.829 34.6531 264.68 34.7844C264.53 34.9157 264.41 35.0751 264.328 35.2527C264.247 35.4302 264.204 35.622 264.204 35.8158C264.204 36.0097 264.247 36.2015 264.328 36.379C264.41 36.5565 264.53 36.716 264.68 36.8473C264.829 36.9786 265.006 37.0788 265.199 37.1417C265.391 37.2046 265.595 37.2288 265.798 37.2127H277.522C277.889 37.1835 278.232 37.0237 278.482 36.765C278.732 36.5062 278.871 36.1675 278.871 35.8158C278.871 35.4642 278.732 35.1255 278.482 34.8667C278.232 34.608 277.889 34.4482 277.522 34.419H265.798Z" fill="#E6E7E8"/>
<path d="M279.491 31.0163H263.819C263.684 31.0163 263.555 30.9654 263.46 30.8748C263.365 30.7841 263.312 30.6612 263.312 30.533V20.9437C263.312 20.8155 263.365 20.6925 263.46 20.6019C263.555 20.5112 263.684 20.4603 263.819 20.4603H279.491C279.625 20.4603 279.754 20.5112 279.85 20.6019C279.945 20.6925 279.998 20.8155 279.998 20.9437V30.533C279.998 30.6612 279.945 30.7841 279.85 30.8748C279.754 30.9654 279.625 31.0163 279.491 31.0163ZM264.327 30.0497H278.983V21.427H264.327V30.0497Z" fill="#E6E7E8"/>
<path d="M263.819 31.0164C263.734 31.0154 263.651 30.9946 263.577 30.9558C263.502 30.917 263.439 30.8615 263.393 30.794C263.32 30.6863 263.296 30.5556 263.324 30.4305C263.353 30.3055 263.432 30.1964 263.545 30.127L279.217 20.5667C279.329 20.5054 279.463 20.4876 279.589 20.5171C279.715 20.5466 279.825 20.621 279.895 20.7251C279.965 20.8292 279.991 20.9551 279.967 21.0766C279.942 21.1982 279.87 21.3063 279.765 21.3787L264.093 30.968C264.009 31.0109 263.913 31.0278 263.819 31.0164Z" fill="#E6E7E8"/>
<path d="M279.491 31.0164C279.393 31.0192 279.297 30.9921 279.217 30.939L263.545 21.3497C263.485 21.3172 263.433 21.2734 263.391 21.221C263.35 21.1686 263.32 21.1087 263.304 21.045C263.287 20.9813 263.285 20.915 263.296 20.8503C263.307 20.7856 263.332 20.7237 263.37 20.6685C263.407 20.6133 263.456 20.5659 263.513 20.5292C263.57 20.4925 263.634 20.4673 263.702 20.455C263.77 20.4428 263.839 20.4438 263.906 20.458C263.974 20.4722 264.037 20.4993 264.093 20.5377L279.785 30.127C279.898 30.1964 279.977 30.3055 280.006 30.4306C280.034 30.5556 280.01 30.6863 279.937 30.794C279.891 30.8663 279.825 30.9253 279.746 30.9645C279.668 31.0037 279.579 31.0216 279.491 31.0164Z" fill="#E6E7E8"/>
<path d="M279.491 52.399H263.819C263.684 52.399 263.555 52.3481 263.46 52.2574C263.365 52.1668 263.312 52.0439 263.312 51.9157V42.3264C263.312 42.1982 263.365 42.0752 263.46 41.9846C263.555 41.8939 263.684 41.843 263.819 41.843H279.491C279.625 41.843 279.754 41.8939 279.85 41.9846C279.945 42.0752 279.998 42.1982 279.998 42.3264V51.9157C279.998 52.0439 279.945 52.1668 279.85 52.2574C279.754 52.3481 279.625 52.399 279.491 52.399ZM264.327 51.4323H278.983V42.8H264.327V51.4323Z" fill="#E6E7E8"/>
<path d="M263.819 52.3989C263.734 52.3979 263.651 52.3772 263.577 52.3384C263.502 52.2996 263.439 52.2441 263.393 52.1766C263.355 52.1229 263.329 52.0626 263.317 51.9992C263.304 51.9359 263.305 51.8708 263.319 51.8077C263.333 51.7447 263.361 51.6849 263.399 51.6321C263.438 51.5792 263.488 51.5343 263.545 51.4999L279.217 41.9106C279.272 41.8723 279.336 41.8452 279.403 41.8309C279.471 41.8167 279.54 41.8157 279.608 41.8279C279.676 41.8402 279.74 41.8654 279.797 41.9021C279.854 41.9388 279.903 41.9862 279.94 42.0414C279.977 42.0966 280.002 42.1585 280.014 42.2232C280.025 42.2879 280.023 42.3542 280.006 42.4179C279.99 42.4817 279.96 42.5416 279.918 42.5939C279.877 42.6463 279.825 42.6901 279.765 42.7226L264.093 52.3119C264.014 52.3684 263.918 52.3989 263.819 52.3989Z" fill="#E6E7E8"/>
<path d="M279.491 52.399C279.393 52.4018 279.297 52.3747 279.217 52.3217L263.545 42.7323C263.44 42.66 263.367 42.5519 263.343 42.4303C263.319 42.3087 263.345 42.1829 263.415 42.0788C263.485 41.9747 263.595 41.9002 263.721 41.8707C263.847 41.8412 263.98 41.859 264.093 41.9203L279.785 51.5C279.898 51.5693 279.977 51.6785 280.006 51.8035C280.034 51.9285 280.01 52.0593 279.937 52.167C279.892 52.2411 279.827 52.302 279.748 52.3429C279.669 52.3838 279.58 52.4033 279.491 52.399Z" fill="#E6E7E8"/>
<path d="M51.7145 182.967L1.8374 104.783C0.0814501 101.989 3.3193 89.5287 3.3193 89.5287L251.913 98.9924C256.542 98.9924 261.931 101.593 263.941 104.792L316.589 174.895C317.056 181.932 313.696 186.708 309.068 186.708L63.7321 188.767C59.1037 188.767 53.7242 186.205 51.7145 182.967Z" fill="#231F20"/>
<path d="M63.7423 189.279C58.9616 189.279 53.369 186.572 51.2781 183.257L1.4111 105.034C-0.405751 102.134 2.487 90.7176 2.82195 89.4223C2.8463 89.3115 2.91238 89.2129 3.00773 89.1453C3.10308 89.0776 3.22111 89.0455 3.3396 89.055L251.933 98.5186C256.694 98.5186 262.276 101.216 264.367 104.541L317.005 174.605C317.055 174.681 317.086 174.767 317.096 174.856C317.381 179.1 316.274 182.812 314.051 185.035C313.42 185.707 312.647 186.245 311.783 186.615C310.92 186.984 309.984 187.177 309.037 187.181L63.7423 189.279ZM3.705 90.0313C2.78135 93.7046 0.964498 102.463 2.27385 104.531L52.1408 182.744C54.0693 185.809 59.2458 188.303 63.7321 188.303L309.068 186.205C309.877 186.2 310.676 186.034 311.413 185.718C312.151 185.401 312.811 184.942 313.351 184.368C315.33 182.358 316.325 178.965 316.092 175.05L263.545 105.063C261.596 101.97 256.44 99.4756 251.933 99.4756L3.705 90.0313Z" fill="#231F20"/>
<path d="M53.8257 171.908L3.95875 92.6413C1.92875 89.4416 4.06025 86.8413 8.68865 86.8413H254.024C258.653 86.8413 264.042 89.432 266.052 92.6413L315.919 171.908C317.949 175.108 315.817 177.708 311.179 177.708H65.8535C61.2251 177.698 55.8354 175.108 53.8257 171.908Z" fill="white"/>
<path d="M311.179 178.182H65.8534C61.0728 178.182 55.4801 175.475 53.3892 172.159L3.52229 92.8927C3.06028 92.2885 2.781 91.5752 2.71479 90.8305C2.64858 90.0857 2.79797 89.3379 3.14674 88.6683C4.00949 87.2087 6.02934 86.3677 8.69879 86.3677H254.024C258.805 86.3677 264.398 89.0743 266.488 92.39L316.355 171.657C316.817 172.261 317.097 172.974 317.163 173.719C317.229 174.464 317.08 175.211 316.731 175.881C315.868 177.341 313.838 178.182 311.179 178.182ZM54.2621 171.657C56.1906 174.721 61.3671 177.215 65.8534 177.215H311.179C313.463 177.215 315.168 176.558 315.848 175.407C316.107 174.886 316.209 174.307 316.145 173.734C316.081 173.161 315.851 172.616 315.483 172.159L265.616 92.8927C263.687 89.8283 258.511 87.3343 254.024 87.3343H8.69879C6.41504 87.3343 4.70984 87.9917 4.02979 89.142C3.77101 89.663 3.6682 90.2419 3.73267 90.815C3.79714 91.388 4.02639 91.933 4.39519 92.39L54.2621 171.657Z" fill="#231F20"/>
<path d="M241.702 91.6167L292.858 172.933H91.1472L39.9913 91.6167H241.702Z" fill="white"/>
<path d="M292.858 173.368H91.1371C91.0572 173.369 90.9783 173.35 90.9086 173.313C90.839 173.275 90.7812 173.221 90.7413 173.155L39.5954 91.8486C39.5534 91.7813 39.5312 91.7045 39.5312 91.6263C39.5312 91.548 39.5534 91.4712 39.5954 91.4039C39.6365 91.3361 39.6957 91.2798 39.767 91.2408C39.8383 91.2017 39.9192 91.1813 40.0014 91.1816H241.702C241.782 91.1801 241.861 91.199 241.931 91.2364C242 91.2738 242.058 91.3283 242.098 91.3943L293.254 172.701C293.296 172.768 293.318 172.845 293.318 172.923C293.318 173.001 293.296 173.078 293.254 173.145C293.215 173.212 293.157 173.268 293.088 173.307C293.018 173.346 292.939 173.367 292.858 173.368ZM91.401 172.488H292.036L241.438 92.0999H40.8033L91.401 172.488Z" fill="#231F20"/>
<path d="M57.7132 148.167H49.1465C46.1015 148.167 42.6607 146.349 41.3513 144.116L31.6175 127.528C31.3126 127.09 31.1358 126.582 31.1055 126.057C31.0752 125.532 31.1924 125.009 31.4449 124.541C31.8398 124.023 32.3692 123.612 32.9813 123.348C33.5935 123.083 34.2672 122.975 34.9365 123.033H43.5031C46.4872 123.033 49.989 124.851 51.2984 127.084L61.0221 143.681C61.3347 144.116 61.5169 144.624 61.5491 145.151C61.5813 145.677 61.4623 146.202 61.2048 146.668C60.8088 147.185 60.2788 147.594 59.6668 147.857C59.0547 148.119 58.3815 148.226 57.7132 148.167ZM34.9365 123.932C34.43 123.874 33.9163 123.941 33.4451 124.128C32.9739 124.314 32.5611 124.613 32.2468 124.996C32.0774 125.329 32.0049 125.699 32.0371 126.068C32.0692 126.437 32.2047 126.791 32.4295 127.093L42.1633 143.691C42.943 144.776 43.9834 145.669 45.1979 146.294C46.4124 146.92 47.7661 147.26 49.1465 147.287H57.7132C58.2182 147.339 58.7289 147.27 59.1987 147.086C59.6684 146.902 60.0824 146.609 60.4029 146.233C60.5701 145.898 60.6412 145.526 60.6092 145.156C60.5771 144.786 60.4429 144.431 60.2202 144.126L50.4863 127.528C49.7067 126.443 48.6663 125.551 47.4518 124.925C46.2373 124.3 44.8836 123.959 43.5031 123.932H34.9365Z" fill="#231F20"/>
<path d="M284.86 144.87C284.777 144.87 284.695 144.848 284.624 144.807C284.552 144.766 284.494 144.708 284.454 144.638L269.838 119.785C269.807 119.735 269.788 119.68 269.78 119.623C269.772 119.565 269.776 119.507 269.792 119.451C269.808 119.395 269.836 119.343 269.873 119.298C269.911 119.252 269.957 119.214 270.011 119.186C270.118 119.131 270.245 119.118 270.363 119.15C270.48 119.183 270.58 119.258 270.64 119.36L285.205 144.213C285.236 144.263 285.256 144.318 285.263 144.376C285.271 144.433 285.267 144.491 285.251 144.547C285.235 144.603 285.207 144.655 285.17 144.701C285.132 144.746 285.086 144.784 285.033 144.812C284.98 144.842 284.921 144.862 284.86 144.87Z" fill="#231F20"/>
<path d="M288.798 151.685C288.716 151.684 288.636 151.663 288.565 151.624C288.494 151.585 288.435 151.53 288.392 151.463L286.443 148.167C286.385 148.063 286.371 147.941 286.405 147.827C286.439 147.713 286.518 147.617 286.626 147.558C286.734 147.502 286.86 147.489 286.978 147.522C287.096 147.554 287.195 147.63 287.255 147.732L289.204 151.067C289.263 151.168 289.278 151.288 289.246 151.4C289.214 151.512 289.137 151.607 289.032 151.666C288.957 151.691 288.876 151.698 288.798 151.685Z" fill="#231F20"/>
<path d="M202.188 165.963L159.792 98.5863H218.083L260.48 165.963H202.188Z" fill="white"/>
<path d="M260.5 166.446H202.188C202.101 166.447 202.014 166.426 201.938 166.385C201.861 166.344 201.797 166.286 201.752 166.214L159.355 98.8667C159.311 98.7932 159.287 98.7099 159.287 98.625C159.287 98.5402 159.311 98.4568 159.355 98.3834C159.397 98.3082 159.46 98.2458 159.537 98.203C159.614 98.1603 159.703 98.1391 159.792 98.1417H218.083C218.171 98.1412 218.257 98.1623 218.333 98.203C218.41 98.2436 218.474 98.3025 218.52 98.3737L260.916 165.76C260.961 165.834 260.984 165.917 260.984 166.002C260.984 166.087 260.961 166.17 260.916 166.243C260.871 166.308 260.809 166.361 260.736 166.397C260.663 166.432 260.582 166.449 260.5 166.446ZM202.493 165.48H259.586L217.799 99.0697H160.685L202.493 165.48Z" fill="#E6E7E8"/>
<path d="M208.958 147.345C208.857 147.343 208.758 147.313 208.674 147.258C208.564 147.186 208.489 147.075 208.465 146.95C208.44 146.825 208.468 146.696 208.542 146.591C214.196 138.703 223.107 125.933 224.021 123.845C221.118 122.192 191.805 107.054 176.174 99.0116C176.114 98.9821 176.061 98.9416 176.018 98.8925C175.975 98.8433 175.943 98.7865 175.923 98.7254C175.903 98.6642 175.896 98.5999 175.903 98.5362C175.909 98.4725 175.929 98.4107 175.961 98.3543C176.027 98.2431 176.136 98.1608 176.265 98.1248C176.393 98.0887 176.532 98.1017 176.651 98.161C184.598 102.25 224.285 122.685 224.924 123.294C225.32 123.652 225.868 124.145 209.385 147.161C209.334 147.222 209.269 147.271 209.195 147.303C209.121 147.335 209.04 147.349 208.958 147.345Z" fill="#E6E7E8"/>
<path d="M226.782 166.446C226.718 166.46 226.652 166.46 226.589 166.446C226.526 166.422 226.47 166.386 226.423 166.341C226.375 166.295 226.338 166.241 226.313 166.181C226.289 166.122 226.277 166.058 226.279 165.994C226.281 165.93 226.297 165.867 226.325 165.808L231.116 155.175L210.765 144.397C210.648 144.334 210.562 144.229 210.526 144.106C210.49 143.983 210.506 143.851 210.572 143.739C210.604 143.683 210.647 143.634 210.699 143.594C210.751 143.554 210.811 143.524 210.875 143.506C210.939 143.488 211.006 143.482 211.073 143.489C211.139 143.496 211.204 143.515 211.262 143.546L232.009 154.547C232.117 154.606 232.198 154.7 232.237 154.813C232.276 154.925 232.271 155.047 232.222 155.156L227.238 166.156C227.201 166.242 227.137 166.315 227.056 166.367C226.975 166.418 226.879 166.446 226.782 166.446Z" fill="#E6E7E8"/>
<path d="M231.887 149.365C228.02 149.365 223.483 147.171 221.737 144.474C221.361 143.972 221.134 143.383 221.081 142.769C221.027 142.155 221.149 141.538 221.433 140.984C222.153 139.776 223.818 139.051 225.99 139.051C229.867 139.051 234.394 141.255 236.14 143.952C236.519 144.452 236.748 145.042 236.801 145.657C236.855 146.271 236.732 146.889 236.444 147.442C235.724 148.679 234.11 149.365 231.887 149.365ZM225.99 140.047C224.193 140.047 222.854 140.559 222.316 141.458C222.122 141.865 222.047 142.314 222.099 142.758C222.151 143.202 222.327 143.625 222.61 143.981C224.143 146.417 228.294 148.399 231.847 148.399C233.653 148.399 234.983 147.886 235.521 146.997C235.716 146.59 235.791 146.141 235.739 145.697C235.687 145.253 235.51 144.83 235.227 144.474C233.734 142.038 229.583 140.047 225.99 140.047Z" fill="#E6E7E8"/>
<path d="M189.298 164.706L148.85 100.336C148.783 100.227 148.763 100.097 148.795 99.9737C148.827 99.8508 148.909 99.7448 149.023 99.6787C149.079 99.644 149.143 99.6207 149.21 99.6102C149.276 99.5997 149.344 99.6023 149.41 99.6176C149.475 99.633 149.537 99.6609 149.591 99.6997C149.645 99.7384 149.69 99.7872 149.723 99.843L190.221 164.213L189.298 164.706Z" fill="#E6E7E8"/>
<path d="M178.285 164.938C178.197 164.94 178.111 164.919 178.034 164.878C177.957 164.838 177.893 164.778 177.849 164.706L137.35 100.336C137.283 100.227 137.263 100.097 137.295 99.9737C137.327 99.8508 137.409 99.7448 137.523 99.6787C137.579 99.644 137.643 99.6207 137.71 99.6102C137.776 99.5997 137.844 99.6023 137.91 99.6176C137.975 99.633 138.037 99.6609 138.091 99.6997C138.145 99.7384 138.19 99.7872 138.223 99.843L178.721 164.213C178.788 164.324 178.806 164.455 178.772 164.578C178.738 164.701 178.654 164.806 178.539 164.871C178.463 164.915 178.375 164.939 178.285 164.938Z" fill="#E6E7E8"/>
<path d="M166.42 164.706L125.921 100.336C125.855 100.226 125.837 100.096 125.871 99.9731C125.906 99.8505 125.989 99.7457 126.103 99.681C126.218 99.6164 126.354 99.5971 126.483 99.6274C126.613 99.6577 126.724 99.7352 126.794 99.843L167.282 164.213L166.42 164.706Z" fill="#E6E7E8"/>
<path d="M136.061 130.863H103.175C103.089 130.863 103.004 130.842 102.93 130.801C102.855 130.76 102.793 130.702 102.749 130.631L83.4637 99.9106C83.4158 99.8379 83.3896 99.7542 83.3879 99.6684C83.3861 99.5826 83.4088 99.498 83.4536 99.4235C83.4985 99.3491 83.5637 99.2876 83.6423 99.2457C83.721 99.2038 83.8101 99.183 83.9001 99.1856H116.766C116.853 99.1852 116.94 99.2063 117.016 99.2469C117.093 99.2876 117.157 99.3464 117.202 99.4176L136.487 130.138C136.532 130.212 136.555 130.295 136.555 130.38C136.555 130.465 136.532 130.548 136.487 130.622C136.446 130.695 136.385 130.757 136.31 130.799C136.235 130.842 136.148 130.864 136.061 130.863ZM103.479 129.897H135.168L116.451 100.152H84.7629L103.479 129.897Z" fill="#E6E7E8"/>
<path d="M108.494 122.724C108.389 122.723 108.286 122.693 108.199 122.637C108.144 122.6 108.098 122.554 108.062 122.5C108.026 122.446 108.002 122.386 107.99 122.323C107.979 122.26 107.981 122.195 107.996 122.133C108.011 122.071 108.039 122.012 108.077 121.96L114.898 112.68L94.0197 100.114C93.9619 100.081 93.9117 100.038 93.872 99.9859C93.8323 99.9343 93.804 99.8755 93.7888 99.8132C93.7737 99.7508 93.7719 99.6862 93.7837 99.6232C93.7954 99.5602 93.8205 99.5001 93.8573 99.4466C93.9301 99.3391 94.0447 99.2634 94.176 99.2363C94.3073 99.2091 94.4445 99.2326 94.5577 99.3016L115.873 112.178C115.986 112.249 116.066 112.36 116.096 112.487C116.111 112.552 116.111 112.619 116.097 112.684C116.083 112.749 116.055 112.81 116.015 112.864L108.91 122.531C108.861 122.592 108.799 122.641 108.726 122.675C108.654 122.709 108.574 122.725 108.494 122.724Z" fill="#E6E7E8"/>
<path d="M113.609 130.863C113.507 130.858 113.408 130.825 113.325 130.767C113.271 130.729 113.225 130.682 113.19 130.628C113.155 130.574 113.132 130.513 113.122 130.45C113.111 130.388 113.114 130.323 113.13 130.261C113.145 130.2 113.174 130.141 113.213 130.09L117.273 124.764L109.915 120.307C109.855 120.275 109.802 120.231 109.761 120.179C109.719 120.126 109.69 120.066 109.673 120.003C109.657 119.939 109.654 119.873 109.665 119.808C109.677 119.743 109.702 119.681 109.739 119.626C109.776 119.571 109.825 119.524 109.882 119.487C109.939 119.45 110.004 119.425 110.071 119.413C110.139 119.4 110.209 119.401 110.276 119.416C110.343 119.43 110.407 119.457 110.463 119.495L118.278 124.222C118.339 124.256 118.39 124.302 118.429 124.357C118.467 124.412 118.492 124.475 118.502 124.541C118.516 124.606 118.517 124.673 118.503 124.738C118.489 124.803 118.461 124.864 118.42 124.918L114.015 130.66C113.968 130.722 113.908 130.772 113.837 130.807C113.767 130.842 113.689 130.861 113.609 130.863Z" fill="#E6E7E8"/>
<path d="M121.678 124.387C120.786 124.378 119.908 124.172 119.113 123.784C118.319 123.397 117.63 122.838 117.101 122.154C116.911 121.898 116.799 121.599 116.775 121.287C116.752 120.975 116.819 120.663 116.969 120.385C117.212 120.051 117.544 119.785 117.931 119.615C118.319 119.445 118.747 119.377 119.171 119.418C120.064 119.424 120.943 119.63 121.738 120.017C122.533 120.405 123.222 120.964 123.749 121.651C123.939 121.906 124.051 122.206 124.074 122.518C124.098 122.83 124.031 123.142 123.881 123.42C123.636 123.752 123.303 124.016 122.916 124.186C122.529 124.355 122.102 124.425 121.678 124.387ZM119.171 120.394C118.928 120.362 118.681 120.388 118.451 120.469C118.22 120.55 118.015 120.684 117.852 120.858C117.799 120.991 117.782 121.134 117.803 121.275C117.824 121.415 117.883 121.548 117.974 121.661C118.413 122.2 118.974 122.637 119.616 122.942C120.257 123.247 120.962 123.41 121.678 123.42C121.921 123.452 122.169 123.426 122.399 123.345C122.629 123.264 122.835 123.131 122.998 122.956C123.051 122.823 123.068 122.68 123.047 122.54C123.025 122.399 122.967 122.266 122.876 122.154C122.438 121.613 121.877 121.174 121.236 120.869C120.594 120.565 119.888 120.402 119.171 120.394Z" fill="#E6E7E8"/>
<path d="M157.762 165.364H124.896C124.808 165.364 124.722 165.343 124.646 165.302C124.569 165.262 124.505 165.203 124.46 165.132L105.175 134.411C105.13 134.338 105.107 134.254 105.107 134.169C105.107 134.084 105.13 134.001 105.175 133.928C105.216 133.853 105.279 133.79 105.356 133.747C105.434 133.705 105.522 133.683 105.611 133.686H138.487C138.573 133.686 138.657 133.708 138.732 133.748C138.807 133.789 138.869 133.848 138.913 133.918L158.198 164.639C158.246 164.711 158.272 164.795 158.274 164.881C158.276 164.967 158.253 165.051 158.208 165.126C158.163 165.2 158.098 165.262 158.02 165.304C157.941 165.345 157.852 165.366 157.762 165.364ZM125.18 164.397H156.869L138.152 134.633H106.464L125.18 164.397Z" fill="#E6E7E8"/>
<path d="M130.194 157.224C130.089 157.224 129.987 157.194 129.9 157.137C129.791 157.062 129.718 156.949 129.695 156.823C129.672 156.696 129.702 156.566 129.778 156.461L136.599 147.181L115.72 134.614C115.661 134.581 115.608 134.538 115.567 134.485C115.525 134.433 115.495 134.373 115.479 134.309C115.463 134.246 115.46 134.179 115.471 134.115C115.483 134.05 115.508 133.988 115.545 133.933C115.582 133.878 115.631 133.83 115.688 133.793C115.745 133.757 115.81 133.732 115.877 133.719C115.945 133.707 116.015 133.708 116.082 133.722C116.149 133.737 116.213 133.764 116.268 133.802L137.583 146.678C137.643 146.71 137.693 146.755 137.732 146.809C137.771 146.862 137.796 146.923 137.807 146.987C137.822 147.052 137.822 147.119 137.808 147.184C137.794 147.249 137.766 147.31 137.726 147.364L130.621 157.031C130.57 157.093 130.505 157.142 130.431 157.176C130.357 157.209 130.276 157.226 130.194 157.224Z" fill="#E6E7E8"/>
<path d="M135.32 165.364C135.212 165.365 135.106 165.334 135.016 165.277C134.908 165.2 134.837 165.086 134.816 164.96C134.795 164.834 134.827 164.705 134.904 164.6L138.964 159.274L131.595 154.817C131.535 154.785 131.483 154.741 131.441 154.689C131.4 154.636 131.37 154.576 131.354 154.513C131.337 154.449 131.335 154.383 131.346 154.318C131.357 154.253 131.382 154.191 131.42 154.136C131.457 154.081 131.505 154.034 131.563 153.997C131.62 153.96 131.684 153.935 131.752 153.923C131.82 153.91 131.889 153.911 131.956 153.926C132.024 153.94 132.087 153.967 132.143 154.005L139.948 158.732C140.009 158.767 140.061 158.813 140.101 158.868C140.141 158.923 140.169 158.985 140.182 159.051C140.203 159.184 140.171 159.318 140.091 159.428L135.685 165.17C135.642 165.225 135.587 165.27 135.524 165.304C135.461 165.337 135.392 165.357 135.32 165.364Z" fill="#E6E7E8"/>
<path d="M143.389 158.887C142.496 158.883 141.616 158.679 140.821 158.291C140.025 157.903 139.337 157.342 138.812 156.654C138.635 156.402 138.531 156.11 138.512 155.808C138.492 155.506 138.557 155.204 138.7 154.933C138.945 154.602 139.278 154.338 139.665 154.168C140.051 153.998 140.479 153.929 140.903 153.967C141.796 153.971 142.676 154.175 143.471 154.563C144.266 154.951 144.955 155.512 145.48 156.2C145.671 156.454 145.786 156.753 145.811 157.065C145.836 157.377 145.771 157.69 145.622 157.969C145.369 158.296 145.028 158.554 144.636 158.715C144.244 158.876 143.814 158.936 143.389 158.887ZM140.872 154.933C140.629 154.902 140.382 154.928 140.152 155.009C139.922 155.09 139.716 155.223 139.553 155.397C139.501 155.53 139.485 155.673 139.507 155.813C139.528 155.953 139.586 156.086 139.674 156.2C140.116 156.739 140.679 157.177 141.322 157.481C141.965 157.786 142.671 157.949 143.389 157.959C143.632 157.99 143.88 157.964 144.11 157.883C144.34 157.802 144.545 157.669 144.709 157.495C144.761 157.362 144.776 157.218 144.753 157.077C144.73 156.937 144.669 156.805 144.577 156.693C144.139 156.152 143.578 155.713 142.936 155.408C142.295 155.104 141.589 154.941 140.872 154.933Z" fill="#E6E7E8"/>
<path d="M88.0616 127.103C86.9841 127.087 85.9268 126.822 84.9808 126.33C84.0348 125.838 83.2285 125.135 82.6314 124.28L73.9125 109.403C73.6865 109.082 73.5558 108.708 73.5344 108.322C73.5129 107.936 73.6015 107.551 73.7908 107.209C74.0756 106.832 74.4584 106.533 74.9014 106.34C75.3445 106.147 75.8327 106.066 76.3181 106.107C77.3952 106.126 78.4515 106.392 79.3971 106.883C80.3426 107.375 81.1493 108.077 81.7483 108.93L90.4672 123.807C90.6896 124.13 90.8173 124.503 90.8369 124.889C90.8566 125.275 90.7674 125.659 90.5788 126.001C90.2984 126.38 89.9179 126.681 89.4759 126.874C89.0338 127.068 88.546 127.147 88.0616 127.103ZM76.3181 107.074C76.0091 107.038 75.6957 107.077 75.4066 107.187C75.1176 107.296 74.8621 107.474 74.6637 107.702C74.5729 107.9 74.5374 108.117 74.5605 108.332C74.5836 108.547 74.6646 108.753 74.7956 108.93L83.5144 123.807C84.0278 124.507 84.7067 125.083 85.4966 125.487C86.2864 125.892 87.1651 126.114 88.0616 126.136C88.3682 126.173 88.6797 126.136 88.9671 126.028C89.2545 125.92 89.5086 125.744 89.7059 125.518C89.7996 125.318 89.8367 125.099 89.8135 124.882C89.7903 124.665 89.7078 124.458 89.574 124.28L80.845 109.403C80.3337 108.705 79.6579 108.131 78.8719 107.727C78.0858 107.322 77.2112 107.099 76.3181 107.074Z" fill="#E6E7E8"/>
<path d="M109.762 158.887C108.706 158.879 107.665 158.636 106.724 158.178C105.783 157.72 104.968 157.059 104.342 156.248L95.6234 142.367C95.4007 142.076 95.2676 141.732 95.2389 141.374C95.2102 141.015 95.2871 140.656 95.461 140.337C95.7478 139.955 96.1354 139.652 96.5845 139.458C97.0336 139.265 97.5283 139.188 98.0188 139.235C99.0758 139.241 100.117 139.483 101.058 139.941C101.999 140.4 102.814 141.061 103.439 141.874L112.158 155.736C112.393 156.034 112.532 156.391 112.559 156.763C112.586 157.135 112.5 157.507 112.31 157.833C112.018 158.205 111.63 158.497 111.183 158.682C110.736 158.867 110.247 158.937 109.762 158.887ZM105.205 155.755C105.744 156.417 106.433 156.955 107.22 157.33C108.007 157.705 108.872 157.907 109.752 157.92C110.062 157.958 110.378 157.922 110.67 157.816C110.962 157.71 111.222 157.536 111.427 157.311C111.503 157.138 111.53 156.948 111.505 156.762C111.48 156.575 111.404 156.398 111.285 156.248L102.566 142.367C102.028 141.703 101.339 141.164 100.552 140.79C99.7647 140.415 98.8989 140.214 98.0188 140.201C97.7086 140.164 97.3937 140.201 97.1017 140.307C96.8096 140.413 96.5495 140.586 96.3441 140.81C96.2722 140.985 96.2484 141.175 96.2751 141.361C96.3017 141.547 96.3779 141.723 96.4963 141.874L105.205 155.755Z" fill="#E6E7E8"/>
<path d="M274.284 173.416C274.195 173.416 274.108 173.393 274.032 173.351C273.955 173.308 273.892 173.247 273.847 173.174L223.828 92.216C223.762 92.1059 223.744 91.9756 223.778 91.8531C223.812 91.7305 223.896 91.6257 224.01 91.561C224.125 91.4964 224.261 91.4771 224.39 91.5074C224.52 91.5377 224.631 91.6152 224.701 91.723L274.71 172.681C274.777 172.793 274.796 172.926 274.761 173.05C274.727 173.175 274.643 173.282 274.527 173.348C274.453 173.388 274.369 173.412 274.284 173.416Z" fill="#E6E7E8"/>
<path d="M239.274 99.8319C239.713 98.9197 238.727 97.5936 237.071 96.8699C235.416 96.1462 233.717 96.2991 233.277 97.2113C232.838 98.1235 233.824 99.4497 235.48 100.173C237.135 100.897 238.834 100.744 239.274 99.8319Z" fill="#E6E7E8"/>
<path d="M250.776 123.739C250.688 123.738 250.601 123.716 250.524 123.674C250.448 123.631 250.384 123.57 250.34 123.497L238.728 103.7C238.662 103.587 238.646 103.454 238.683 103.33C238.72 103.206 238.808 103.101 238.926 103.038C239.045 102.975 239.184 102.96 239.315 102.995C239.445 103.03 239.555 103.114 239.621 103.226L251.223 123.033C251.289 123.145 251.305 123.277 251.269 123.4C251.233 123.523 251.147 123.628 251.03 123.691C250.95 123.725 250.864 123.741 250.776 123.739Z" fill="#E6E7E8"/>
<path d="M74.2373 125.353L72.2073 124.174L72.8874 123.478L76.176 125.411L76.856 126.571H68.9695L68.2691 125.382L74.2373 125.353Z" fill="#E6E7E8"/>
<path d="M73.0701 133.667L70.8878 129.955H71.8115L76.379 132.275L76.9068 132.545L77.4752 132.787L78.0436 132.961C78.2237 132.998 78.4074 133.018 78.5917 133.019C78.7721 133.026 78.9521 132.996 79.1195 132.932C79.2463 132.89 79.3516 132.804 79.4138 132.69C79.4759 132.581 79.4974 132.455 79.4748 132.333C79.4512 132.176 79.3961 132.025 79.3124 131.888C79.1224 131.578 78.8537 131.319 78.5308 131.134C78.1874 130.921 77.7995 130.783 77.394 130.728L77.12 130.1C77.7351 130.173 78.3249 130.378 78.8455 130.699C79.3326 130.983 79.7374 131.378 80.0229 131.849C80.156 132.057 80.2456 132.286 80.2867 132.526C80.3449 132.709 80.3449 132.904 80.2867 133.087C80.2029 133.26 80.0547 133.398 79.8706 133.473C79.6157 133.582 79.3375 133.632 79.0586 133.618C78.7575 133.617 78.4576 133.581 78.1654 133.512C77.8674 133.444 77.5755 133.353 77.2925 133.241C77.0083 133.135 76.7241 133.009 76.4399 132.874L75.5975 132.439L72.0551 130.593L73.8516 133.667H73.0701Z" fill="#E6E7E8"/>
<path d="M79.83 137.446L80.0026 137.746C80.106 137.922 80.2285 138.087 80.368 138.239C80.514 138.395 80.6813 138.531 80.8653 138.645C81.0512 138.769 81.2569 138.863 81.4743 138.925C81.7107 138.997 81.9572 139.032 82.2051 139.032C82.6314 139.032 82.9055 138.935 83.0273 138.742C83.1491 138.558 83.1084 138.287 82.9054 137.949C82.7541 137.691 82.5464 137.467 82.2965 137.292C82.0175 137.095 81.7097 136.939 81.3829 136.828V136.315C81.8649 136.466 82.3176 136.692 82.7227 136.982C83.0733 137.248 83.3663 137.577 83.5855 137.949C83.7066 138.153 83.7891 138.375 83.8291 138.606C83.8609 138.787 83.8325 138.973 83.7479 139.138C83.6554 139.304 83.5045 139.434 83.3216 139.505C83.0686 139.608 82.7944 139.654 82.5198 139.641C82.3005 139.644 82.0819 139.618 81.8702 139.563C81.6464 139.514 81.4286 139.443 81.2206 139.351C81.0093 139.266 80.8084 139.159 80.6217 139.032C80.449 138.919 80.2861 138.792 80.1345 138.655C80.1799 138.803 80.1799 138.961 80.1345 139.109C80.0952 139.25 80.0099 139.375 79.8909 139.467C79.7528 139.572 79.5941 139.651 79.424 139.699C79.2136 139.76 78.9944 139.789 78.7744 139.786C78.4301 139.78 78.0884 139.728 77.7594 139.631C77.1049 139.452 76.5081 139.12 76.0238 138.664C75.7987 138.448 75.6042 138.204 75.4452 137.939C75.2182 137.608 75.1212 137.211 75.1712 136.818C75.2321 136.499 75.496 136.257 75.9629 136.103L76.582 136.731C76.455 136.755 76.3361 136.808 76.2353 136.886C76.1346 136.963 76.055 137.063 76.0035 137.176C75.9786 137.319 75.9847 137.466 76.0214 137.607C76.058 137.749 76.1244 137.881 76.2166 137.997C76.3175 138.171 76.4478 138.328 76.6023 138.461C76.7671 138.615 76.9512 138.748 77.1504 138.858C77.3526 138.974 77.5714 139.062 77.8 139.119C78.0235 139.184 78.2563 139.217 78.4902 139.215C78.7244 139.229 78.9583 139.186 79.1703 139.09C79.3117 139.021 79.4205 138.903 79.4748 138.761C79.5202 138.606 79.5202 138.442 79.4748 138.287C79.4181 138.092 79.3363 137.903 79.2312 137.727L79.0789 137.475L79.83 137.446Z" fill="#E6E7E8"/>
<path d="M82.601 145.441L83.0983 146.282H82.3573L81.86 145.441H79.9924L79.6473 144.841H81.5149L80.033 142.367H80.9465L87.4324 144.725L87.879 145.489L82.601 145.441ZM86.732 144.841L81.0683 142.821L82.2558 144.851L86.732 144.841Z" fill="#E6E7E8"/>
<path d="M65.7926 128.833C65.701 128.835 65.6109 128.812 65.5321 128.768C65.4533 128.723 65.3889 128.659 65.346 128.582L62.24 123.294C62.1778 123.181 62.1642 123.049 62.202 122.927C62.2399 122.804 62.3263 122.7 62.4431 122.637C62.5602 122.574 62.6986 122.559 62.828 122.593C62.9574 122.627 63.0672 122.709 63.1333 122.821L66.2392 128.118C66.3014 128.231 66.315 128.363 66.2772 128.486C66.2393 128.608 66.1529 128.712 66.0362 128.775C65.9613 128.814 65.8776 128.834 65.7926 128.833Z" fill="#E6E7E8"/>
<path d="M175.473 14.032C174.154 8.95703 170.398 3.9787 164.136 5.87337C163.714 6.04935 163.256 6.13198 162.796 6.11504C162.433 6.04892 162.088 5.91415 161.781 5.7187C155.803 2.6157 147.429 5.01304 142.232 8.69604C137.035 12.379 133.777 17.976 128.134 20.6827C125.089 22.123 121.709 22.616 118.42 23.3314C115.132 24.0467 111.772 25.2647 109.549 27.6427C107.326 30.0207 106.687 34.0517 108.961 36.4297C110.991 38.5177 114.482 38.7594 116.532 40.8087C115.739 40.7589 114.945 40.8786 114.207 41.1591C113.469 41.4397 112.806 41.8738 112.267 42.4299C111.728 42.986 111.326 43.6498 111.091 44.3729C110.856 45.0959 110.794 45.8599 110.909 46.6087C111.478 49.1704 114.036 50.8137 116.441 52.0897C124.916 56.5654 134.376 59.823 144.069 59.6007C151.405 59.5068 158.478 56.9846 164.075 52.4667C170.023 47.4304 172.418 42.104 174.651 34.883C176.861 28.1249 177.145 20.9289 175.473 14.032Z" fill="white"/>
<path d="M143.014 60.0937C134.731 60.0937 125.759 57.5417 116.197 52.5054C113.68 51.1714 111.021 49.4411 110.412 46.7054C110.257 45.8815 110.31 45.0341 110.568 44.2338C110.825 43.4335 111.28 42.7033 111.894 42.1041C112.758 41.1918 113.914 40.5768 115.182 40.3544C114.354 39.8628 113.481 39.4423 112.574 39.0977C111.088 38.5913 109.732 37.7907 108.595 36.7487C106.027 34.0904 106.9 29.7887 109.174 27.3237C111.63 24.6557 115.345 23.5441 118.309 22.8674L120.552 22.3937C123.085 21.9703 125.553 21.2494 127.9 20.2477C131.108 18.7204 133.523 16.2361 136.081 13.6164C137.855 11.6807 139.812 9.9042 141.928 8.30939C147.206 4.56839 155.742 2.03573 162.025 5.30306C162.281 5.46406 162.567 5.57875 162.867 5.6414C163.191 5.64815 163.513 5.58882 163.811 5.4674L163.984 5.40939C165.031 5.05288 166.145 4.91079 167.254 4.99241C168.363 5.07403 169.441 5.37752 170.419 5.88306C172.966 7.24606 174.986 10.1751 175.961 13.9161C177.639 20.8854 177.345 28.1542 175.108 34.9797C172.794 42.4617 170.307 47.7784 164.39 52.7857C158.712 57.3788 151.538 59.9546 144.09 60.0744L143.014 60.0937ZM115.984 41.2534C115.347 41.2715 114.721 41.4148 114.144 41.6743C113.568 41.9338 113.054 42.3039 112.635 42.7614C112.131 43.2483 111.756 43.8423 111.541 44.4945C111.325 45.1466 111.276 45.8382 111.396 46.5121C111.924 48.8707 114.37 50.4367 116.685 51.6644C126.459 56.8361 135.635 59.3977 144.09 59.1174C151.301 59.0001 158.247 56.5103 163.75 52.0704C169.485 47.2371 171.87 42.0267 174.174 34.6704C176.351 28.0069 176.641 20.9142 175.017 14.1094C174.103 10.6294 172.266 7.92273 169.942 6.68539C169.084 6.24703 168.14 5.98521 167.169 5.91694C166.199 5.84866 165.224 5.97544 164.308 6.28906L164.146 6.34706C163.747 6.52961 163.304 6.60706 162.863 6.57136C162.423 6.53566 162 6.38811 161.639 6.14406C155.935 3.1764 147.733 5.37073 142.547 9.04406C140.483 10.605 138.574 12.3426 136.843 14.2351C134.335 16.8064 131.768 19.4551 128.377 21.0694C125.955 22.1119 123.404 22.8589 120.785 23.2927L118.562 23.7664C115.751 24.4044 112.219 25.4581 109.945 27.9231C107.915 30.0691 107.174 33.7907 109.356 36.0624C110.403 37 111.644 37.718 113 38.1697C114.452 38.6716 115.784 39.4438 116.918 40.4414C116.993 40.5125 117.042 40.6045 117.059 40.7041C117.075 40.8036 117.058 40.9056 117.009 40.995C116.96 41.0845 116.883 41.1569 116.788 41.2016C116.693 41.2463 116.586 41.2611 116.482 41.2437C116.316 41.2362 116.15 41.2394 115.984 41.2534Z" fill="#231F20"/>
<path d="M128.235 36.4393C131.392 35.2793 122.968 33.5393 115.396 47.0146C109.62 57.3386 104.657 76.1983 104.657 76.1983L71.4359 84.4633L84.164 95.0966C84.164 95.0966 120.237 88.5716 120.887 87.2086C121.536 85.8456 128.235 36.4393 128.235 36.4393Z" fill="white"/>
<path d="M84.1641 95.5317C84.0508 95.5312 83.9419 95.4897 83.8596 95.4157L71.1315 84.7823C71.0669 84.7301 71.0193 84.6615 70.9941 84.5845C70.9689 84.5075 70.9673 84.4252 70.9894 84.3473C71.0078 84.2699 71.0476 84.1987 71.1047 84.1409C71.1618 84.0831 71.2341 84.0409 71.3142 84.0187L104.271 75.831C104.89 73.54 109.61 56.401 114.99 46.831C120.958 36.1977 127.302 35.0087 128.662 35.231C129.271 35.347 129.362 35.7047 129.382 35.8594C129.382 36.1977 129.169 36.4877 128.662 36.7197C127.84 42.829 121.973 86.0197 121.313 87.3537C120.653 88.6877 97.8158 93.0377 84.2554 95.493L84.1641 95.5317ZM72.4002 84.676L84.3062 94.6134C97.7651 92.1774 119.303 87.9724 120.521 86.938C120.968 85.778 125.109 56.0627 127.779 36.3814C127.791 36.2759 127.846 36.1791 127.931 36.1107C127.613 36.1392 127.3 36.2008 126.997 36.2944C125.586 36.681 120.623 38.624 115.832 47.2274C110.148 57.3774 105.185 76.121 105.134 76.3047C105.115 76.3824 105.074 76.4536 105.015 76.51C104.955 76.5664 104.881 76.6058 104.799 76.6237L72.4002 84.676Z" fill="#231F20"/>
<path d="M175.849 43.8343C175.301 42.8 135.452 27.6716 122.673 37C109.894 46.3283 115.568 94.275 115.568 94.275L171.454 102.318C171.454 102.318 190.719 71.974 175.849 43.8343Z" fill="#1CC06D"/>
<path d="M139.989 42.6743C139.989 42.6743 129.007 87.895 128.915 88.2913C128.824 88.6876 142.628 93.608 143.125 93.0183C143.623 92.4286 154.169 49.1413 154.169 49.1413L141.542 43.902" fill="#231F20"/>
<path d="M142.993 93.4727C140.253 93.4727 129.25 89.055 129.129 89.0067C128.753 88.823 128.327 88.62 128.428 88.185C128.53 87.75 139.045 44.4047 139.492 42.5584C139.523 42.4342 139.605 42.3269 139.719 42.2599C139.833 42.1929 139.97 42.1716 140.101 42.2007C140.231 42.2305 140.344 42.3083 140.414 42.4169C140.484 42.5256 140.507 42.6564 140.476 42.7807C140.375 43.2157 130.428 84.1927 129.484 88.098C131.169 88.968 141.126 92.4674 142.831 92.5834C143.572 90.476 149.601 65.9904 153.621 49.4217L141.38 44.3467C141.318 44.3213 141.263 44.2847 141.216 44.2389C141.17 44.1931 141.133 44.139 141.109 44.0797C141.084 44.0205 141.072 43.9572 141.074 43.8936C141.075 43.8299 141.089 43.7671 141.116 43.7087C141.142 43.6503 141.181 43.5975 141.229 43.5532C141.277 43.509 141.334 43.4742 141.396 43.4509C141.458 43.4275 141.525 43.4161 141.591 43.4172C141.658 43.4183 141.724 43.432 141.786 43.4574L154.412 48.6967C154.521 48.7414 154.609 48.8215 154.661 48.9224C154.713 49.0234 154.725 49.1387 154.696 49.2477C150.768 65.4587 144.1 92.7477 143.531 93.3374C143.376 93.4446 143.184 93.4929 142.993 93.4727Z" fill="#231F20"/>
<path d="M156.899 40.8667L153.925 49.8857C153.925 49.8857 151.357 53.646 145.46 50.3787C139.563 47.1114 139.948 42.6454 139.948 42.6454L146.038 25.9897C146.038 25.9897 157.579 23.7857 159.233 13.655C159.77 16.2655 161.138 18.6554 163.149 20.5006C165.161 22.3458 167.72 23.5568 170.48 23.9694C170.48 23.9694 167.871 32.6694 165.628 37.1644C163.385 41.6594 156.899 40.8667 156.899 40.8667Z" fill="white"/>
<path d="M149.946 52.1863C148.277 52.1309 146.654 51.6502 145.247 50.7943C139.157 47.4013 139.461 42.829 139.482 42.6357C139.471 42.5944 139.471 42.5513 139.482 42.51L145.572 25.8544C145.598 25.7749 145.647 25.704 145.714 25.6495C145.78 25.5949 145.861 25.5588 145.947 25.545C146.059 25.545 157.112 23.283 158.767 13.6067C158.786 13.494 158.846 13.3913 158.937 13.317C159.028 13.2427 159.144 13.2015 159.264 13.2007C159.385 13.2011 159.502 13.242 159.595 13.3162C159.688 13.3904 159.75 13.4932 159.771 13.6067C160.272 16.1244 161.583 18.4315 163.521 20.2085C165.46 21.9855 167.93 23.1444 170.591 23.5247C170.662 23.5334 170.729 23.557 170.789 23.5938C170.849 23.6306 170.899 23.6796 170.936 23.7373C170.976 23.7952 171.002 23.8606 171.013 23.9291C171.024 23.9976 171.018 24.0674 170.997 24.1337C169.661 28.647 168.031 33.0765 166.115 37.3963C164.085 41.495 158.767 41.4757 157.214 41.3693L154.412 50.0693L154.351 50.1853C153.83 50.8214 153.161 51.3333 152.397 51.6806C151.632 52.0279 150.793 52.201 149.946 52.1863ZM140.486 42.8C140.486 43.322 140.486 47.092 145.764 50.0017C150.839 52.805 153.194 50.108 153.499 49.7117L156.412 40.7507C156.447 40.6419 156.521 40.5483 156.621 40.4864C156.721 40.4245 156.841 40.3983 156.96 40.4123C157.021 40.4123 163.192 41.1083 165.242 37.0193C167.074 32.9288 168.63 28.7315 169.901 24.4527C167.495 24.0162 165.254 22.9815 163.403 21.4536C161.553 19.9257 160.16 17.9589 159.365 15.7527C156.899 23.6793 148.2 26.125 146.475 26.531L140.486 42.8Z" fill="#231F20"/>
<path d="M154.443 20.1027L135.371 26.386L136.284 28.4257L155.133 22.616L154.443 20.1027Z" fill="#231F20"/>
<path d="M136.284 28.8994C136.187 28.8991 136.091 28.8714 136.01 28.8198C135.929 28.7682 135.865 28.6951 135.828 28.6094L134.904 26.5697C134.874 26.5109 134.859 26.4465 134.859 26.3812C134.859 26.3159 134.874 26.2515 134.904 26.1927C134.931 26.1317 134.971 26.0769 135.021 26.0319C135.072 25.9869 135.133 25.9527 135.198 25.9317L154.28 19.6C154.344 19.574 154.413 19.5605 154.483 19.5605C154.553 19.5605 154.622 19.574 154.686 19.6C154.747 19.6303 154.8 19.6728 154.842 19.7245C154.884 19.7763 154.914 19.836 154.93 19.8997L155.62 22.413C155.655 22.5322 155.639 22.6596 155.577 22.768C155.514 22.8764 155.409 22.9572 155.285 22.993L136.447 28.793C136.402 28.8396 136.346 28.8759 136.284 28.8994ZM136.041 26.6664L136.568 27.8264L154.524 22.297L154.098 20.7214L136.041 26.6664Z" fill="#231F20"/>
<path d="M149.246 26.3666C149.284 25.4753 149.024 24.5955 148.505 23.8533C147.977 23.1884 147.336 22.6132 146.607 22.1519C146.24 21.8627 145.81 21.6547 145.348 21.5429C145.009 21.4979 144.664 21.5176 144.333 21.6009C143.541 21.7226 142.821 22.11 142.303 22.6933C141.97 23.2209 141.778 23.8184 141.745 24.4333C141.623 25.0709 141.592 25.7212 141.654 26.3666C141.73 27.0253 141.944 27.6629 142.282 28.2421C142.62 28.8213 143.076 29.3305 143.623 29.74C144.17 30.1495 144.798 30.451 145.469 30.627C146.139 30.803 146.84 30.8499 147.53 30.765" fill="white"/>
<path d="M146.82 31.316C145.526 31.3141 144.269 30.9027 143.247 30.1463C142.651 29.6962 142.154 29.1382 141.784 28.5045C141.415 27.8708 141.181 27.1738 141.095 26.4536C141.018 25.7507 141.049 25.0408 141.187 24.3463C141.252 23.6559 141.496 22.9916 141.897 22.413C142.483 21.7371 143.304 21.2842 144.211 21.137C144.603 21.0456 145.01 21.026 145.409 21.079C145.953 21.1995 146.46 21.4377 146.891 21.775C147.671 22.2668 148.357 22.8813 148.921 23.5923C149.511 24.4192 149.804 25.4065 149.753 26.4053C149.752 26.4697 149.737 26.5332 149.709 26.5918C149.681 26.6503 149.64 26.7026 149.589 26.7453C149.539 26.7881 149.479 26.8203 149.415 26.84C149.351 26.8597 149.283 26.8664 149.215 26.8597C149.149 26.8572 149.084 26.8422 149.024 26.8154C148.964 26.7887 148.91 26.7508 148.866 26.704C148.821 26.6571 148.787 26.6023 148.765 26.5427C148.743 26.4831 148.734 26.42 148.738 26.357C148.777 25.5704 148.546 24.7931 148.079 24.1433C147.588 23.5235 146.991 22.9874 146.313 22.558C146.014 22.3189 145.669 22.1382 145.298 22.0263C145.029 21.9963 144.757 22.016 144.496 22.0843C143.831 22.1906 143.226 22.5115 142.78 22.993C142.479 23.4412 142.294 23.9517 142.242 24.4817C142.128 25.0908 142.101 25.7119 142.161 26.328C142.23 26.923 142.423 27.499 142.728 28.0223C143.034 28.5455 143.446 29.0055 143.94 29.3754C144.434 29.7454 145.001 30.0177 145.607 30.1766C146.213 30.3356 146.846 30.3778 147.47 30.301C147.603 30.2897 147.737 30.3274 147.842 30.4064C147.948 30.4855 148.018 30.5999 148.038 30.7263C148.052 30.8542 148.014 30.9824 147.93 31.0835C147.847 31.1847 147.725 31.2507 147.591 31.2676C147.336 31.3008 147.078 31.3169 146.82 31.316Z" fill="#231F20"/>
<path d="M162.41 27.0143C162.41 27.0143 164.44 32.6306 163.425 33.2589C162.41 33.8873 160.319 32.7853 160.319 32.7853" fill="white"/>
<path d="M162.624 33.9357C161.725 33.8771 160.852 33.6295 160.066 33.2107C159.949 33.1477 159.863 33.0432 159.827 32.92C159.791 32.7967 159.807 32.6649 159.873 32.5533C159.939 32.442 160.049 32.3601 160.178 32.3257C160.308 32.2912 160.446 32.3071 160.563 32.3697C161.162 32.679 162.593 33.2107 163.151 32.853C163.446 32.4663 162.887 29.808 161.923 27.169C161.881 27.0485 161.891 26.917 161.949 26.8031C162.008 26.6891 162.112 26.6018 162.238 26.56C162.366 26.5196 162.505 26.5283 162.627 26.5842C162.748 26.6402 162.841 26.739 162.887 26.8597C163.902 29.5857 164.826 32.9787 163.699 33.6263C163.38 33.8268 163.006 33.9343 162.624 33.9357Z" fill="#231F20"/>
<path d="M160.302 24.3821C160.55 23.7923 160.392 23.1775 159.95 23.0088C159.507 22.8401 158.948 23.1815 158.7 23.7713C158.452 24.3611 158.61 24.976 159.052 25.1446C159.494 25.3133 160.054 24.9719 160.302 24.3821Z" fill="#231F20"/>
<path d="M166.231 26.3025C166.545 25.7424 166.46 25.1147 166.04 24.9006C165.62 24.6864 165.024 24.9669 164.709 25.527C164.395 26.0871 164.48 26.7147 164.9 26.9289C165.32 27.1431 165.916 26.8626 166.231 26.3025Z" fill="#231F20"/>
<path d="M162.502 35.695C162.502 35.695 152.839 37.6283 154.037 30.0786L162.502 35.695Z" fill="white"/>
<path d="M160.015 36.4007C158.161 36.5086 156.331 35.9575 154.879 34.8541C153.661 33.7521 153.215 32.1184 153.549 30.0207C153.559 29.9573 153.582 29.8963 153.617 29.8413C153.652 29.7863 153.698 29.7383 153.752 29.7002C153.806 29.662 153.868 29.6344 153.933 29.6189C153.998 29.6034 154.066 29.6004 154.133 29.6099C154.2 29.6194 154.264 29.6413 154.322 29.6744C154.379 29.7075 154.43 29.7511 154.47 29.8027C154.51 29.8543 154.539 29.913 154.555 29.9752C154.571 30.0375 154.574 30.1023 154.564 30.1657C154.28 31.9541 154.625 33.2977 155.579 34.1774C157.741 36.1107 162.37 35.2504 162.41 35.2407C162.476 35.2267 162.544 35.2253 162.61 35.2368C162.675 35.2483 162.738 35.2724 162.794 35.3076C162.85 35.3428 162.898 35.3885 162.935 35.4417C162.972 35.495 162.997 35.5549 163.009 35.6177C163.024 35.6793 163.026 35.7432 163.014 35.8054C163.003 35.8677 162.979 35.9272 162.943 35.9803C162.907 36.0335 162.86 36.0793 162.805 36.1149C162.75 36.1506 162.689 36.1755 162.624 36.1881C161.763 36.3369 160.89 36.4081 160.015 36.4007Z" fill="#231F20"/>
<path d="M154.443 20.1027L158.746 20.1317L155.133 22.616" fill="white"/>
<path d="M155.133 23.0994C155.052 23.0983 154.972 23.0794 154.9 23.0442C154.828 23.009 154.765 22.9584 154.717 22.8964C154.678 22.8444 154.65 22.7857 154.635 22.7234C154.62 22.6612 154.618 22.5968 154.63 22.5339C154.641 22.471 154.665 22.4108 154.701 22.3569C154.737 22.303 154.784 22.2564 154.838 22.2197L157.193 20.5667H154.443C154.307 20.5642 154.178 20.5111 154.083 20.419C153.988 20.3268 153.935 20.2028 153.935 20.0737C153.938 19.9472 153.992 19.8267 154.087 19.7382C154.182 19.6496 154.31 19.6 154.443 19.6001H158.736C158.871 19.5667 159.014 19.5857 159.134 19.6528C159.254 19.7198 159.341 19.8295 159.376 19.9577C159.411 20.0859 159.391 20.2221 159.32 20.3363C159.25 20.4505 159.135 20.5334 159 20.5667L155.387 23.0414C155.31 23.0833 155.222 23.1034 155.133 23.0994Z" fill="#231F20"/>
<path d="M156.899 40.8666C156.899 40.8666 152.007 39.3103 150.18 37.319C150.18 37.319 150.18 43.235 155.041 46.2703L156.899 40.8666Z" fill="#231F20"/>
<path d="M155.042 46.744C154.941 46.7421 154.843 46.7155 154.757 46.6667C149.753 43.525 149.682 37.5607 149.682 37.3094C149.684 37.2128 149.715 37.1189 149.773 37.0396C149.831 36.9604 149.913 36.8994 150.007 36.8647C150.102 36.8282 150.207 36.8206 150.307 36.8431C150.407 36.8656 150.497 36.9171 150.565 36.9904C152.281 38.8657 157.021 40.3834 157.061 40.393C157.188 40.4349 157.292 40.5218 157.352 40.6353C157.413 40.7488 157.425 40.8802 157.386 41.002L155.529 46.4057C155.506 46.4773 155.465 46.5426 155.41 46.5964C155.356 46.6502 155.288 46.6908 155.214 46.715C155.159 46.7352 155.1 46.7451 155.042 46.744ZM150.799 38.508C151.151 41.2276 152.569 43.7202 154.767 45.4874L156.26 41.147C154.324 40.5039 152.487 39.6164 150.799 38.508Z" fill="#231F20"/>
<path d="M99.5819 108.572L124.591 98.3253L84.1843 80.1616L52.3438 90.8916L99.5819 108.572Z" fill="white"/>
<path d="M99.5819 109.017C99.5282 109.026 99.4732 109.026 99.4195 109.017L52.1814 91.3266C52.0918 91.297 52.0142 91.2415 51.9592 91.1678C51.9043 91.0942 51.8748 91.0061 51.8748 90.9158C51.8748 90.8255 51.9043 90.7374 51.9592 90.6638C52.0142 90.5902 52.0918 90.5347 52.1814 90.505L84.022 79.775C84.136 79.7314 84.2632 79.7314 84.3772 79.775L124.784 97.9C124.867 97.9336 124.936 97.9907 124.984 98.0633C125.031 98.136 125.053 98.2207 125.048 98.306C125.048 98.3902 125.022 98.4725 124.973 98.5429C124.924 98.6132 124.855 98.6686 124.774 98.7023L99.7646 108.949C99.7111 108.987 99.648 109.01 99.5819 109.017ZM53.6735 90.911L99.5819 108.098L123.475 98.306L84.1742 80.645L53.6735 90.911Z" fill="#231F20"/>
<path d="M166.937 47.1114C166.937 47.1114 158.046 89.6447 154.696 89.5771C151.347 89.5094 111.66 84.5214 109.356 84.4731C107.052 84.4247 100.81 85.5171 99.1048 86.8704C97.3996 88.2237 93.2178 94.7681 95.0448 95.0484C96.8718 95.3287 101.429 96.2664 103.013 96.1987C104.596 96.1311 108.22 93.2987 108.22 93.2987C108.22 93.2987 106.261 96.7111 108.372 96.7401C110.483 96.7691 115.477 94.2171 115.477 94.2171C115.477 94.2171 159.639 112.352 167.993 105.943C176.346 99.5337 182.903 80.5484 182.71 63.7091C182.518 46.8697 171.728 39.0011 166.937 47.1114Z" fill="white"/>
<path d="M162.116 107.77C147.906 107.77 118.623 95.9957 115.548 94.739C114.533 95.2224 110.412 97.2234 108.443 97.2234C108.199 97.238 107.956 97.189 107.74 97.0817C107.523 96.9743 107.342 96.8128 107.215 96.6144C106.95 95.9946 106.95 95.3007 107.215 94.681C105.966 95.5317 104.17 96.6144 103.155 96.6144C101.078 96.4937 99.0141 96.2157 96.9835 95.783L95.0854 95.4544C94.8965 95.4285 94.7201 95.3493 94.579 95.2269C94.4379 95.1046 94.3385 94.9447 94.2937 94.768C93.7761 92.97 97.491 87.634 98.9221 86.503C100.719 85.0724 107.042 83.9414 109.478 83.9994C110.493 83.9994 118.532 84.966 127.829 86.0874C139.603 87.4987 152.951 89.084 154.808 89.1034C156.767 88.6394 162.339 67.3244 166.592 46.9954C166.586 46.9504 166.586 46.905 166.592 46.86C168.196 44.1534 170.652 42.9934 173.24 43.6024C178.133 44.7914 183.157 52.0897 183.289 63.709C183.482 80.7417 176.803 99.843 168.389 106.291C167.008 107.344 164.836 107.77 162.116 107.77ZM115.528 93.811C115.588 93.7975 115.65 93.7975 115.71 93.811C115.822 93.811 126.875 98.3737 138.802 102.066C154.453 106.9 164.461 108.118 167.749 105.595C175.961 99.3017 182.487 80.5097 182.294 63.709C182.172 52.6504 177.392 45.526 172.946 44.4434C170.754 43.9117 168.774 44.8977 167.374 47.2274C167.181 48.194 165.029 58.3537 162.522 68.4167C157.153 90.0024 155.468 89.9637 154.686 89.9734C152.778 89.9734 139.4 88.3687 127.596 86.9573C118.715 85.894 110.341 84.8984 109.326 84.879C106.951 84.7824 100.891 85.981 99.3891 87.17C98.1102 88.1947 95.2072 92.5254 95.055 94.246C95.0237 94.3503 95.0237 94.4608 95.055 94.565L97.0038 94.9033C98.9689 95.3004 100.959 95.5748 102.962 95.725C104.129 95.725 106.92 93.7047 107.895 92.9507C107.979 92.888 108.082 92.8539 108.189 92.8539C108.296 92.8539 108.399 92.888 108.483 92.9507C108.567 93.0152 108.625 93.1059 108.645 93.2068C108.665 93.3076 108.648 93.4121 108.595 93.5017C108.148 94.2944 107.58 95.667 107.905 96.131C107.905 96.131 108.006 96.2953 108.341 96.2953C109.996 96.2953 113.873 94.5167 115.243 93.8207C115.335 93.7917 115.434 93.7884 115.528 93.811Z" fill="#231F20"/>
<path d="M99.5819 108.533C99.0845 105.73 94.649 65.0334 94.649 65.0334L45.046 48.1747L52.354 90.8917L99.5819 108.533Z" fill="white"/>
<path d="M99.5819 109.017C99.5282 109.026 99.4732 109.026 99.4195 109.017L52.1814 91.3266C52.1063 91.2986 52.0399 91.2528 51.9884 91.1936C51.9369 91.1345 51.9021 91.0638 51.8871 90.9883L44.5892 48.281C44.5795 48.2044 44.5891 48.1267 44.6174 48.0544C44.6456 47.982 44.6917 47.9172 44.7516 47.8653C44.8154 47.818 44.8903 47.7863 44.9699 47.7728C45.0495 47.7593 45.1314 47.7645 45.2084 47.788L94.8114 64.666C94.8924 64.6951 94.9635 64.7447 95.0171 64.8094C95.0708 64.8741 95.1049 64.9515 95.1159 65.0333C95.1159 65.4393 99.5515 105.769 100.039 108.533C100.053 108.61 100.046 108.689 100.017 108.762C99.9887 108.835 99.94 108.9 99.8763 108.949C99.7882 109.001 99.6851 109.024 99.5819 109.017ZM52.76 90.5726L99.0135 107.886C98.2116 101.941 94.6185 69.0353 94.2227 65.3523L45.6346 48.8223L52.76 90.5726Z" fill="#231F20"/>
<path d="M77.0387 81.7276C77.0455 79.9466 76.585 78.1921 75.6989 76.6236C75.1728 75.5938 74.3488 74.7286 73.3238 74.1296C72.8124 73.834 72.2288 73.6705 71.6308 73.6552C71.0327 73.64 70.4408 73.7735 69.9134 74.0426C69.1317 74.5549 68.5556 75.3047 68.2793 76.1693C67.8991 77.1578 67.7475 78.2129 67.8351 79.2623C67.9227 80.3117 68.2474 81.3308 68.7868 82.2496C70.766 85.43 77.0286 86.996 77.0387 81.7276Z" fill="white"/>
<path d="M73.9836 85.6136C72.8545 85.558 71.7563 85.2433 70.7825 84.6963C69.8088 84.1493 68.9883 83.3862 68.3909 82.472C67.8179 81.4979 67.4731 80.4173 67.3802 79.3043C67.2873 78.1913 67.4486 77.0723 67.853 76.0243C68.1515 75.0605 68.7941 74.2262 69.6698 73.6657C70.2694 73.3571 70.9429 73.202 71.6243 73.2155C72.3057 73.2291 72.9717 73.4108 73.5573 73.743C74.6532 74.3863 75.5362 75.3111 76.1049 76.411C77.0301 78.0442 77.5116 79.8719 77.5056 81.7277C77.5056 84.444 75.9527 85.2463 75.029 85.488C74.6872 85.5702 74.3361 85.6124 73.9836 85.6136ZM71.4664 74.091C71.0039 74.0885 70.5489 74.2019 70.1469 74.4197C69.4534 74.8909 68.9487 75.5726 68.7157 76.353C68.353 77.2791 68.2078 78.2697 68.2902 79.255C68.3726 80.2404 68.6807 81.1965 69.1928 82.0563C70.3194 83.8833 72.9889 85.1206 74.7854 84.6566C75.9527 84.357 76.5718 83.3517 76.582 81.7567C76.5801 80.0502 76.1374 78.3704 75.2929 76.8653C74.8061 75.9108 74.0461 75.1066 73.1005 74.5453C72.6058 74.2628 72.043 74.1063 71.4664 74.091Z" fill="#231F20"/>
<path d="M71.913 77.252C72.0145 77.3003 72.3088 80.2003 72.3088 80.2003L74.4404 78.3926" fill="white"/>
<path d="M72.3088 80.6353H72.1363C72.0565 80.6071 71.987 80.5573 71.9365 80.4921C71.886 80.4268 71.8567 80.3489 71.8521 80.2679C71.7303 79.0983 71.5679 77.7643 71.4968 77.4839C71.464 77.4243 71.4468 77.358 71.4468 77.2906C71.4468 77.2232 71.464 77.1569 71.4968 77.0973C71.522 77.0451 71.5577 76.9981 71.602 76.9591C71.6463 76.9201 71.6982 76.8899 71.7548 76.8701C71.8114 76.8503 71.8716 76.8414 71.9319 76.8439C71.9921 76.8464 72.0512 76.8602 72.1058 76.8846C72.3596 77.0006 72.4408 77.0296 72.6844 79.3206L74.1359 78.0929C74.1783 78.052 74.2289 78.0195 74.2847 77.9974C74.3404 77.9752 74.4002 77.9638 74.4607 77.9638C74.5211 77.9638 74.5809 77.9752 74.6366 77.9974C74.6924 78.0195 74.743 78.052 74.7855 78.0929C74.8698 78.1759 74.9169 78.2868 74.9169 78.4023C74.9169 78.5177 74.8698 78.6287 74.7855 78.7116L72.6235 80.4999C72.538 80.578 72.4269 80.6258 72.3088 80.6353Z" fill="#231F20"/>
<path d="M94.2532 1.20435H47.5225V38.9913H94.2532V1.20435Z" fill="white"/>
<path d="M94.2532 39.4747H47.5631C47.4286 39.4747 47.2995 39.4237 47.2043 39.3331C47.1091 39.2425 47.0556 39.1195 47.0556 38.9913V1.23333C47.0556 1.10515 47.1091 0.982207 47.2043 0.891565C47.2995 0.800922 47.4286 0.75 47.5631 0.75H94.2532C94.3877 0.75 94.5168 0.800922 94.612 0.891565C94.7072 0.982207 94.7607 1.10515 94.7607 1.23333V38.9913C94.7607 39.1195 94.7072 39.2425 94.612 39.3331C94.5168 39.4237 94.3877 39.4747 94.2532 39.4747ZM48.03 38.508H93.705V1.68767H48.03V38.508Z" fill="#231F20"/>
<path d="M36.1342 30.2333H8.36385V54.1196H36.1342V30.2333Z" fill="white"/>
<path d="M36.185 54.603H8.36385C8.22926 54.603 8.10017 54.5521 8.005 54.4614C7.90982 54.3708 7.85635 54.2478 7.85635 54.1197V30.2333C7.85895 30.1059 7.91326 29.9844 8.00787 29.8943C8.10249 29.8042 8.23007 29.7525 8.36385 29.75H36.185C36.3196 29.75 36.4487 29.8009 36.5439 29.8916C36.639 29.9822 36.6925 30.1051 36.6925 30.2333V54.1197C36.6925 54.2478 36.639 54.3708 36.5439 54.4614C36.4487 54.5521 36.3196 54.603 36.185 54.603ZM8.9221 53.6363H35.6268V30.7167H8.87135L8.9221 53.6363Z" fill="#231F20"/>
<path d="M32.0133 36.8163H13.7433C13.6087 36.8163 13.4797 36.7653 13.3845 36.6747C13.2893 36.5841 13.2358 36.4611 13.2358 36.3329C13.2358 36.2048 13.2893 36.0818 13.3845 35.9912C13.4797 35.9005 13.6087 35.8496 13.7433 35.8496H32.0133C32.1479 35.8496 32.277 35.9005 32.3722 35.9912C32.4674 36.0818 32.5208 36.2048 32.5208 36.3329C32.5208 36.4611 32.4674 36.5841 32.3722 36.6747C32.277 36.7653 32.1479 36.8163 32.0133 36.8163Z" fill="#E6E7E8"/>
<path d="M32.0133 42.162H13.7433C13.6087 42.162 13.4797 42.1111 13.3845 42.0204C13.2893 41.9298 13.2358 41.8068 13.2358 41.6786C13.2358 41.5505 13.2893 41.4275 13.3845 41.3369C13.4797 41.2462 13.6087 41.1953 13.7433 41.1953H32.0133C32.1479 41.1953 32.277 41.2462 32.3722 41.3369C32.4674 41.4275 32.5208 41.5505 32.5208 41.6786C32.5208 41.8068 32.4674 41.9298 32.3722 42.0204C32.277 42.1111 32.1479 42.162 32.0133 42.162Z" fill="#E6E7E8"/>
<path d="M28.3898 47.5077H13.7129C13.5783 47.5077 13.4492 47.4568 13.354 47.3661C13.2589 47.2755 13.2054 47.1525 13.2054 47.0243C13.2054 46.8962 13.2589 46.7732 13.354 46.6826C13.4492 46.5919 13.5783 46.541 13.7129 46.541H28.3898C28.5244 46.541 28.6535 46.5919 28.7487 46.6826C28.8438 46.7732 28.8973 46.8962 28.8973 47.0243C28.8973 47.1525 28.8438 47.2755 28.7487 47.3661C28.6535 47.4568 28.5244 47.5077 28.3898 47.5077Z" fill="#E6E7E8"/>
<path d="M63.7017 36.1397C63.5671 36.1397 63.438 36.0888 63.3428 35.9981C63.2476 35.9075 63.1942 35.7845 63.1942 35.6563V4.28802C63.1942 4.15983 63.2476 4.03689 63.3428 3.94625C63.438 3.85561 63.5671 3.80469 63.7017 3.80469C63.8354 3.80716 63.963 3.85888 64.0576 3.94899C64.1523 4.0391 64.2066 4.16061 64.2092 4.28802V35.6563C64.2092 35.7845 64.1557 35.9075 64.0605 35.9981C63.9653 36.0888 63.8362 36.1397 63.7017 36.1397Z" fill="#E6E7E8"/>
<path d="M60.545 9.75939H51.7246C51.5901 9.75939 51.461 9.70847 51.3658 9.61783C51.2706 9.52718 51.2171 9.40425 51.2171 9.27606C51.2197 9.14864 51.2741 9.02714 51.3687 8.93703C51.4633 8.84692 51.5909 8.7952 51.7246 8.79272H60.545C60.6796 8.79272 60.8087 8.84365 60.9039 8.93429C60.999 9.02493 61.0525 9.14787 61.0525 9.27606C61.0525 9.40425 60.999 9.52718 60.9039 9.61783C60.8087 9.70847 60.6796 9.75939 60.545 9.75939Z" fill="#E6E7E8"/>
<path d="M60.545 15.2307H51.7246C51.5909 15.2282 51.4633 15.1765 51.3687 15.0864C51.2741 14.9963 51.2197 14.8748 51.2171 14.7474C51.2171 14.6192 51.2706 14.4962 51.3658 14.4056C51.461 14.315 51.5901 14.264 51.7246 14.264H60.545C60.6796 14.264 60.8087 14.315 60.9039 14.4056C60.999 14.4962 61.0525 14.6192 61.0525 14.7474C61.0525 14.8756 60.999 14.9985 60.9039 15.0891C60.8087 15.1798 60.6796 15.2307 60.545 15.2307Z" fill="#E6E7E8"/>
<path d="M60.545 20.6924H51.7246C51.5901 20.6924 51.461 20.6414 51.3658 20.5508C51.2706 20.4602 51.2171 20.3372 51.2171 20.209C51.2171 20.0809 51.2706 19.9579 51.3658 19.8673C51.461 19.7766 51.5901 19.7257 51.7246 19.7257H60.545C60.6796 19.7257 60.8087 19.7766 60.9039 19.8673C60.999 19.9579 61.0525 20.0809 61.0525 20.209C61.0525 20.3372 60.999 20.4602 60.9039 20.5508C60.8087 20.6414 60.6796 20.6924 60.545 20.6924Z" fill="#E6E7E8"/>
<path d="M60.545 26.154H51.7246C51.5901 26.154 51.461 26.1031 51.3658 26.0125C51.2706 25.9218 51.2171 25.7989 51.2171 25.6707C51.2197 25.5433 51.2741 25.4218 51.3687 25.3317C51.4633 25.2416 51.5909 25.1899 51.7246 25.1874H60.545C60.6796 25.1874 60.8087 25.2383 60.9039 25.3289C60.999 25.4196 61.0525 25.5425 61.0525 25.6707C61.0525 25.7989 60.999 25.9218 60.9039 26.0125C60.8087 26.1031 60.6796 26.154 60.545 26.154Z" fill="#E6E7E8"/>
<path d="M60.545 31.6156H51.7246C51.5901 31.6156 51.461 31.5647 51.3658 31.474C51.2706 31.3834 51.2171 31.2605 51.2171 31.1323C51.2197 31.0048 51.2741 30.8833 51.3687 30.7932C51.4633 30.7031 51.5909 30.6514 51.7246 30.6489H60.545C60.6796 30.6489 60.8087 30.6998 60.9039 30.7905C60.999 30.8811 61.0525 31.0041 61.0525 31.1323C61.0525 31.2605 60.999 31.3834 60.9039 31.474C60.8087 31.5647 60.6796 31.6156 60.545 31.6156Z" fill="#E6E7E8"/>
<path d="M89.7466 8.2417H68.6548V22.123H89.7466V8.2417Z" fill="white"/>
<path d="M89.7466 22.616H68.665C68.5304 22.616 68.4013 22.565 68.3061 22.4744C68.211 22.3838 68.1575 22.2608 68.1575 22.1326V8.24163C68.1575 8.11345 68.211 7.99051 68.3061 7.89987C68.4013 7.80922 68.5304 7.7583 68.665 7.7583H89.7466C89.8812 7.7583 90.0102 7.80922 90.1054 7.89987C90.2006 7.99051 90.2541 8.11345 90.2541 8.24163V22.1326C90.2541 22.2608 90.2006 22.3838 90.1054 22.4744C90.0102 22.565 89.8812 22.616 89.7466 22.616ZM69.1725 21.6493H89.2391V8.72497H69.1725V21.6493Z" fill="#E6E7E8"/>
</svg>
