<svg width="400" height="300" viewBox="0 0 400 300" fill="none" xmlns="http://www.w3.org/2000/svg">
<g clip-path="url(#clip0)">
<path opacity="0.1" d="M390.307 203.974C389.948 204.23 389.618 204.478 389.267 204.72C387.972 205.615 386.615 206.423 385.207 207.138C377.832 210.936 368.741 212.791 359.886 214.051C340.026 216.879 319.75 217.429 299.56 217.968C245.008 219.431 190.323 220.891 135.903 217.52C114.401 216.19 92.4271 213.964 72.9433 207.138C70.1505 206.163 67.4127 205.087 64.7298 203.911C59.3007 201.527 54.0866 198.626 49.7505 195.16C45.676 191.912 42.372 188.181 40.3975 183.939C36.2799 175.104 38.4587 165.181 43.1604 156.521C45.1131 153.018 47.3152 149.653 49.7505 146.451C53.3807 141.575 57.3835 136.839 61.0351 131.967C74.0291 114.647 82.5078 92.7359 70.5136 74.9721C67.0663 69.8687 62.0851 65.3884 59.2756 60.061C55.6921 53.246 55.968 45.6784 57.1076 38.3279C57.2557 37.3945 57.4122 36.4704 57.577 35.5557C59.5229 24.6559 63.1853 12.9125 74.4771 6.10801C86.206 -0.962505 102.862 -0.605479 117.419 1.9077C140.056 5.85599 160.938 14.0746 182.041 21.4951C203.145 28.9157 225.223 35.6957 248.416 36.4237C268.896 37.0678 292.784 32.2479 306.376 19.7205C319.578 7.55362 344.394 6.62605 362.28 13.9766C374.557 19.0205 383.716 28.1071 387.579 38.3279C388.362 40.3798 388.925 42.5053 389.26 44.6703C389.57 46.649 389.671 48.6535 389.561 50.6523C389.507 51.6394 389.403 52.6159 389.26 53.582C386.271 73.7505 364.759 89.6591 351.683 107.675C345.293 116.475 340.782 127.045 345.175 136.535C351.876 150.994 375.18 156.136 389.253 166.896C391.901 168.854 394.233 171.19 396.169 173.826C402.996 183.403 400.477 196.336 390.307 203.974Z" fill="#55EFC4"/>
<path d="M92.4522 113.709C92.4522 113.709 75.9678 85.1752 51.1266 76.9566C40.7021 73.5053 31.6034 67.0159 25.3824 58.1462C22.4372 53.9351 19.8941 49.4686 17.7852 44.8032" stroke="#535461" stroke-width="2" stroke-miterlimit="10"/>
<path d="M2.16486 39.5215C4.99587 42.1922 18.1762 44.9924 18.1762 44.9924C18.1762 44.9924 14.951 32.2095 12.1128 29.5248C10.7485 28.2629 8.93008 27.577 7.05158 27.6157C5.17309 27.6544 3.38586 28.4145 2.07721 29.7314C0.768563 31.0483 0.0439245 32.8159 0.0603312 34.6511C0.076738 36.4862 0.832869 38.2412 2.16486 39.5356V39.5215Z" fill="#55EFC4"/>
<path d="M9.62185 62.6546C13.4885 63.4036 26.1062 58.7378 26.1062 58.7378C26.1062 58.7378 16.2694 49.7211 12.3991 48.9721C10.5597 48.6557 8.66664 49.0557 7.12557 50.0863C5.58451 51.117 4.5181 52.6963 4.15488 54.4857C3.79166 56.2752 4.16054 58.1324 5.18246 59.6593C6.20438 61.1863 7.79803 62.2615 9.62185 62.6546Z" fill="#55EFC4"/>
<path d="M36.7673 87.6955C40.4942 86.4354 48.9514 76.1902 48.9514 76.1902C48.9514 76.1902 35.8069 73.2535 32.0836 74.5136C31.17 74.7908 30.3228 75.2444 29.5921 75.8476C28.8615 76.4508 28.2624 77.1912 27.8303 78.0249C27.3983 78.8586 27.1421 79.7685 27.077 80.7008C27.0119 81.633 27.1392 82.5685 27.4513 83.4518C27.7635 84.335 28.2541 85.1481 28.8941 85.8426C29.5341 86.5371 30.3105 87.0989 31.1771 87.4947C32.0436 87.8905 32.9828 88.1123 33.9388 88.1468C34.8948 88.1813 35.8481 88.0278 36.7422 87.6955H36.7673Z" fill="#55EFC4"/>
<path d="M61.6731 102.113C65.5648 101.483 75.6848 92.7849 75.6848 92.7849C75.6848 92.7849 63.2391 87.72 59.3473 88.3465C57.4783 88.6478 55.8084 89.6619 54.7049 91.1657C53.6014 92.6696 53.1547 94.5401 53.4631 96.3656C53.7715 98.1912 54.8098 99.8223 56.3494 100.9C57.8891 101.978 59.8041 102.414 61.6731 102.113Z" fill="#55EFC4"/>
<path d="M37.0862 48.7481C37.0862 52.5983 29.9549 63.7747 29.9549 63.7747C29.9549 63.7747 22.8093 52.6053 22.8057 48.7551C22.7844 47.826 22.9534 46.9022 23.3026 46.0379C23.6519 45.1735 24.1744 44.386 24.8396 43.7216C25.5047 43.0572 26.299 42.5293 27.1759 42.1689C28.0528 41.8085 28.9946 41.6228 29.946 41.6228C30.8973 41.6228 31.8391 41.8085 32.716 42.1689C33.5929 42.5293 34.3873 43.0572 35.0524 43.7216C35.7175 44.386 36.2401 45.1735 36.5893 46.0379C36.9386 46.9022 37.1075 47.826 37.0862 48.7551V48.7481Z" fill="#55EFC4"/>
<path d="M65.9984 65.9939C64.8194 69.6691 54.5883 78.2448 54.5883 78.2448C54.5883 78.2448 51.1911 65.4863 52.3558 61.7936C52.9817 60.1028 54.2518 58.7134 55.9012 57.9151C57.5505 57.1168 59.4517 56.9714 61.2082 57.5091C62.9646 58.0468 64.4407 59.2262 65.3285 60.8012C66.2163 62.3761 66.4473 64.2251 65.9733 65.9624L65.9984 65.9939Z" fill="#55EFC4"/>
<path d="M91.7427 86.4879C91.2195 90.3067 82.6189 100.447 82.6189 100.447C82.6189 100.447 77.0644 88.4481 77.6019 84.6293C77.8803 82.818 78.8767 81.1862 80.3762 80.0863C81.8757 78.9865 83.7579 78.5068 85.6164 78.7508C87.4749 78.9948 89.1606 79.943 90.3095 81.3906C91.4584 82.8382 91.9783 84.6691 91.757 86.4879H91.7427Z" fill="#55EFC4"/>
<path opacity="0.25" d="M2.16486 39.5215C4.99587 42.1922 18.1762 44.9924 18.1762 44.9924C18.1762 44.9924 14.951 32.2095 12.1128 29.5248C10.7485 28.2629 8.93008 27.577 7.05158 27.6157C5.17309 27.6544 3.38586 28.4145 2.07721 29.7314C0.768563 31.0483 0.0439245 32.8159 0.0603312 34.6511C0.076738 36.4862 0.832869 38.2412 2.16486 39.5356V39.5215Z" fill="black"/>
<path opacity="0.25" d="M9.62185 62.6546C13.4885 63.4036 26.1062 58.7378 26.1062 58.7378C26.1062 58.7378 16.2694 49.7211 12.3991 48.9721C10.5597 48.6557 8.66664 49.0557 7.12557 50.0863C5.58451 51.117 4.5181 52.6963 4.15488 54.4857C3.79166 56.2752 4.16054 58.1324 5.18246 59.6593C6.20438 61.1863 7.79803 62.2615 9.62185 62.6546Z" fill="black"/>
<path opacity="0.25" d="M36.7673 87.6955C40.4942 86.4354 48.9514 76.1902 48.9514 76.1902C48.9514 76.1902 35.8069 73.2535 32.0836 74.5136C31.17 74.7908 30.3228 75.2444 29.5921 75.8476C28.8615 76.4508 28.2624 77.1912 27.8303 78.0249C27.3983 78.8586 27.1421 79.7685 27.077 80.7008C27.0119 81.633 27.1392 82.5685 27.4513 83.4518C27.7635 84.335 28.2541 85.1481 28.8941 85.8426C29.5341 86.5371 30.3105 87.0989 31.1771 87.4947C32.0436 87.8905 32.9828 88.1123 33.9388 88.1468C34.8948 88.1813 35.8481 88.0278 36.7422 87.6955H36.7673Z" fill="black"/>
<path opacity="0.25" d="M61.6731 102.113C65.5648 101.483 75.6848 92.7849 75.6848 92.7849C75.6848 92.7849 63.2391 87.72 59.3473 88.3465C57.4783 88.6478 55.8084 89.6619 54.7049 91.1657C53.6014 92.6696 53.1547 94.5401 53.4631 96.3656C53.7715 98.1912 54.8098 99.8223 56.3494 100.9C57.8891 101.978 59.8041 102.414 61.6731 102.113Z" fill="black"/>
<path opacity="0.25" d="M37.0862 48.7481C37.0862 52.5983 29.9549 63.7747 29.9549 63.7747C29.9549 63.7747 22.8093 52.6053 22.8057 48.7551C22.7844 47.826 22.9534 46.9022 23.3026 46.0379C23.6519 45.1735 24.1744 44.386 24.8396 43.7216C25.5047 43.0572 26.299 42.5293 27.1759 42.1689C28.0528 41.8085 28.9946 41.6228 29.946 41.6228C30.8973 41.6228 31.8391 41.8085 32.716 42.1689C33.5929 42.5293 34.3873 43.0572 35.0524 43.7216C35.7175 44.386 36.2401 45.1735 36.5893 46.0379C36.9386 46.9022 37.1075 47.826 37.0862 48.7551V48.7481Z" fill="black"/>
<path opacity="0.25" d="M65.9984 65.9939C64.8194 69.6691 54.5883 78.2448 54.5883 78.2448C54.5883 78.2448 51.1911 65.4863 52.3558 61.7936C52.9817 60.1028 54.2518 58.7134 55.9012 57.9151C57.5505 57.1168 59.4517 56.9714 61.2082 57.5091C62.9646 58.0468 64.4407 59.2262 65.3285 60.8012C66.2163 62.3761 66.4473 64.2251 65.9733 65.9624L65.9984 65.9939Z" fill="black"/>
<path opacity="0.25" d="M91.7427 86.4879C91.2195 90.3067 82.6189 100.447 82.6189 100.447C82.6189 100.447 77.0644 88.4481 77.6019 84.6293C77.8803 82.818 78.8767 81.1862 80.3762 80.0863C81.8757 78.9865 83.7579 78.5068 85.6164 78.7508C87.4749 78.9948 89.1606 79.943 90.3095 81.3906C91.4584 82.8382 91.9783 84.6691 91.757 86.4879H91.7427Z" fill="black"/>
<path d="M91.5026 113.142C91.5026 113.142 88.2774 80.527 68.9692 63.1797C60.8739 55.8992 55.2477 46.3785 53.2373 35.7937C52.2937 30.7768 51.8235 25.6859 51.8326 20.5851" stroke="#535461" stroke-width="2" stroke-miterlimit="10"/>
<path d="M39.7381 9.58399C41.2145 13.1578 52.1121 20.9108 52.1121 20.9108C52.1121 20.9108 54.4593 7.94237 52.9865 4.36861C52.2784 2.65121 50.9009 1.27888 49.1569 0.553533C47.413 -0.171817 45.4454 -0.190775 43.6872 0.500827C41.9289 1.19243 40.5239 2.53794 39.7813 4.24136C39.0387 5.94479 39.0193 7.86659 39.7273 9.58399H39.7381Z" fill="#55EFC4"/>
<path d="M36.9465 33.683C40.1717 35.8987 53.6351 36.6232 53.6351 36.6232C53.6351 36.6232 48.4138 24.4913 45.1886 22.2757C43.6399 21.2081 41.7205 20.7852 39.8525 21.0999C37.9846 21.4147 36.3211 22.4414 35.2281 23.9541C34.1352 25.4668 33.7022 27.3416 34.0244 29.1661C34.3467 30.9907 35.3978 32.6154 36.9465 33.683Z" fill="#55EFC4"/>
<path d="M51.3918 67.3135C55.3337 67.639 67.3171 61.6221 67.3171 61.6221C67.3171 61.6221 56.5199 53.736 52.5887 53.414C51.6428 53.3156 50.6864 53.4028 49.7755 53.6704C48.8646 53.938 48.0175 54.3806 47.2842 54.9724C46.5508 55.5641 45.9458 56.2929 45.5047 57.1161C45.0637 57.9393 44.7954 58.8402 44.7157 59.7661C44.636 60.6919 44.7464 61.624 45.0405 62.5076C45.3346 63.3912 45.8064 64.2085 46.4283 64.9115C47.0502 65.6146 47.8096 66.1892 48.6619 66.6016C49.5143 67.0141 50.4424 67.2561 51.3918 67.3135Z" fill="#55EFC4"/>
<path d="M68.1772 90.3592C71.9972 91.3253 84.8586 87.377 84.8586 87.377C84.8586 87.377 75.5808 77.8213 71.7643 76.8552C69.9425 76.4241 68.0203 76.7099 66.4123 77.6508C64.8043 78.5917 63.6394 80.1124 63.1691 81.8847C62.6988 83.6571 62.9607 85.539 63.8982 87.1244C64.8358 88.7098 66.374 89.8716 68.1807 90.3592H68.1772Z" fill="#55EFC4"/>
<path d="M67.8367 31.8418C66.242 35.3631 55.0829 42.7521 55.0829 42.7521C55.0829 42.7521 53.1836 29.7172 54.7783 26.1924C55.1476 25.3396 55.687 24.5672 56.3651 23.9202C57.0432 23.2731 57.8464 22.7644 58.7279 22.4237C59.6094 22.0829 60.5514 21.917 61.4992 21.9356C62.447 21.9542 63.3815 22.1569 64.2483 22.5319C65.1151 22.9068 65.8967 23.4466 66.5477 24.1197C67.1987 24.7928 67.706 25.5857 68.04 26.4523C68.374 27.3189 68.5281 28.2417 68.4932 29.167C68.4583 30.0923 68.2351 31.0016 67.8367 31.8418Z" fill="#55EFC4"/>
<path d="M87.1162 59.0319C84.5146 61.9266 71.603 65.7174 71.603 65.7174C71.603 65.7174 73.7818 52.7244 76.3871 49.8297C77.0057 49.1416 77.757 48.5792 78.5981 48.1747C79.4392 47.7702 80.3536 47.5315 81.2892 47.4722C82.2248 47.4128 83.1631 47.5341 84.0507 47.829C84.9383 48.1239 85.7577 48.5867 86.4622 49.1909C87.1667 49.7951 87.7425 50.529 88.1566 51.3505C88.5707 52.1721 88.8151 53.0653 88.8759 53.9791C88.9366 54.8929 88.8124 55.8095 88.5105 56.6764C88.2086 57.5434 87.7348 58.3438 87.1162 59.0319Z" fill="#55EFC4"/>
<path d="M102.167 87.9755C100.103 91.2588 88.0336 97.1252 88.0336 97.1252C88.0336 97.1252 87.9333 83.9572 89.9974 80.674C90.9887 79.0958 92.5812 77.9669 94.4247 77.5357C96.2681 77.1044 98.2114 77.4061 99.8271 78.3743C101.443 79.3426 102.599 80.8981 103.04 82.6986C103.482 84.4992 103.173 86.3974 102.182 87.9755H102.167Z" fill="#55EFC4"/>
<path opacity="0.1" d="M146.266 298.117C168.34 298.117 186.234 295.841 186.234 293.035C186.234 290.228 168.34 287.952 146.266 287.952C124.193 287.952 106.299 290.228 106.299 293.035C106.299 295.841 124.193 298.117 146.266 298.117Z" fill="#55EFC4"/>
<path opacity="0.1" d="M65.5361 294.673C72.2414 294.673 77.6772 293.764 77.6772 292.642C77.6772 291.521 72.2414 290.612 65.5361 290.612C58.8308 290.612 53.395 291.521 53.395 292.642C53.395 293.764 58.8308 294.673 65.5361 294.673Z" fill="#55EFC4"/>
<path d="M68.1736 270.038C68.1736 270.038 70.141 272.555 67.2634 276.338C64.3858 280.122 62.0135 283.339 62.9631 285.708C62.9631 285.708 67.3028 278.655 70.8469 278.557C74.3911 278.459 72.0653 274.28 68.1736 270.038Z" fill="#55EFC4"/>
<path opacity="0.1" d="M68.1736 270.038C68.3454 270.281 68.4806 270.548 68.575 270.829C72.0223 274.784 73.8607 278.477 70.5459 278.568C67.4605 278.655 63.7551 284.046 62.8699 285.407C62.8992 285.513 62.9339 285.617 62.9739 285.719C62.9739 285.719 67.3135 278.666 70.8577 278.568C74.4018 278.47 72.0653 274.28 68.1736 270.038Z" fill="black"/>
<path d="M71.8324 273.244C71.8324 274.13 71.732 274.847 71.6066 274.847C71.4812 274.847 71.3773 274.147 71.3773 273.244C71.3773 272.341 71.5063 272.775 71.6317 272.775C71.7571 272.775 71.8324 272.359 71.8324 273.244Z" fill="#FFD037"/>
<path d="M73.0902 274.301C72.2946 274.725 71.5994 274.98 71.5385 274.872C71.4776 274.763 72.076 274.333 72.8716 273.909C73.6671 273.485 73.3518 273.793 73.4127 273.909C73.4736 274.025 73.8857 273.878 73.0902 274.301Z" fill="#FFD037"/>
<path d="M57.7741 270.038C57.7741 270.038 55.8067 272.555 58.6843 276.338C61.5619 280.122 63.9342 283.339 62.9846 285.708C62.9846 285.708 58.6449 278.655 55.1008 278.557C51.5566 278.459 53.8895 274.28 57.7741 270.038Z" fill="#55EFC4"/>
<path opacity="0.1" d="M57.7741 270.038C57.6022 270.281 57.4671 270.548 57.3727 270.829C53.9253 274.784 52.087 278.477 55.4018 278.568C58.4908 278.655 62.1926 284.046 63.0778 285.407C63.0502 285.513 63.0154 285.617 62.9738 285.719C62.9738 285.719 58.6341 278.666 55.09 278.568C51.5459 278.47 53.8895 274.28 57.7741 270.038Z" fill="black"/>
<path d="M54.1153 273.244C54.1153 274.13 54.2156 274.847 54.3411 274.847C54.4665 274.847 54.5704 274.147 54.5704 273.244C54.5704 272.341 54.4414 272.775 54.316 272.775C54.1905 272.775 54.1153 272.359 54.1153 273.244Z" fill="#FFD037"/>
<path d="M52.8611 274.301C53.6566 274.725 54.3482 274.98 54.4091 274.872C54.4701 274.763 53.8716 274.333 53.0761 273.909C52.2805 273.485 52.5959 273.793 52.5349 273.909C52.474 274.025 52.0655 273.878 52.8611 274.301Z" fill="#FFD037"/>
<path d="M54.7424 285.39C54.7424 285.39 60.2468 285.222 61.9095 284.07C63.5723 282.919 70.3739 281.536 70.786 283.388C71.1981 285.239 79.0569 292.59 72.843 292.639C66.6291 292.688 58.4048 291.694 56.7492 290.71C55.0936 289.727 54.7424 285.39 54.7424 285.39Z" fill="#A8A8A8"/>
<path opacity="0.2" d="M72.9505 291.995C66.7366 292.044 58.5123 291.05 56.8567 290.066C55.5953 289.314 55.0936 286.622 54.9252 285.383H54.7424C54.7424 285.383 55.1008 289.716 56.7456 290.703C58.3905 291.69 66.6255 292.681 72.8394 292.632C74.6312 292.632 75.2547 291.995 75.2189 291.071C74.9716 291.638 74.2871 291.984 72.9505 291.995Z" fill="black"/>
<path d="M238.557 285.183C238.557 285.183 223.406 284.291 225.194 294.662C225.194 294.662 224.836 296.493 226.538 297.326C226.538 297.326 226.567 296.559 228.093 296.818C228.636 296.908 229.189 296.933 229.738 296.895C230.482 296.847 231.19 296.562 231.752 296.083C231.752 296.083 236.009 294.368 237.665 287.567C237.665 287.567 238.891 286.083 238.844 285.701L236.285 286.751C236.285 286.751 237.16 288.554 236.472 290.052C236.472 290.052 236.389 286.818 235.898 286.902C235.798 286.902 234.569 287.525 234.569 287.525C234.569 287.525 236.074 290.675 234.927 292.943C234.927 292.943 235.357 289.093 234.089 287.752L232.297 288.778C232.297 288.778 234.053 292.019 232.863 294.666C232.863 294.666 233.168 290.609 231.921 289.027L230.29 290.269C230.29 290.269 231.938 293.465 230.931 295.66C230.931 295.66 230.802 290.938 229.935 290.581C229.935 290.581 228.502 291.809 228.29 292.331C228.29 292.331 229.419 294.648 228.72 295.873C228.72 295.873 228.29 292.723 227.936 292.723C227.936 292.723 226.502 294.823 226.366 296.223C226.366 296.223 226.431 294.098 227.592 292.509C226.772 292.662 226.016 293.045 225.416 293.612C225.416 293.612 225.639 292.138 227.925 292.009C227.925 292.009 229.1 290.427 229.416 290.332C229.416 290.332 227.122 290.143 225.732 290.745C225.732 290.745 226.954 289.345 229.835 289.986L231.444 288.705C231.444 288.705 228.427 288.299 227.144 288.747C227.144 288.747 228.62 287.514 231.878 288.397L233.633 287.374C233.633 287.374 231.057 286.832 229.523 287.024C229.523 287.024 231.143 286.17 234.146 287.094L235.4 286.545C235.4 286.545 233.512 286.195 232.96 286.128C232.408 286.062 232.379 285.922 232.379 285.922C233.574 285.727 234.801 285.861 235.923 286.307C235.923 286.307 238.604 285.348 238.557 285.183Z" fill="#55EFC4"/>
<path opacity="0.1" d="M228.122 300C234.044 300 238.844 299.207 238.844 298.229C238.844 297.251 234.044 296.458 228.122 296.458C222.2 296.458 217.4 297.251 217.4 298.229C217.4 299.207 222.2 300 228.122 300Z" fill="#55EFC4"/>
<path d="M212.014 285.736C212.014 285.736 203.471 285.232 204.488 291.081C204.437 291.378 204.483 291.683 204.619 291.953C204.756 292.222 204.976 292.443 205.248 292.583C205.248 292.583 205.248 292.149 206.126 292.296C206.432 292.345 206.742 292.36 207.051 292.342C207.47 292.312 207.868 292.151 208.187 291.883C208.187 291.883 210.588 290.913 211.523 287.081C211.523 287.081 212.211 286.244 212.186 286.031L210.752 286.629C210.752 286.629 211.243 287.648 210.856 288.491C210.856 288.491 210.81 286.668 210.534 286.71C210.477 286.71 209.785 287.06 209.785 287.06C209.785 287.06 210.631 288.81 209.993 290.115C209.993 290.115 210.233 287.935 209.52 287.186L208.506 287.767C208.506 287.767 209.495 289.594 208.825 291.085C208.825 291.085 208.997 288.796 208.291 287.907L207.373 288.607C207.373 288.607 208.301 290.409 207.732 291.645C207.732 291.645 207.656 288.981 207.169 288.782C206.82 289.069 206.508 289.397 206.241 289.758C206.241 289.758 206.879 291.067 206.484 291.757C206.484 291.757 206.241 289.982 206.044 289.975C206.044 289.975 205.241 291.151 205.159 291.957C205.195 291.21 205.432 290.485 205.847 289.856C205.385 289.942 204.959 290.157 204.621 290.476C204.621 290.476 204.746 289.643 206.054 289.573C206.054 289.573 206.714 288.68 206.893 288.628C206.893 288.628 205.599 288.519 204.815 288.859C204.815 288.859 205.506 288.075 207.13 288.432L208.036 287.707C208.036 287.707 206.334 287.48 205.614 287.732C205.614 287.732 206.445 287.032 208.283 287.543L209.269 286.969C208.509 286.804 207.731 286.738 206.954 286.773C206.954 286.773 207.868 286.293 209.559 286.811L210.276 286.503C210.276 286.503 209.201 286.297 208.903 286.265C208.606 286.234 208.574 286.15 208.574 286.15C209.248 286.04 209.94 286.115 210.573 286.367C210.573 286.367 212.039 285.831 212.014 285.736Z" fill="#55EFC4"/>
<path opacity="0.1" d="M206.13 294.092C209.469 294.092 212.175 293.645 212.175 293.094C212.175 292.543 209.469 292.096 206.13 292.096C202.791 292.096 200.084 292.543 200.084 293.094C200.084 293.645 202.791 294.092 206.13 294.092Z" fill="#55EFC4"/>
<path d="M228.272 273.342C228.272 273.342 217.963 272.733 219.177 279.793C219.115 280.151 219.17 280.519 219.335 280.845C219.5 281.171 219.766 281.437 220.095 281.606C220.095 281.606 220.095 281.085 221.152 281.256C221.522 281.314 221.896 281.331 222.27 281.309C222.776 281.273 223.258 281.079 223.642 280.756C223.642 280.756 226.542 279.587 227.667 274.956C227.667 274.956 228.502 273.948 228.47 273.689L226.728 274.413C226.728 274.413 227.323 275.642 226.857 276.66C226.857 276.66 226.8 274.459 226.463 274.511C226.398 274.511 225.56 274.935 225.56 274.935C225.56 274.935 226.585 277.073 225.811 278.624C225.811 278.624 226.104 275.992 225.241 275.089L224.015 275.789C224.015 275.789 225.212 277.994 224.402 279.797C224.402 279.797 224.61 277.035 223.757 275.946L222.646 276.79C222.646 276.79 223.771 278.963 223.087 280.458C223.087 280.458 222.997 277.245 222.406 277C222.406 277 221.435 277.836 221.288 278.179C221.288 278.179 222.059 279.758 221.578 280.591C221.578 280.591 221.288 278.452 221.048 278.442C221.048 278.442 220.08 279.842 219.973 280.833C220.019 279.934 220.306 279.062 220.804 278.305C220.247 278.409 219.732 278.669 219.324 279.054C219.324 279.054 219.475 278.05 221.044 277.962C221.044 277.962 221.844 276.888 222.059 276.821C222.059 276.821 220.496 276.695 219.55 277.105C219.55 277.105 220.381 276.156 222.345 276.587L223.442 275.715C223.442 275.715 221.385 275.439 220.514 275.743C220.514 275.743 221.517 274.907 223.739 275.516L224.933 274.816C224.933 274.816 223.18 274.466 222.137 274.581C222.137 274.581 223.238 274 225.284 274.627L226.137 274.256C226.137 274.256 224.85 274.007 224.474 273.969C224.098 273.93 224.08 273.829 224.08 273.829C224.893 273.696 225.728 273.787 226.491 274.091C226.491 274.091 228.308 273.454 228.272 273.342Z" fill="#55EFC4"/>
<path opacity="0.1" d="M221.173 283.426C225.205 283.426 228.473 282.887 228.473 282.222C228.473 281.557 225.205 281.018 221.173 281.018C217.142 281.018 213.874 281.557 213.874 282.222C213.874 282.887 217.142 283.426 221.173 283.426Z" fill="#55EFC4"/>
<path d="M389.927 204.649V33.4414H49.0051V194.828C53.3591 198.377 58.5947 201.363 64.0561 203.816C66.7461 205.027 69.4935 206.135 72.2982 207.138H385.859L389.927 204.649Z" fill="url(#paint0_linear)"/>
<path d="M389.267 204.719V38.3418H49.7505V195.188C54.0866 198.64 59.3007 201.541 64.7298 203.939C67.4102 205.106 70.1481 206.181 72.9433 207.166H385.207L389.267 204.719Z" fill="white"/>
<path d="M389.267 33.928H49.7541V42.7276H389.267V33.928Z" fill="#5A5773"/>
<path d="M56.5341 40.6031C57.8206 40.6031 58.8635 39.5844 58.8635 38.3279C58.8635 37.0714 57.8206 36.0527 56.5341 36.0527C55.2477 36.0527 54.2048 37.0714 54.2048 38.3279C54.2048 39.5844 55.2477 40.6031 56.5341 40.6031Z" fill="white"/>
<path d="M62.8054 40.6031C64.0918 40.6031 65.1347 39.5844 65.1347 38.3279C65.1347 37.0714 64.0918 36.0527 62.8054 36.0527C61.5189 36.0527 60.4761 37.0714 60.4761 38.3279C60.4761 39.5844 61.5189 40.6031 62.8054 40.6031Z" fill="white"/>
<path d="M69.0766 40.6031C70.363 40.6031 71.4059 39.5844 71.4059 38.3279C71.4059 37.0714 70.363 36.0527 69.0766 36.0527C67.7901 36.0527 66.7473 37.0714 66.7473 38.3279C66.7473 39.5844 67.7901 40.6031 69.0766 40.6031Z" fill="white"/>
<path d="M192.598 62.0665H136.516V96.4881H192.598V62.0665Z" fill="#55EFC4"/>
<path opacity="0.2" d="M114.946 62.0665H58.8635V96.4881H114.946V62.0665Z" fill="#5A5773"/>
<path opacity="0.2" d="M270.25 62.0665H214.168V96.4881H270.25V62.0665Z" fill="#5A5773"/>
<path opacity="0.2" d="M114.946 111.276H58.8635V145.698H114.946V111.276Z" fill="#5A5773"/>
<path opacity="0.2" d="M192.598 111.276H136.516V145.698H192.598V111.276Z" fill="#5A5773"/>
<path opacity="0.2" d="M270.25 111.276H214.168V145.698H270.25V111.276Z" fill="#5A5773"/>
<path opacity="0.2" d="M114.946 160.483H58.8635V194.905H114.946V160.483Z" fill="#5A5773"/>
<path opacity="0.2" d="M192.598 160.483H136.516V194.905H192.598V160.483Z" fill="#5A5773"/>
<path opacity="0.2" d="M270.25 160.483H214.168V194.905H270.25V160.483Z" fill="#5A5773"/>
<path d="M178.855 92.2177L174.985 93.5548L173.58 91.2796C172.505 89.5295 171.014 87.1353 169.914 85.3957C167.972 82.3365 170.513 77.6741 170.513 77.6741C170.513 77.6741 170.971 72.9943 172.605 71.5522C174.24 70.1101 174.695 77.6741 174.695 77.6741C181.256 80.5863 177.741 87.4364 177.741 87.4364L178.379 90.1525L178.855 92.2177Z" fill="#EFB7B9"/>
<path opacity="0.1" d="M178.855 92.2177L174.985 93.5548L173.58 91.2796V91.0801C173.58 91.0801 175.798 89.5925 178.386 90.1525L178.855 92.2177Z" fill="black"/>
<path d="M172.606 107.549L174.544 105.946L173.573 91.5178C173.573 91.5178 178.59 88.1646 182.303 93.4115C182.303 93.4115 182.152 96.6177 182.303 97.4928C182.453 98.3678 181.26 99.2429 182.303 100.114C183.345 100.986 182.303 103.905 182.303 103.905C182.303 103.905 183.482 105.946 184.227 106.527C184.972 107.108 185.721 111.921 184.227 112.939C182.733 113.958 179.93 116.293 179.93 117.311C179.93 118.33 176.347 120.811 176.347 120.811L173.2 116.748L172.606 107.549Z" fill="#FF6484"/>
<path d="M130.678 195.132C123.446 192.136 125.052 184.817 126.414 181.131C126.686 180.385 127.005 179.655 127.37 178.947L131.427 176.542C131.427 176.542 132.255 178.604 133.14 181.369C135.193 187.803 137.555 197.985 130.678 195.132Z" fill="#EFB7B9"/>
<path d="M140.619 261.914C140.129 262.846 139.768 263.837 139.544 264.861C139.186 266.509 139.029 268.193 139.078 269.877C139.106 271.042 139.207 271.805 139.207 271.805L131.151 277.217C131.151 277.217 131.198 276.583 131.276 275.652C131.484 273.174 131.918 268.575 132.326 267.98C132.61 267.567 132.807 265.907 132.932 264.367C133.057 262.827 133.108 261.476 133.108 261.476C133.108 261.476 142.801 257.927 140.619 261.914Z" fill="#EFB7B9"/>
<path d="M159.644 265.795C159.644 265.795 159.644 267.301 159.586 269.051C159.529 270.801 159.422 272.866 159.196 273.828C158.988 274.711 158.974 276.331 159.013 277.826C159.067 279.576 159.196 281.151 159.196 281.151C159.196 281.151 150.972 273.555 151.81 272.953C152.036 272.792 152.258 272.145 152.462 271.284C152.713 270.234 152.939 268.834 153.107 267.644C153.308 266.226 153.433 265.085 153.433 265.085L159.644 265.795Z" fill="#EFB7B9"/>
<path opacity="0.1" d="M140.619 261.914C140.129 262.846 139.768 263.837 139.544 264.861C137.339 264.804 135.138 264.64 132.95 264.367C133.072 262.862 133.125 261.476 133.125 261.476C133.125 261.476 142.801 257.927 140.619 261.914Z" fill="black"/>
<path opacity="0.1" d="M159.644 265.795C159.644 265.795 159.644 267.3 159.586 269.051C157.021 269.691 154.383 268.41 153.107 267.65C153.308 266.233 153.434 265.092 153.434 265.092L159.644 265.795Z" fill="black"/>
<path d="M176.483 191.345C173.2 198.346 171.857 206.648 171.857 206.648L170.663 213.649C170.663 213.649 171.262 216.708 170.663 217.874C170.065 219.039 168.871 220.936 168.871 220.936C168.871 220.936 169.767 228.077 168.871 228.805C167.976 229.533 168.871 233.905 168.871 233.905L165.886 248.606L161.708 267.549C157.68 270.759 152.319 266.678 152.319 266.678L153.502 254.29C153.502 254.29 155.293 232.589 154.548 231.7C153.803 230.81 154.845 228.056 154.845 228.056C154.845 228.056 155.892 225.431 155.146 224.412C154.401 223.393 155.293 221.206 155.293 221.206C155.293 221.206 154.996 212.315 155.892 210.275C156.788 208.234 155.892 195.612 155.892 195.612L155.533 191.681L155.326 189.504L155.308 189.29C155.308 189.29 155.172 190.162 154.949 191.513C154.29 195.626 152.885 204.149 152.33 205.903C151.952 207.166 151.439 208.388 150.8 209.546C150.8 209.546 151.574 213.918 150.8 215.084C150.026 216.249 150.681 217.562 150.681 217.562C150.681 217.562 151.427 221.206 149.187 222.662C146.947 224.118 149.187 224.85 149.187 224.85C149.187 224.85 147.546 228.35 146.951 229.802C146.356 231.255 146.951 233.303 146.951 233.303L145.758 245.106C145.758 245.106 144.711 250.058 144.862 253.412C145.012 256.765 143.518 264.486 143.518 264.486C143.518 264.486 132.029 264.486 130.259 263.174C128.488 261.861 133.215 249.057 133.215 249.057C133.215 249.057 134.559 226.614 134.258 226.033C133.957 225.452 134.258 221.076 135.304 220.205C136.351 219.333 135.304 217.58 135.304 217.58C135.304 217.58 135.007 214.079 135.304 213.208C135.602 212.336 135.258 209.417 135.258 209.417C135.258 209.417 134.258 202.276 134.111 198.195C133.964 194.114 133.215 184.936 133.215 184.936C133.215 184.936 133.996 179.259 134.115 176.557C134.158 175.562 134.613 174.32 135.19 173.151C135.835 171.831 136.578 170.558 137.411 169.342C137.411 169.342 172.763 159.136 174.247 160.151C174.641 160.42 175.214 162.251 175.781 164.901C177.357 172.304 178.898 186.2 176.483 191.345Z" fill="#444053"/>
<path d="M154.702 102.274C160.388 102.274 164.998 97.7716 164.998 92.2177C164.998 86.6638 160.388 82.1615 154.702 82.1615C149.016 82.1615 144.406 86.6638 144.406 92.2177C144.406 97.7716 149.016 102.274 154.702 102.274Z" fill="#A1616A"/>
<path opacity="0.1" d="M175.781 164.908C174.594 165.503 173.799 165.912 173.799 165.912C173.799 165.912 157.089 173.637 152.337 173.2C148.66 172.85 139.275 173.049 135.186 173.147C135.832 171.827 136.574 170.554 137.408 169.339C137.408 169.339 172.763 159.136 174.247 160.151C174.641 160.427 175.214 162.251 175.781 164.908Z" fill="black"/>
<path d="M147.539 108.277C147.539 108.277 138.003 109.747 135.752 111.189C133.502 112.631 129.044 115.417 129.044 121.392C129.044 127.367 128.001 133.489 127.403 135.236C126.804 136.983 136.802 151.12 136.802 151.12L133.219 172.545C133.219 172.545 147.553 172.108 152.326 172.545C157.099 172.983 173.802 165.258 173.802 165.258C173.802 165.258 183.65 160.158 185.739 160.007C187.828 159.857 181.561 148.785 181.561 148.785C181.561 148.785 171.86 130.864 173.501 127.948C175.143 125.033 176.347 120.808 176.347 120.808L174.555 105.946C174.555 105.946 171.871 105.071 169.631 106.674C167.391 108.277 159.784 107.402 159.784 107.402L147.539 108.277Z" fill="#FF6484"/>
<path opacity="0.1" d="M131.352 134.217L127.611 135.236L126.575 148.95C126.575 148.95 127.919 152.594 126.575 153.759C125.231 154.925 124.934 179.847 124.934 179.847C124.934 179.847 129.263 182.906 134.334 180.575C134.334 180.575 133.588 177.806 135.828 167.75C138.068 157.694 138.064 152.594 138.064 152.594C138.064 152.594 138.064 140.059 139.11 138.019C140.157 135.978 139.11 130.878 139.11 130.878C139.11 130.878 137.021 128.109 137.168 127.091C137.315 126.072 131.352 134.217 131.352 134.217Z" fill="black"/>
<path opacity="0.1" d="M133.14 181.38C130.943 182.102 128.551 182.018 126.414 181.142C126.686 180.395 127.005 179.666 127.37 178.958L131.427 176.553C131.427 176.553 132.269 178.615 133.14 181.38Z" fill="black"/>
<path d="M131.126 134.217L127.395 135.236L126.353 148.95C126.353 148.95 127.696 152.594 126.353 153.759C125.009 154.925 124.711 179.847 124.711 179.847C124.711 179.847 129.044 182.902 134.111 180.561C134.111 180.561 133.366 177.792 135.602 167.736C137.838 157.679 137.841 152.58 137.841 152.58C137.841 152.58 137.841 140.045 138.884 138.005C139.927 135.964 138.884 130.864 138.884 130.864C138.884 130.864 136.795 128.095 136.946 127.077C137.096 126.058 131.126 134.217 131.126 134.217Z" fill="#FF6484"/>
<path opacity="0.1" d="M169.323 136.402C169.323 136.402 167.384 152.723 161.712 155.786C161.712 155.786 174.394 152.289 169.323 136.402Z" fill="black"/>
<path opacity="0.1" d="M140.827 137.861C140.827 137.861 147.836 141.211 146.202 143.542C144.568 145.873 140.827 137.861 140.827 137.861Z" fill="black"/>
<path opacity="0.1" d="M140.827 144.564C140.827 144.564 145.302 149.083 144.41 150.686C143.518 152.289 140.827 144.564 140.827 144.564Z" fill="black"/>
<path opacity="0.1" d="M176.931 107.111C176.931 107.111 178.687 110.024 178.855 111.921C179.024 113.818 176.931 107.111 176.931 107.111Z" fill="black"/>
<path opacity="0.1" d="M176.931 103.177C176.931 103.177 177.812 102.446 180.063 103.177C182.313 103.909 176.931 103.177 176.931 103.177Z" fill="black"/>
<path opacity="0.1" d="M168.316 188.356C164.619 188.868 160.849 188.396 157.404 186.991L155.523 191.695L155.315 189.518C155.623 187.691 156.222 185.734 157.404 185.241C157.404 185.241 161.547 188.464 168.316 188.356Z" fill="black"/>
<path opacity="0.1" d="M137.709 194.478C137.709 194.478 146.886 196.336 149.459 196.007L137.709 194.478Z" fill="black"/>
<path opacity="0.1" d="M138.662 196.826C138.662 196.826 142.579 196.662 144.536 197.428L138.662 196.826Z" fill="black"/>
<path opacity="0.1" d="M139.11 198.412C140.897 198.783 142.711 199.017 144.536 199.112L139.11 198.412Z" fill="black"/>
<path opacity="0.1" d="M138.884 218.468C139.053 218.36 146.718 216.61 147.671 217.866L138.884 218.468Z" fill="black"/>
<path opacity="0.1" d="M138.884 220.765C138.884 220.765 145.543 219.998 145.711 220.765C145.879 221.531 138.884 220.765 138.884 220.765Z" fill="black"/>
<path opacity="0.1" d="M138.884 222.84C138.884 222.84 145.99 221.405 146.829 221.755C147.668 222.105 138.884 222.84 138.884 222.84Z" fill="black"/>
<path opacity="0.1" d="M139.221 271.809L131.165 277.22C131.165 277.22 131.212 276.587 131.291 275.656C133.082 271.35 135.415 269.079 135.415 269.079C137.232 268.617 138.379 269.044 139.092 269.88C139.121 271.042 139.221 271.809 139.221 271.809Z" fill="black"/>
<path d="M140.006 276.671C138.867 279.207 138.295 281.952 138.325 284.721C138.371 286.992 137.781 289.232 136.619 291.2C136.451 291.477 136.262 291.742 136.053 291.991C136.053 291.991 130.456 291.946 128.496 290.36C128.275 290.19 128.096 289.975 127.969 289.73C126.847 287.546 130.151 279.184 130.151 279.184C131.886 272.736 135.408 269.292 135.408 269.292C141.683 267.706 140.006 276.671 140.006 276.671Z" fill="#444053"/>
<path opacity="0.1" d="M136.619 291.183C136.451 291.46 136.262 291.725 136.053 291.974C136.053 291.974 130.456 291.929 128.496 290.343C129.46 287.228 132.534 277.801 133.975 279.405C135.329 280.91 136.272 288.152 136.619 291.183Z" fill="black"/>
<path d="M135.853 279.989L135.462 294.109H137.34C137.34 294.109 137.644 281.722 138.483 279.989C139.321 278.256 135.853 279.989 135.853 279.989Z" fill="#444053"/>
<path opacity="0.1" d="M159.196 281.151C159.196 281.151 150.972 273.556 151.81 272.953C152.036 272.792 152.258 272.145 152.462 271.284C154.043 271.014 156.763 271.658 159.013 277.826C159.067 279.576 159.196 281.151 159.196 281.151Z" fill="black"/>
<path d="M160.425 289.622C160.362 289.648 160.296 289.667 160.228 289.678C159.26 289.842 155.695 289.748 153.699 289.678C153.333 289.666 152.986 289.516 152.732 289.259C152.477 289.003 152.334 288.66 152.333 288.302C152.333 287.777 152.333 287.137 152.29 286.454C152.197 284.298 151.932 281.732 151.14 281.155C149.739 280.105 148.632 276.541 151.14 272.03C151.14 272.03 155.949 268.442 159.418 279.226C159.418 279.226 159.755 282.303 161.264 283.395C162.772 284.487 161.099 289.31 160.425 289.622Z" fill="#444053"/>
<path opacity="0.1" d="M160.221 289.678C159.253 289.842 155.688 289.748 153.692 289.678C153.326 289.666 152.979 289.516 152.724 289.259C152.47 289.003 152.327 288.659 152.326 288.302C152.326 287.777 152.326 287.136 152.283 286.454C152.889 283.843 153.76 281.155 154.881 280.542C154.888 280.539 158.282 280.164 160.221 289.678Z" fill="black"/>
<path d="M151.749 280.224L152.652 291.974H153.799V279.222L151.749 280.224Z" fill="#444053"/>
<path opacity="0.1" d="M154.552 76.1936C151.301 76.43 148.154 77.4173 145.37 79.0743C144.654 79.4978 143.937 80.0124 143.64 80.7719C143.382 81.43 143.489 82.172 143.5 82.8721C143.597 88.8995 136.716 93.4604 136.931 99.4843C137.017 101.875 138.246 104.101 138.472 106.485C138.848 110.461 136.44 114.119 134.132 117.413C136.51 117.554 138.852 116.796 140.672 115.295C143.108 123.223 143.422 131.629 141.586 139.709H144.887C145.213 139.686 145.54 139.725 145.851 139.825C146.14 139.959 146.4 140.148 146.614 140.381C149.699 143.381 151.767 147.816 150.588 151.911L157.612 149.338C159.293 148.722 160.998 148.096 162.46 147.081C163.923 146.066 165.148 144.592 165.456 142.863C165.646 141.813 165.585 140.56 166.47 139.951C166.907 139.724 167.372 139.556 167.854 139.45C169.782 138.785 170.635 136.608 171.029 134.648C171.509 132.243 171.659 129.786 171.477 127.343C171.165 123.248 169.925 119.089 170.946 115.092C171.523 112.848 172.806 110.759 172.91 108.441C173.078 104.623 170.022 101.332 169.567 97.5347C169.248 94.8885 170.226 92.2108 169.907 89.5646C169.73 88.1988 169.218 86.8948 168.415 85.7633C167.613 84.6318 166.542 83.706 165.295 83.0646C164.431 82.6306 163.503 82.34 162.65 81.8605C160.704 80.7579 159.461 78.7733 157.694 77.4082C155.928 76.0431 152.986 75.5286 151.656 77.3032L154.552 76.1936Z" fill="black"/>
<path d="M154.552 75.756C151.301 75.9924 148.154 76.9797 145.37 78.6367C144.654 79.0603 143.937 79.5748 143.64 80.3344C143.382 80.9924 143.489 81.7345 143.5 82.4345C143.597 88.462 136.716 93.0228 136.931 99.0502C137.017 101.437 138.246 103.664 138.472 106.051C138.848 110.027 136.44 113.685 134.132 116.982C136.509 117.118 138.85 116.361 140.672 114.864C143.107 122.79 143.422 131.193 141.586 139.272H144.887C145.213 139.25 145.54 139.29 145.851 139.391C146.141 139.523 146.401 139.711 146.614 139.944C149.699 142.947 151.767 147.378 150.588 151.474L157.612 148.901C159.293 148.285 160.998 147.658 162.46 146.643C163.923 145.628 165.148 144.155 165.456 142.425C165.646 141.375 165.585 140.122 166.47 139.513C166.907 139.287 167.372 139.118 167.854 139.013C169.782 138.348 170.635 136.17 171.029 134.21C171.513 131.804 171.667 129.345 171.487 126.898C171.176 122.803 169.936 118.645 170.957 114.647C171.534 112.404 172.817 110.314 172.921 107.997C173.089 104.178 170.033 100.888 169.577 97.0901C169.258 94.4439 170.237 91.7697 169.918 89.12C169.74 87.7544 169.228 86.4507 168.425 85.3192C167.623 84.1878 166.553 83.2619 165.306 82.62C164.442 82.186 163.514 81.8955 162.661 81.4194C160.715 80.3134 159.472 78.3287 157.705 76.9636C155.938 75.5985 152.996 75.084 151.667 76.8586L154.552 75.756Z" fill="#925978"/>
<g opacity="0.1">
<path opacity="0.1" d="M143.494 80.9784C143.479 81.1133 143.471 81.2488 143.471 81.3844C143.483 81.2514 143.49 81.1149 143.494 80.9784Z" fill="black"/>
<path opacity="0.1" d="M169.538 94.99C169.667 93.1348 170.09 91.2727 169.932 89.4246C169.814 91.2797 169.391 93.1418 169.538 94.99Z" fill="black"/>
<path opacity="0.1" d="M138.472 104.213C138.264 102.043 137.229 100.013 136.985 97.8462C136.936 98.2433 136.918 98.6435 136.931 99.0433C137.017 101.406 138.218 103.615 138.461 105.967C138.521 105.384 138.524 104.797 138.472 104.213Z" fill="black"/>
<path opacity="0.1" d="M170.971 112.834C170.636 114.259 170.515 115.723 170.613 117.182C170.649 116.331 170.769 115.486 170.971 114.658C171.548 112.414 172.831 110.325 172.935 108.007C172.952 107.596 172.933 107.184 172.878 106.775C172.598 108.858 171.484 110.797 170.971 112.834Z" fill="black"/>
<path opacity="0.1" d="M140.672 113.023C139.178 114.247 137.328 114.981 135.383 115.123C134.975 115.746 134.552 116.355 134.132 116.957C136.509 117.094 138.85 116.336 140.672 114.84C141.982 119.095 142.683 123.506 142.758 127.948C142.864 122.897 142.161 117.861 140.672 113.023Z" fill="black"/>
<path opacity="0.1" d="M171.039 132.376C170.645 134.336 169.792 136.513 167.864 137.175C167.382 137.28 166.916 137.45 166.481 137.679C165.596 138.288 165.657 139.548 165.467 140.591C165.159 142.32 163.937 143.79 162.471 144.792C161.006 145.793 159.303 146.437 157.623 147.053L150.921 149.503C150.887 150.16 150.778 150.811 150.599 151.446L157.623 148.873C159.303 148.257 161.009 147.63 162.471 146.615C163.933 145.6 165.159 144.127 165.467 142.397C165.657 141.347 165.596 140.094 166.481 139.485C166.917 139.259 167.383 139.09 167.864 138.985C169.792 138.32 170.645 136.142 171.039 134.182C171.448 132.142 171.617 130.064 171.545 127.987C171.498 129.461 171.329 130.929 171.039 132.376Z" fill="black"/>
<path opacity="0.1" d="M146.625 138.099C146.411 137.865 146.152 137.676 145.861 137.543C145.551 137.443 145.224 137.403 144.897 137.424H141.97C141.855 138.033 141.733 138.642 141.611 139.247H144.912C145.238 139.225 145.565 139.266 145.876 139.366C146.166 139.498 146.426 139.686 146.639 139.919C148.897 142.117 150.606 145.079 150.9 148.117C151.262 144.484 149.334 140.745 146.625 138.099Z" fill="black"/>
</g>
<path opacity="0.1" d="M130.251 150.028C130.251 150.028 132.918 148.936 133.512 150.028C134.107 151.12 130.251 150.028 130.251 150.028Z" fill="black"/>
<path opacity="0.1" d="M131.194 151.901C131.194 151.901 133.86 150.808 134.459 151.901C135.057 152.993 131.194 151.901 131.194 151.901Z" fill="black"/>
<path opacity="0.1" d="M296.435 10.5778C296.435 10.5778 282.8 9.77622 284.409 19.1079C284.409 19.1079 284.09 20.7565 285.62 21.5056C285.62 21.5056 285.645 20.8055 287.018 21.047C287.506 21.1274 288.003 21.1509 288.498 21.1171C289.165 21.0719 289.799 20.815 290.304 20.3855C290.304 20.3855 294.135 18.8419 295.625 12.7234C295.625 12.7234 296.729 11.3863 296.7 11.0433L294.4 12.0059C294.4 12.0059 295.185 13.6265 294.565 14.9741C294.565 14.9741 294.493 12.0619 294.049 12.1319C293.959 12.1319 292.855 12.6919 292.855 12.6919C292.855 12.6919 294.206 15.5166 293.185 17.5713C293.185 17.5713 293.572 14.092 292.432 12.8984L290.805 13.84C290.805 13.84 292.386 16.7557 291.314 19.1359C291.314 19.1359 291.59 15.4851 290.465 14.064L288.996 15.1806C288.996 15.1806 290.483 18.0403 289.587 20.0145C289.587 20.0145 289.469 15.7617 288.688 15.4431C288.688 15.4431 287.405 16.5492 287.211 17.0042C287.211 17.0042 288.225 19.1044 287.595 20.1895C287.595 20.1895 287.208 17.3613 286.878 17.3473C286.878 17.3473 285.599 19.2234 285.466 20.4975C285.528 19.3086 285.907 18.1563 286.566 17.1548C285.828 17.2912 285.148 17.637 284.61 18.1488C284.61 18.1488 284.807 16.8222 286.881 16.7032C286.881 16.7032 287.939 15.2821 288.222 15.1946C288.222 15.1946 286.158 15.0266 284.907 15.5691C284.907 15.5691 286.007 14.316 288.602 14.8691L290.035 13.714C290.035 13.714 287.319 13.364 286.165 13.7525C286.165 13.7525 287.491 12.6464 290.426 13.4515L292.002 12.5309C292.002 12.5309 289.687 12.0409 288.308 12.2194C288.308 12.2194 289.763 11.4528 292.465 12.2824L293.593 11.7889C293.593 11.7889 291.895 11.4633 291.4 11.4108C290.906 11.3583 290.877 11.2253 290.877 11.2253C291.952 11.0506 293.055 11.1718 294.063 11.5753C294.063 11.5753 296.475 10.7248 296.435 10.5778Z" fill="#55EFC4"/>
<path opacity="0.1" d="M277.002 3.01025C277.002 3.01025 265.534 10.2593 272.49 16.8433C272.49 16.8433 273.232 18.3554 274.92 18.0754C274.92 18.0754 274.518 17.5013 275.769 16.8958C276.212 16.6777 276.627 16.4086 277.005 16.0942C277.516 15.6713 277.872 15.0975 278.019 14.4596C278.019 14.4596 280.17 10.9943 277.661 5.20492C277.661 5.20492 277.74 3.48979 277.496 3.23777L276.228 5.33792C276.228 5.33792 277.844 6.18849 278.163 7.63059C278.163 7.63059 276.339 5.33092 276.013 5.64245C275.948 5.70545 275.389 6.78703 275.389 6.78703C275.389 6.78703 278.195 8.27814 278.614 10.5218C278.614 10.5218 276.823 7.49408 275.17 7.19656L274.425 8.87668C274.425 8.87668 277.471 10.3118 278.052 12.8495C278.052 12.8495 276.056 9.74825 274.289 9.25471L273.787 11.0048C273.787 11.0048 276.726 12.4609 277.195 14.5751C277.195 14.5751 274.522 11.2219 273.698 11.4249C273.698 11.4249 273.339 13.056 273.454 13.525C273.454 13.525 275.54 14.6171 275.697 15.8702C275.697 15.8702 273.669 13.8155 273.407 13.9871C273.407 13.9871 273.515 16.2377 274.185 17.3508C273.515 16.357 273.122 15.2096 273.045 14.0221C272.534 14.559 272.195 15.2308 272.071 15.9542C272.071 15.9542 271.426 14.7711 273.028 13.476C273.028 13.476 273.028 11.7259 273.189 11.4844C273.189 11.4844 271.426 12.5345 270.745 13.7035C270.745 13.7035 270.874 12.0584 273.307 11.0153L273.773 9.24771C273.773 9.24771 271.365 10.5288 270.68 11.5194C270.68 11.5194 271.078 9.86026 273.927 8.81018L274.644 7.15456C274.644 7.15456 272.494 8.10313 271.476 9.0447C271.476 9.0447 272.193 7.58159 274.866 6.68902L275.475 5.63895C275.475 5.63895 273.909 6.36 273.479 6.60502C273.049 6.85004 272.945 6.75903 272.945 6.75903C273.704 5.99601 274.666 5.45429 275.722 5.19441C275.722 5.19441 277.124 3.10826 277.002 3.01025Z" fill="#55EFC4"/>
<path opacity="0.1" d="M259.55 11.4564C259.55 11.4564 252.694 23.0073 261.951 25.783C261.951 25.783 263.316 26.8016 264.689 25.783C264.689 25.783 264.069 25.454 264.9 24.3584C265.189 23.9673 265.429 23.5444 265.617 23.0983C265.876 22.4947 265.927 21.8253 265.764 21.1906C265.764 21.1906 266.068 17.1513 261.141 13.1016C261.141 13.1016 260.424 11.5404 260.066 11.4249L259.912 13.8751C259.912 13.8751 261.746 13.9171 262.703 15.0617C262.703 15.0617 260.008 13.8191 259.872 14.2356C259.844 14.3196 259.847 15.5307 259.847 15.5307C259.847 15.5307 263.069 15.6252 264.502 17.4384C264.502 17.4384 261.492 15.5377 259.89 15.9998L260.005 17.8269C260.005 17.8269 263.384 17.7569 265.079 19.7625C265.079 19.7625 261.854 17.8829 260.062 18.2259L260.42 20.0076C260.42 20.0076 263.717 20.0076 265.115 21.6807C265.115 21.6807 261.173 19.8745 260.532 20.4101C260.532 20.4101 260.965 22.0272 261.295 22.4017C261.295 22.4017 263.66 22.4507 264.384 23.4973C264.384 23.4973 261.621 22.5627 261.467 22.8358C261.467 22.8358 262.61 24.7924 263.725 25.4855C262.667 24.8999 261.784 24.0555 261.162 23.0353C260.956 23.7401 260.966 24.4886 261.191 25.1879C261.191 25.1879 260.066 24.4214 260.89 22.5557C260.89 22.5557 260.066 20.9946 260.112 20.7111C260.112 20.7111 259.037 22.4367 258.966 23.7703C258.966 23.7703 258.313 22.2477 259.998 20.2421L259.593 18.4569C259.593 18.4569 258.041 20.6656 257.891 21.8522C257.891 21.8522 257.475 20.1966 259.528 18.0019L259.392 16.2133C259.392 16.2133 257.908 18.0159 257.45 19.3005C257.45 19.3005 257.4 17.6834 259.374 15.6987L259.428 14.4912C259.428 14.4912 258.353 15.8248 258.098 16.2413C257.844 16.6578 257.693 16.5983 257.693 16.5983C258.016 15.581 258.622 14.6711 259.442 13.9696C259.442 13.9696 259.7 11.4879 259.55 11.4564Z" fill="#55EFC4"/>
<path d="M318.41 143.129C317.395 143.129 316.404 143.423 315.561 143.973C314.717 144.523 314.06 145.306 313.672 146.221C313.284 147.136 313.182 148.143 313.38 149.115C313.578 150.087 314.066 150.979 314.783 151.68C315.501 152.38 316.414 152.857 317.409 153.05C318.404 153.244 319.435 153.144 320.372 152.765C321.309 152.386 322.11 151.744 322.673 150.921C323.237 150.097 323.538 149.128 323.538 148.138C323.534 146.81 322.992 145.539 322.031 144.6C321.071 143.661 319.768 143.133 318.41 143.129ZM303.416 103.824V108.833H308.544L317.775 127.098L313.916 133.234C313.495 133.959 313.274 134.78 313.274 135.614C313.274 138.967 315.622 140.623 318.804 140.623H348.787V135.806H319.431C319.345 135.811 319.26 135.799 319.179 135.769C319.099 135.739 319.026 135.693 318.966 135.634C318.905 135.575 318.858 135.504 318.828 135.425C318.797 135.347 318.784 135.263 318.789 135.18C318.857 134.963 318.948 134.754 319.062 134.557L321.624 130.605H340.728C341.651 130.612 342.558 130.371 343.35 129.907C344.141 129.443 344.787 128.775 345.215 127.976L354.449 112.467C354.629 112.073 354.718 111.645 354.707 111.214C354.704 110.891 354.634 110.573 354.502 110.277C354.37 109.982 354.179 109.715 353.94 109.493C353.701 109.271 353.418 109.099 353.109 108.985C352.8 108.872 352.471 108.82 352.142 108.833H314.188L311.751 103.824H303.416ZM343.656 143.129C342.642 143.13 341.651 143.424 340.808 143.975C339.965 144.526 339.308 145.308 338.921 146.223C338.533 147.139 338.432 148.146 338.63 149.117C338.828 150.088 339.317 150.981 340.034 151.681C340.752 152.381 341.666 152.858 342.66 153.051C343.655 153.244 344.686 153.144 345.623 152.765C346.559 152.386 347.36 151.744 347.923 150.92C348.487 150.097 348.787 149.128 348.787 148.138C348.784 146.81 348.242 145.537 347.28 144.599C346.318 143.66 345.015 143.132 343.656 143.129Z" fill="#55EFC4"/>
<path d="M337.094 117.682H332.794V113.482H329.569V117.682H325.269V120.832H329.569V125.033H332.794V120.832H337.094V117.682Z" fill="white"/>
</g>
<defs>
<linearGradient id="paint0_linear" x1="219.464" y1="207.138" x2="219.464" y2="33.4414" gradientUnits="userSpaceOnUse">
<stop stop-color="#808080" stop-opacity="0.25"/>
<stop offset="0.54" stop-color="#808080" stop-opacity="0.12"/>
<stop offset="1" stop-color="#808080" stop-opacity="0.1"/>
</linearGradient>
<clipPath id="clip0">
<rect width="400" height="300" fill="white"/>
</clipPath>
</defs>
</svg>
