<svg width="314" height="225" viewBox="0 0 314 225" fill="none" xmlns="http://www.w3.org/2000/svg">
<path d="M313.5 187.33H0.500008C0.378008 187.33 0.261007 187.282 0.17474 187.195C0.0884731 187.109 0.0400085 186.992 0.0400085 186.87C0.0425609 186.749 0.091843 186.633 0.177563 186.548C0.263282 186.462 0.378809 186.413 0.500008 186.41H313.5C313.621 186.413 313.737 186.462 313.822 186.548C313.908 186.633 313.957 186.749 313.96 186.87C313.96 186.992 313.912 187.109 313.825 187.195C313.739 187.282 313.622 187.33 313.5 187.33Z" fill="#D1D3D4"/>
<path d="M290.71 0.48999H29.3C26.3342 0.48999 23.93 2.89422 23.93 5.85999V161.45C23.93 164.416 26.3342 166.82 29.3 166.82H290.71C293.676 166.82 296.08 164.416 296.08 161.45V5.85999C296.08 2.89422 293.676 0.48999 290.71 0.48999Z" fill="white"/>
<path d="M290.7 167.32H29.3C27.7423 167.317 26.2492 166.697 25.1487 165.594C24.0481 164.492 23.43 162.998 23.43 161.44V5.86C23.4326 4.30491 24.0523 2.81442 25.1528 1.71575C26.2534 0.617071 27.7449 -2.25657e-06 29.3 0H290.7C292.257 0 293.75 0.618446 294.851 1.71928C295.952 2.82012 296.57 4.31318 296.57 5.87V161.44C296.57 162.998 295.952 164.492 294.851 165.594C293.751 166.697 292.258 167.317 290.7 167.32ZM29.3 1C28.0084 1 26.7697 1.51309 25.8564 2.42639C24.9431 3.33969 24.43 4.57839 24.43 5.87V161.44C24.43 162.733 24.9428 163.972 25.8558 164.887C26.7688 165.802 28.0075 166.317 29.3 166.32H290.7C291.993 166.317 293.231 165.802 294.144 164.887C295.057 163.972 295.57 162.733 295.57 161.44V5.86C295.567 4.57013 295.053 3.33399 294.14 2.42285C293.227 1.51171 291.99 0.999997 290.7 1H29.3Z" fill="#231F20"/>
<path d="M144.75 119.67H39.63C39.508 119.67 39.391 119.622 39.3047 119.535C39.2185 119.449 39.17 119.332 39.17 119.21C39.1726 119.089 39.2219 118.973 39.3076 118.888C39.3933 118.802 39.5088 118.753 39.63 118.75H144.75C144.871 118.753 144.987 118.802 145.072 118.888C145.158 118.973 145.207 119.089 145.21 119.21C145.21 119.27 145.198 119.33 145.175 119.386C145.152 119.442 145.118 119.493 145.075 119.535C145.033 119.578 144.982 119.612 144.926 119.635C144.87 119.658 144.81 119.67 144.75 119.67Z" fill="#D1D3D4"/>
<path d="M96.32 158.34C96.198 158.34 96.081 158.292 95.9948 158.205C95.9085 158.119 95.86 158.002 95.86 157.88V119C95.86 118.878 95.9085 118.761 95.9948 118.675C96.081 118.589 96.198 118.54 96.32 118.54C96.4412 118.543 96.5567 118.592 96.6425 118.678C96.7282 118.763 96.7775 118.879 96.78 119V157.86C96.7813 157.922 96.7705 157.983 96.7481 158.041C96.7257 158.098 96.6922 158.151 96.6495 158.195C96.6067 158.24 96.5557 158.276 96.4991 158.3C96.4426 158.325 96.3817 158.339 96.32 158.34Z" fill="#D1D3D4"/>
<path d="M277.64 93.77H156.76C156.638 93.77 156.521 93.7215 156.435 93.6352C156.348 93.549 156.3 93.432 156.3 93.31C156.299 93.2492 156.31 93.1887 156.332 93.1323C156.355 93.0759 156.389 93.0246 156.432 92.9817C156.475 92.9387 156.526 92.9048 156.582 92.8822C156.639 92.8596 156.699 92.8486 156.76 92.85H277.64C277.701 92.8486 277.761 92.8596 277.818 92.8822C277.874 92.9048 277.925 92.9387 277.968 92.9817C278.011 93.0246 278.045 93.0759 278.068 93.1323C278.09 93.1887 278.101 93.2492 278.1 93.31C278.1 93.432 278.052 93.549 277.965 93.6352C277.879 93.7215 277.762 93.77 277.64 93.77Z" fill="#D1D3D4"/>
<path d="M277.64 105.59H156.76C156.699 105.591 156.639 105.58 156.582 105.558C156.526 105.535 156.475 105.501 156.432 105.458C156.389 105.415 156.355 105.364 156.332 105.308C156.31 105.251 156.299 105.191 156.3 105.13C156.3 105.008 156.348 104.891 156.435 104.805C156.521 104.719 156.638 104.67 156.76 104.67H277.64C277.762 104.67 277.879 104.719 277.965 104.805C278.052 104.891 278.1 105.008 278.1 105.13C278.101 105.191 278.09 105.251 278.068 105.308C278.045 105.364 278.011 105.415 277.968 105.458C277.925 105.501 277.874 105.535 277.818 105.558C277.761 105.58 277.701 105.591 277.64 105.59Z" fill="#D1D3D4"/>
<path d="M277.64 117.42H156.76C156.638 117.42 156.521 117.372 156.435 117.285C156.348 117.199 156.3 117.082 156.3 116.96C156.3 116.838 156.348 116.721 156.435 116.635C156.521 116.548 156.638 116.5 156.76 116.5H277.64C277.7 116.5 277.76 116.512 277.816 116.535C277.872 116.558 277.923 116.592 277.965 116.635C278.008 116.677 278.042 116.728 278.065 116.784C278.088 116.84 278.1 116.9 278.1 116.96C278.1 117.02 278.088 117.08 278.065 117.136C278.042 117.192 278.008 117.243 277.965 117.285C277.923 117.328 277.872 117.362 277.816 117.385C277.76 117.408 277.7 117.42 277.64 117.42Z" fill="#D1D3D4"/>
<path d="M277.64 129.25H156.76C156.648 129.234 156.546 129.178 156.473 129.092C156.399 129.007 156.358 128.898 156.358 128.785C156.358 128.672 156.399 128.563 156.473 128.478C156.546 128.392 156.648 128.336 156.76 128.32H277.64C277.752 128.336 277.854 128.392 277.927 128.478C278.001 128.563 278.042 128.672 278.042 128.785C278.042 128.898 278.001 129.007 277.927 129.092C277.854 129.178 277.752 129.234 277.64 129.25Z" fill="#D1D3D4"/>
<path d="M277.64 141.07H156.76C156.638 141.07 156.521 141.022 156.435 140.935C156.348 140.849 156.3 140.732 156.3 140.61C156.3 140.488 156.348 140.371 156.435 140.285C156.521 140.198 156.638 140.15 156.76 140.15H277.64C277.7 140.15 277.76 140.162 277.816 140.185C277.872 140.208 277.923 140.242 277.965 140.285C278.008 140.327 278.042 140.378 278.065 140.434C278.088 140.49 278.1 140.55 278.1 140.61C278.1 140.67 278.088 140.73 278.065 140.786C278.042 140.842 278.008 140.893 277.965 140.935C277.923 140.978 277.872 141.012 277.816 141.035C277.76 141.058 277.7 141.07 277.64 141.07Z" fill="#D1D3D4"/>
<path d="M283.84 77.81H144.18C144.058 77.81 143.941 77.7616 143.855 77.6753C143.768 77.589 143.72 77.472 143.72 77.35C143.723 77.2288 143.772 77.1133 143.858 77.0276C143.943 76.9419 144.059 76.8926 144.18 76.89H283.84C283.961 76.8926 284.077 76.9419 284.162 77.0276C284.248 77.1133 284.297 77.2288 284.3 77.35C284.3 77.472 284.252 77.589 284.165 77.6753C284.079 77.7616 283.962 77.81 283.84 77.81Z" fill="#D1D3D4"/>
<path d="M202.35 33.99H158.46C157.311 33.99 156.38 34.9212 156.38 36.07V64.57C156.38 65.7187 157.311 66.65 158.46 66.65H202.35C203.499 66.65 204.43 65.7187 204.43 64.57V36.07C204.43 34.9212 203.499 33.99 202.35 33.99Z" fill="#55EFC4"/>
<path d="M144.56 157.4C144.499 157.401 144.439 157.39 144.382 157.368C144.326 157.345 144.275 157.311 144.232 157.268C144.189 157.225 144.155 157.174 144.132 157.118C144.11 157.061 144.099 157.001 144.1 156.94V24.56C144.1 24.438 144.148 24.321 144.235 24.2347C144.321 24.1484 144.438 24.1 144.56 24.1C144.681 24.1025 144.797 24.1518 144.882 24.2375C144.968 24.3233 145.017 24.4388 145.02 24.56V156.94C145.02 157 145.008 157.06 144.985 157.116C144.962 157.172 144.928 157.223 144.885 157.265C144.843 157.308 144.792 157.342 144.736 157.365C144.68 157.388 144.62 157.4 144.56 157.4Z" fill="#D1D3D4"/>
<path d="M284.77 24.69H34.77C34.648 24.69 34.531 24.6416 34.4447 24.5553C34.3585 24.469 34.31 24.352 34.31 24.23C34.3125 24.1088 34.3618 23.9933 34.4476 23.9076C34.5333 23.8219 34.6488 23.7726 34.77 23.77H284.77C284.893 23.77 285.011 23.8181 285.099 23.9041C285.187 23.9901 285.237 24.1071 285.24 24.23C285.24 24.2913 285.228 24.3519 285.204 24.4084C285.18 24.4649 285.146 24.516 285.102 24.5589C285.058 24.6017 285.006 24.6354 284.949 24.6579C284.892 24.6804 284.831 24.6914 284.77 24.69Z" fill="#D1D3D4"/>
<path d="M279.62 158.68H40.38C38.8223 158.68 37.3282 158.062 36.2257 156.961C35.1233 155.861 34.5026 154.368 34.5 152.81V14.5C34.5026 12.9413 35.123 11.4473 36.2251 10.3451C37.3273 9.24299 38.8213 8.62264 40.38 8.62H279.62C281.179 8.62264 282.673 9.24299 283.775 10.3451C284.877 11.4473 285.497 12.9413 285.5 14.5V152.81C285.497 154.368 284.877 155.861 283.774 156.961C282.672 158.062 281.178 158.68 279.62 158.68ZM40.38 9.62C39.0866 9.62264 37.8468 10.1376 36.9322 11.0522C36.0176 11.9668 35.5026 13.2066 35.5 14.5V152.81C35.5026 154.103 36.018 155.341 36.9328 156.254C37.8477 157.167 39.0875 157.68 40.38 157.68H279.62C280.913 157.68 282.152 157.167 283.067 156.254C283.982 155.341 284.497 154.103 284.5 152.81V14.5C284.497 13.2066 283.982 11.9668 283.068 11.0522C282.153 10.1376 280.913 9.62264 279.62 9.62H40.38Z" fill="#231F20"/>
<path d="M187.7 166.87L159 166.8L130.31 166.87C130.31 166.87 127.78 192.87 111.31 204H206.72C190.23 192.9 187.7 166.87 187.7 166.87Z" fill="white"/>
<path d="M206.71 204.5H111.29C111.184 204.5 111.082 204.466 110.997 204.403C110.912 204.34 110.85 204.251 110.82 204.15C110.786 204.048 110.787 203.937 110.823 203.835C110.859 203.734 110.929 203.647 111.02 203.59C127.11 192.75 129.78 167.08 129.81 166.82C129.822 166.696 129.881 166.582 129.973 166.498C130.065 166.415 130.186 166.369 130.31 166.37L159 166.3L187.7 166.37C187.824 166.372 187.943 166.418 188.035 166.501C188.127 166.584 188.185 166.697 188.2 166.82C188.2 167.08 190.9 192.75 206.99 203.59C207.078 203.651 207.144 203.737 207.18 203.838C207.216 203.938 207.219 204.048 207.19 204.15C207.158 204.252 207.094 204.341 207.008 204.404C206.921 204.467 206.817 204.501 206.71 204.5ZM112.86 203.5H205.15C190.95 192.81 187.68 170.79 187.26 167.37L159 167.3L130.75 167.37C130.32 170.79 127.06 192.81 112.86 203.5Z" fill="#231F20"/>
<path d="M213.94 204H104.07C101.386 204 99.21 206.176 99.21 208.86V209.04C99.21 211.724 101.386 213.9 104.07 213.9H213.94C216.624 213.9 218.8 211.724 218.8 209.04V208.86C218.8 206.176 216.624 204 213.94 204Z" fill="white"/>
<path d="M213.94 214.41H104.07C102.649 214.407 101.287 213.842 100.283 212.837C99.2782 211.833 98.7127 210.471 98.71 209.05V208.86C98.7127 207.439 99.2782 206.077 100.283 205.073C101.287 204.068 102.649 203.503 104.07 203.5H213.94C215.361 203.503 216.723 204.068 217.727 205.073C218.732 206.077 219.297 207.439 219.3 208.86V209.05C219.297 210.471 218.732 211.833 217.727 212.837C216.723 213.842 215.361 214.407 213.94 214.41ZM104.07 204.5C102.914 204.503 101.807 204.963 100.99 205.78C100.173 206.597 99.7127 207.704 99.71 208.86V209.05C99.7127 210.206 100.173 211.313 100.99 212.13C101.807 212.947 102.914 213.407 104.07 213.41H213.94C215.096 213.407 216.203 212.947 217.02 212.13C217.837 211.313 218.297 210.206 218.3 209.05V208.86C218.297 207.704 217.837 206.597 217.02 205.78C216.203 204.963 215.096 204.503 213.94 204.5H104.07Z" fill="#231F20"/>
<path d="M50.67 20.51C52.3987 20.51 53.8 19.1087 53.8 17.38C53.8 15.6513 52.3987 14.25 50.67 14.25C48.9414 14.25 47.54 15.6513 47.54 17.38C47.54 19.1087 48.9414 20.51 50.67 20.51Z" fill="#1CC06D"/>
<path d="M62.9 20.51C64.6287 20.51 66.03 19.1087 66.03 17.38C66.03 15.6513 64.6287 14.25 62.9 14.25C61.1714 14.25 59.77 15.6513 59.77 17.38C59.77 19.1087 61.1714 20.51 62.9 20.51Z" fill="#231F20"/>
<path d="M75.14 20.51C76.8687 20.51 78.27 19.1087 78.27 17.38C78.27 15.6513 76.8687 14.25 75.14 14.25C73.4114 14.25 72.01 15.6513 72.01 17.38C72.01 19.1087 73.4114 20.51 75.14 20.51Z" fill="#231F20"/>
<path d="M56.39 180.43L64.55 210.38C64.55 210.38 78.87 213.71 78.55 214.63C78.23 215.55 56 218.56 56 218.56L46.55 184" fill="white"/>
<path d="M56 219.06C55.8905 219.059 55.7843 219.023 55.6976 218.956C55.6109 218.889 55.5485 218.796 55.52 218.69L46.07 184.09C46.0519 184.027 46.0467 183.961 46.0546 183.896C46.0625 183.831 46.0833 183.768 46.116 183.711C46.1486 183.654 46.1924 183.604 46.2446 183.565C46.2968 183.525 46.3565 183.496 46.42 183.48C46.5473 183.446 46.6827 183.464 46.7969 183.53C46.9112 183.595 46.9949 183.703 47.03 183.83L56.37 218C63.71 217 74.84 215.33 77.62 214.53C73.3032 213.05 68.9021 211.827 64.44 210.87C64.3526 210.85 64.2722 210.807 64.2071 210.746C64.142 210.684 64.0947 210.606 64.07 210.52L55.91 180.52C55.8755 180.387 55.8951 180.247 55.9645 180.128C56.0339 180.01 56.1474 179.925 56.28 179.89C56.4126 179.856 56.5535 179.875 56.6716 179.945C56.7898 180.014 56.8755 180.127 56.91 180.26L65 210C70.12 211.2 78.44 213.28 79 214.33C79.0707 214.487 79.0882 214.662 79.05 214.83C78.93 215.19 78.64 216.05 56.05 219.09L56 219.06Z" fill="#231F20"/>
<path d="M31 170.46L28.65 215.86C28.65 215.86 51.02 220.71 51.1 220.13C51.18 219.55 39.1 210.92 39.1 210.92L42.61 178.66" fill="white"/>
<path d="M50.9 220.64C49.8 220.64 45.66 220.07 28.5 216.35C28.3828 216.324 28.2785 216.258 28.2053 216.163C28.1322 216.068 28.0949 215.95 28.1 215.83L30.45 170.44C30.4566 170.307 30.5157 170.183 30.6141 170.094C30.7126 170.005 30.8424 169.958 30.975 169.965C31.1076 169.972 31.2322 170.031 31.3212 170.129C31.4103 170.228 31.4566 170.357 31.45 170.49L29.12 215.49C36.04 216.99 46.39 219.13 49.82 219.61C47.82 217.9 42.31 213.92 38.71 211.36C38.6391 211.308 38.5833 211.238 38.5482 211.157C38.513 211.076 38.4999 210.987 38.51 210.9L42 178.61C42.0063 178.544 42.0255 178.48 42.0566 178.422C42.0877 178.364 42.13 178.312 42.1812 178.27C42.2323 178.228 42.2912 178.197 42.3546 178.178C42.4179 178.159 42.4843 178.153 42.55 178.16C42.6837 178.175 42.8061 178.242 42.8904 178.347C42.9746 178.452 43.0141 178.586 43 178.72L39.52 210.72C51.67 219.36 51.59 219.87 51.52 220.24C51.4931 220.38 51.4146 220.505 51.3 220.59C51.3 220.59 51.21 220.64 50.9 220.64Z" fill="#231F20"/>
<path d="M69.28 210.11L66.28 214.71L54.48 216.1L55.64 220.62C55.64 220.62 81.64 217.37 82.19 215C82.74 212.63 69.28 210.11 69.28 210.11Z" fill="#231F20"/>
<path d="M26.52 216.9L27.2 212.26L40.86 216L43.52 212.49C43.52 212.49 53.52 219.75 52.16 221.31C50.8 222.87 36 220.05 26.52 216.9Z" fill="#231F20"/>
<path d="M21.94 59.61C23.2653 59.2183 24.688 59.325 25.94 59.91C26.7336 58.0411 27.9753 56.3965 29.5555 55.1216C31.1357 53.8466 33.0056 52.9806 35 52.6C36.3886 52.373 37.793 52.256 39.2 52.25C41.3 52.25 43.56 52.38 45.2 53.67C46.1418 54.514 46.8283 55.605 47.1818 56.8192C47.5352 58.0334 47.5416 59.3224 47.2 60.54C45.98 65.54 42.2 66.77 38.77 69.6C37.1059 71.0622 35.7718 72.8615 34.8563 74.8787C33.9408 76.8959 33.4648 79.0848 33.46 81.3C33.46 91.16 36.58 102.06 25.77 107.98C18.88 111.74 9.54001 108.83 4.92001 102.48C3.88049 101.105 3.1134 99.5433 2.66001 97.88C1.53001 93.39 3.49001 88.69 5.95001 84.77C8.41002 80.85 10.95 77.3 13.01 73.28C14.79 69.78 15.01 65.56 17.59 62.42C18.7102 61.0511 20.2317 60.0683 21.94 59.61Z" fill="white"/>
<path d="M19.05 110.15C16.2343 110.124 13.4632 109.443 10.9555 108.163C8.44776 106.882 6.27203 105.036 4.6 102.77C3.52415 101.343 2.72999 99.7242 2.26 98C1.26 94.09 2.37 89.67 5.61 84.5C6.32 83.37 7.05 82.26 7.77 81.15C9.54095 78.5396 11.17 75.8357 12.65 73.05C13.3064 71.6495 13.8482 70.1981 14.27 68.71C14.8345 66.3339 15.8532 64.0893 17.27 62.1C18.4322 60.6589 20.0106 59.6113 21.79 59.1C23.0832 58.7193 24.4647 58.7649 25.73 59.23C26.5955 57.39 27.8884 55.7837 29.501 54.5451C31.1136 53.3065 32.9991 52.4716 35 52.11C36.4152 51.8795 37.8462 51.7592 39.28 51.75C41.4 51.75 43.8 51.87 45.62 53.27C46.6474 54.1683 47.4001 55.3387 47.7911 56.6462C48.1821 57.9537 48.1956 59.3451 47.83 60.66C46.83 64.66 44.39 66.33 41.83 68.12C40.99 68.7 40.12 69.3 39.28 69.98C37.6714 71.3933 36.3821 73.1328 35.4976 75.0828C34.6131 77.0328 34.1537 79.1488 34.15 81.29C34.15 83.08 34.26 84.94 34.36 86.74C34.83 94.94 35.36 103.43 26.2 108.41C24.0042 109.591 21.5428 110.19 19.05 110.15ZM22.05 60.09C20.4782 60.5405 19.0822 61.4619 18.05 62.73C16.7124 64.6186 15.7515 66.7475 15.22 69C14.7882 70.5448 14.2262 72.0502 13.54 73.5C12.0463 76.3173 10.4005 79.0513 8.61 81.69C7.89 82.8 7.16 83.91 6.46 85.03C3.37 89.96 2.32 94.12 3.23 97.76C3.6698 99.3582 4.40962 100.858 5.41 102.18C10.12 108.66 19.19 111.06 25.62 107.54C34.18 102.85 33.74 95.05 33.26 86.79C33.16 84.98 33.05 83.11 33.05 81.3C33.0534 79.0094 33.5458 76.746 34.4943 74.661C35.4428 72.576 36.8255 70.7176 38.55 69.21C39.42 68.5 40.3 67.89 41.16 67.3C43.72 65.54 45.93 64.02 46.8 60.43C47.31 58.36 46.93 55.59 44.96 54.06C43.39 52.85 41.18 52.72 39.25 52.75C37.8693 52.7502 36.491 52.8673 35.13 53.1C33.2186 53.4617 31.4261 54.2899 29.9118 55.5111C28.3975 56.7323 27.2084 58.3086 26.45 60.1C26.3898 60.2203 26.2862 60.3133 26.16 60.36C26.0339 60.405 25.8961 60.405 25.77 60.36C24.6123 59.8163 23.2944 59.7201 22.07 60.09H22.05Z" fill="#231F20"/>
<path d="M54.62 92.4201C52.4 93.2701 48.75 94.0601 47.8 90.9801C47.6535 90.4329 47.6061 89.8639 47.66 89.3001C47.75 88.4702 47.9004 87.648 48.11 86.8401C48.7054 84.5789 49.4881 82.3713 50.45 80.2401C50.68 79.7001 51.14 79.0501 51.7 79.2401C52.26 79.4301 52.24 80.0201 52.23 80.5201C52.23 81.9101 52 83.3201 52.03 84.7101C54.97 83.9601 56.82 80.8501 59.62 80.1801C60.41 80.0001 61.37 79.9401 61.46 80.9601C61.56 82.2201 59.28 83.2101 58.52 83.8601C59.3727 83.1283 60.3522 82.5589 61.41 82.1801C61.7055 82.0511 62.029 81.9995 62.35 82.0301C62.5118 82.0525 62.6619 82.1271 62.7774 82.2426C62.8929 82.3582 62.9676 82.5082 62.99 82.6701C62.9817 82.8018 62.9474 82.9306 62.889 83.0491C62.8306 83.1675 62.7494 83.2732 62.65 83.3601C62.2145 83.8522 61.7322 84.301 61.21 84.7001C61.7245 84.0867 62.4279 83.6611 63.21 83.4901C63.4044 83.4209 63.6154 83.4136 63.8142 83.4691C64.0129 83.5246 64.1896 83.6402 64.32 83.8001C64.65 84.3301 64.02 84.9301 63.48 85.2401C63.9083 84.8535 64.4338 84.5908 65 84.4801C65.2829 84.4322 65.5734 84.4947 65.8116 84.6547C66.0498 84.8147 66.2174 85.06 66.28 85.3401C66.269 85.5637 66.2097 85.7823 66.1061 85.9808C66.0025 86.1794 65.8571 86.3531 65.68 86.4901C62.82 89.3401 58.34 91.0001 54.62 92.4201Z" fill="white"/>
<path d="M51.07 93.68C50.3816 93.7004 49.6976 93.5637 49.07 93.28C48.6407 93.0674 48.2616 92.7656 47.9581 92.3948C47.6546 92.0241 47.4337 91.5929 47.31 91.13C47.1358 90.523 47.0781 89.8885 47.14 89.26C47.2306 88.4032 47.3844 87.5542 47.6 86.72C48.2094 84.4164 49.0122 82.1684 50 80C50.44 79 51.15 78.48 51.87 78.73C52.28 78.87 52.77 79.29 52.74 80.49C52.74 81.09 52.74 81.69 52.64 82.29C52.54 82.89 52.56 83.42 52.54 83.98C53.635 83.4683 54.6464 82.794 55.54 81.98C56.6594 80.9291 57.9983 80.14 59.46 79.67C59.7714 79.5613 60.102 79.5185 60.4308 79.5443C60.7596 79.5702 61.0794 79.664 61.37 79.82C61.5341 79.9468 61.6678 80.1087 61.7613 80.2938C61.8547 80.479 61.9055 80.6827 61.91 80.89C61.9271 81.0993 61.9033 81.3098 61.84 81.51C62.0255 81.48 62.2146 81.48 62.4 81.51C62.6625 81.5622 62.9013 81.6972 63.0813 81.8952C63.2613 82.0932 63.373 82.3438 63.4 82.61C63.4108 82.7164 63.4108 82.8236 63.4 82.93C63.6538 82.8913 63.9135 82.9252 64.1488 83.0278C64.3842 83.1305 64.5857 83.2977 64.73 83.51C64.8152 83.6431 64.8698 83.7933 64.89 83.95C65.364 83.9033 65.8375 84.0432 66.21 84.34C66.3526 84.4534 66.4711 84.594 66.5587 84.7537C66.6462 84.9134 66.7011 85.0889 66.72 85.27C66.7169 85.5662 66.6479 85.8581 66.5182 86.1244C66.3885 86.3907 66.2013 86.6249 65.97 86.81C63.13 89.61 58.91 91.23 55.2 92.66L54.7 92.86C53.544 93.3333 52.3172 93.6105 51.07 93.68ZM51.5 79.68C51.34 79.68 51.09 79.99 50.91 80.4C49.9534 82.5312 49.1773 84.739 48.59 87C48.387 87.7848 48.2433 88.5837 48.16 89.39C48.113 89.8932 48.1536 90.4007 48.28 90.89C48.3661 91.2198 48.5211 91.5276 48.7348 91.793C48.9486 92.0585 49.2162 92.2756 49.52 92.43C50.99 93.14 53.23 92.43 54.44 92L54.94 91.81C58.56 90.41 62.67 88.81 65.37 86.18C65.57 85.98 65.84 85.68 65.82 85.44C65.8078 85.3416 65.7575 85.2519 65.68 85.19C65.5136 85.065 65.3075 85.0047 65.1 85.02C64.8041 85.0685 64.5234 85.1848 64.28 85.36C64.1226 85.4969 63.9517 85.6175 63.77 85.72C63.6585 85.7819 63.5279 85.7998 63.4039 85.7702C63.2799 85.7406 63.1715 85.6656 63.1 85.56C63.0317 85.4538 63.0061 85.3257 63.0284 85.2015C63.0507 85.0772 63.1191 84.9659 63.22 84.89L63.67 84.56C63.7955 84.4647 63.8923 84.3367 63.95 84.19C63.89 84.02 63.65 83.97 63.34 84.03C63.0095 84.099 62.6921 84.2206 62.4 84.39C62.1173 84.6593 61.8202 84.913 61.51 85.15C61.4127 85.2303 61.2886 85.2709 61.1626 85.2635C61.0366 85.2561 60.9181 85.2014 60.8308 85.1103C60.7435 85.0192 60.6938 84.8985 60.6918 84.7723C60.6898 84.6461 60.7356 84.5238 60.82 84.43C61.1087 84.1008 61.4459 83.8176 61.82 83.59C61.99 83.43 62.15 83.26 62.31 83.08C62.47 82.9 62.52 82.8 62.52 82.74C62.52 82.68 62.42 82.6 62.29 82.58C62.057 82.5651 61.8238 82.6062 61.61 82.7C61.2399 82.8324 60.8791 82.9894 60.53 83.17C60.24 83.38 59.94 83.57 59.66 83.75C59.3891 83.9138 59.1286 84.0941 58.88 84.29C58.8313 84.3368 58.7737 84.3732 58.7106 84.3971C58.6474 84.421 58.5801 84.4318 58.5127 84.429C58.4452 84.4261 58.3791 84.4097 58.3182 84.3806C58.2573 84.3515 58.2029 84.3104 58.1583 84.2597C58.1137 84.2091 58.0798 84.1499 58.0587 84.0858C58.0376 84.0217 58.0297 83.954 58.0355 83.8867C58.0412 83.8195 58.0606 83.7541 58.0923 83.6945C58.124 83.6349 58.1674 83.5824 58.22 83.54C58.7585 83.0783 59.3453 82.676 59.97 82.34C60.53 81.93 60.97 81.47 60.97 81.06C60.97 80.81 60.86 80.74 60.83 80.72C60.8 80.7 60.46 80.56 59.75 80.72C58.433 81.1613 57.2283 81.8848 56.22 82.84C55.0761 83.9201 53.7113 84.7389 52.22 85.24C52.147 85.2601 52.0703 85.2634 51.9958 85.2495C51.9213 85.2357 51.8509 85.2051 51.79 85.16C51.7308 85.113 51.6823 85.0539 51.6478 84.9867C51.6133 84.9194 51.5936 84.8455 51.59 84.77C51.59 83.94 51.59 83.11 51.69 82.3C51.74 81.72 51.78 81.14 51.79 80.56C51.8 79.98 51.7 79.8 51.59 79.77L51.5 79.68Z" fill="#231F20"/>
<path d="M52.17 84.84C52.841 85.6511 53.2155 86.6666 53.2319 87.7192C53.2482 88.7717 52.9054 89.7984 52.26 90.63H52.55" fill="white"/>
<path d="M52.26 91.13C52.1665 91.129 52.0751 91.1024 51.9958 91.053C51.9164 91.0037 51.8522 90.9334 51.81 90.85C51.7681 90.7635 51.7515 90.6669 51.7621 90.5713C51.7727 90.4758 51.8101 90.3852 51.87 90.31C52.4413 89.571 52.7445 88.6599 52.73 87.726C52.7154 86.7921 52.384 85.8908 51.79 85.17C51.7038 85.0692 51.6612 84.9383 51.6715 84.8061C51.6818 84.6739 51.7442 84.5512 51.845 84.465C51.9458 84.3788 52.0767 84.3362 52.2089 84.3465C52.3411 84.3568 52.4638 84.4192 52.55 84.52C53.2316 85.335 53.6421 86.3422 53.7246 87.4015C53.807 88.4607 53.5572 89.5193 53.01 90.43C53.0145 90.4799 53.0145 90.5301 53.01 90.58C53.0141 90.6457 53.0051 90.7115 52.9837 90.7737C52.9622 90.836 52.9287 90.8933 52.8851 90.9426C52.8414 90.9918 52.7884 91.0319 52.7292 91.0607C52.67 91.0894 52.6057 91.1062 52.54 91.11H52.25L52.26 91.13Z" fill="#231F20"/>
<path d="M122.62 52.1801H56.11C54.2654 52.1801 52.77 53.6754 52.77 55.5201V83.5701C52.77 85.4147 54.2654 86.9101 56.11 86.9101H122.62C124.465 86.9101 125.96 85.4147 125.96 83.5701V55.5201C125.96 53.6754 124.465 52.1801 122.62 52.1801Z" fill="white"/>
<path d="M122.62 87.41H56.11C55.6057 87.41 55.1064 87.3106 54.6405 87.1177C54.1746 86.9247 53.7513 86.6418 53.3947 86.2853C53.0381 85.9287 52.7553 85.5054 52.5623 85.0395C52.3693 84.5736 52.27 84.0743 52.27 83.57V55.57C52.27 54.5515 52.6746 53.5748 53.3947 52.8547C54.1149 52.1346 55.0916 51.73 56.11 51.73H122.62C123.638 51.73 124.615 52.1346 125.335 52.8547C126.055 53.5748 126.46 54.5515 126.46 55.57V83.62C126.447 84.6297 126.036 85.5936 125.318 86.303C124.599 87.0124 123.63 87.4101 122.62 87.41ZM56.11 52.68C55.3568 52.68 54.6344 52.9792 54.1018 53.5118C53.5692 54.0444 53.27 54.7668 53.27 55.52V83.57C53.27 84.3232 53.5692 85.0456 54.1018 85.5782C54.6344 86.1108 55.3568 86.41 56.11 86.41H122.62C123.373 86.41 124.096 86.1108 124.628 85.5782C125.161 85.0456 125.46 84.3232 125.46 83.57V55.57C125.46 54.8168 125.161 54.0944 124.628 53.5618C124.096 53.0292 123.373 52.73 122.62 52.73L56.11 52.68Z" fill="#231F20"/>
<path d="M69.64 78.84C74.7707 78.84 78.93 74.6807 78.93 69.55C78.93 64.4193 74.7707 60.26 69.64 60.26C64.5093 60.26 60.35 64.4193 60.35 69.55C60.35 74.6807 64.5093 78.84 69.64 78.84Z" fill="#231F20"/>
<path d="M117.94 65.12H88.43C88.2974 65.12 88.1702 65.0673 88.0764 64.9735C87.9827 64.8798 87.93 64.7526 87.93 64.62C87.93 64.4874 87.9827 64.3602 88.0764 64.2664C88.1702 64.1727 88.2974 64.12 88.43 64.12H117.94C118.073 64.12 118.2 64.1727 118.294 64.2664C118.387 64.3602 118.44 64.4874 118.44 64.62C118.44 64.7526 118.387 64.8798 118.294 64.9735C118.2 65.0673 118.073 65.12 117.94 65.12Z" fill="#231F20"/>
<path d="M117.94 70.05H88.43C88.2974 70.05 88.1702 69.9974 88.0764 69.9036C87.9827 69.8098 87.93 69.6827 87.93 69.55C87.93 69.4174 87.9827 69.2903 88.0764 69.1965C88.1702 69.1027 88.2974 69.05 88.43 69.05H117.94C118.073 69.05 118.2 69.1027 118.294 69.1965C118.387 69.2903 118.44 69.4174 118.44 69.55C118.44 69.6827 118.387 69.8098 118.294 69.9036C118.2 69.9974 118.073 70.05 117.94 70.05Z" fill="#231F20"/>
<path d="M107.69 75H88.43C88.2974 75 88.1702 74.9473 88.0764 74.8536C87.9827 74.7598 87.93 74.6326 87.93 74.5C87.93 74.3674 87.9827 74.2402 88.0764 74.1464C88.1702 74.0527 88.2974 74 88.43 74H107.69C107.823 74 107.95 74.0527 108.044 74.1464C108.137 74.2402 108.19 74.3674 108.19 74.5C108.19 74.6326 108.137 74.7598 108.044 74.8536C107.95 74.9473 107.823 75 107.69 75Z" fill="#231F20"/>
<path d="M54 92.06C54 92.06 65.88 99.98 70.5 97.6C75.12 95.22 84.63 86.78 84.63 86.78C84.63 86.78 86.88 81.23 88.86 81.62C90.84 82.01 88.99 87.3 88.99 87.3C88.99 87.3 100.74 85.3 100.61 86.51C100.48 87.72 94.27 90.6 91.5 91.13C88.73 91.66 78.72 107.51 72 109.36C65.28 111.21 58.53 107.11 51.26 102.62" fill="white"/>
<path d="M68.54 110.32C62.75 110.32 57.01 106.77 50.99 103.05C50.9331 103.016 50.8836 102.971 50.8445 102.918C50.8054 102.864 50.7775 102.804 50.7626 102.739C50.7476 102.675 50.7459 102.608 50.7575 102.543C50.7691 102.478 50.7937 102.415 50.83 102.36C50.8628 102.303 50.9068 102.254 50.9593 102.215C51.0119 102.176 51.0718 102.148 51.1355 102.133C51.1992 102.118 51.2652 102.116 51.3296 102.128C51.394 102.139 51.4554 102.164 51.51 102.2C58.58 106.56 65.25 110.69 71.85 108.88C75.73 107.81 80.85 101.79 84.98 96.96C88.28 93.08 90.21 90.88 91.44 90.64C94.16 90.12 99.07 87.71 100 86.64C98.67 86.42 93.64 87 89.1 87.77C89.0152 87.7836 88.9283 87.7751 88.8477 87.7453C88.7672 87.7155 88.6956 87.6655 88.64 87.6C88.5826 87.5339 88.5439 87.4535 88.5281 87.3673C88.5123 87.2812 88.5198 87.1923 88.55 87.11C89.03 85.72 89.61 83.2 89.11 82.33C89.0816 82.266 89.0373 82.2104 88.9813 82.1684C88.9252 82.1264 88.8594 82.0994 88.79 82.09C87.72 81.87 85.97 84.85 85.13 86.93C85.0985 87.0007 85.0545 87.0651 85 87.12C84.6 87.47 75.39 95.64 70.76 98.02C65.94 100.5 54.24 92.77 53.76 92.44C53.663 92.3619 53.5986 92.2503 53.5796 92.1272C53.5605 92.0041 53.588 91.8783 53.6569 91.7745C53.7257 91.6706 53.8308 91.5962 53.9516 91.5658C54.0724 91.5354 54.2002 91.5511 54.31 91.61C57.55 93.77 66.74 98.97 70.31 97.13C74.6 94.93 83.31 87.3 84.25 86.45C84.75 85.25 86.8 80.67 89 81.1C89.2117 81.1401 89.4115 81.2275 89.5847 81.3556C89.7579 81.4837 89.8998 81.6493 90 81.84C90.67 83.01 90.13 85.39 89.76 86.65C93.89 85.97 100.06 85.13 100.95 85.97C101.024 86.044 101.082 86.1333 101.118 86.2318C101.154 86.3303 101.169 86.4355 101.16 86.54C100.97 88.2 94.07 91.13 91.64 91.59C90.7 91.77 88.19 94.72 85.76 97.59C81.55 102.52 76.32 108.67 72.14 109.82C70.9683 110.149 69.7571 110.318 68.54 110.32Z" fill="#231F20"/>
<path d="M49.48 119.84C50.48 126.75 50.69 129.47 60.54 186.02C60.54 186.02 37.54 191.43 28.66 193.02C22.66 180.65 19.95 169.52 15.86 156.43C13.21 147.94 11.2 136.57 15.01 128.54C15.62 127.26 21.5 114.79 21.5 114.79C21.5 114.79 49.52 120.09 49.48 119.84Z" fill="#231F20"/>
<path d="M29.4 88.42C29.75 80.87 28.23 65.56 28.23 65.56C28.23 65.56 37.85 66.11 41.08 61.49C45.08 64.59 45.86 73.33 45.08 75.95C43.65 81.11 36.95 79.95 36.95 79.95L37.8 89.39L29.4 88.42Z" fill="white"/>
<path d="M37.85 89.91L29.39 88.91C29.2645 88.895 29.1494 88.833 29.0678 88.7365C28.9861 88.64 28.9441 88.5162 28.95 88.39C29.3 80.97 27.8 65.76 27.78 65.61C27.7746 65.5373 27.7842 65.4642 27.8083 65.3954C27.8324 65.3265 27.8704 65.2634 27.92 65.21C27.9711 65.1594 28.0322 65.1199 28.0993 65.0941C28.1664 65.0683 28.2382 65.0566 28.31 65.06C28.4 65.06 37.69 65.54 40.72 61.2C40.7587 61.1438 40.8085 61.0961 40.8663 61.0599C40.9242 61.0237 40.9888 60.9997 41.0562 60.9894C41.1237 60.9791 41.1925 60.9827 41.2585 61C41.3245 61.0173 41.3863 61.0479 41.44 61.09C45.59 64.34 46.44 73.31 45.67 76.09C44.4 80.63 39.39 80.68 37.6 80.54L38.4 89.38C38.4092 89.4538 38.4004 89.5288 38.3743 89.5984C38.3481 89.6681 38.3055 89.7304 38.25 89.78C38.1968 89.8294 38.1334 89.8666 38.0643 89.8891C37.9953 89.9115 37.9221 89.9187 37.85 89.91ZM29.92 88L37.3 88.87L36.5 80C36.4904 79.9222 36.4999 79.8433 36.5278 79.7701C36.5557 79.6969 36.6011 79.6316 36.66 79.58C36.716 79.5289 36.783 79.4914 36.8559 79.4706C36.9288 79.4498 37.0055 79.4461 37.08 79.46C37.34 79.46 43.36 80.46 44.65 75.79C45.27 73.57 44.65 65.47 41.16 62.19C38.03 65.94 30.89 66.09 28.78 66.06C29.05 68.86 30.16 81.19 29.92 88Z" fill="#231F20"/>
<path d="M37 80C35.4857 79.8161 34.0505 79.2213 32.85 78.28C32.85 78.28 34.68 82.86 37.5 83.54L37 80Z" fill="#231F20"/>
<path d="M37.5 84H37.39C34.39 83.26 32.51 78.66 32.39 78.46C32.3515 78.3626 32.3474 78.2551 32.3783 78.1551C32.4092 78.0551 32.4733 77.9686 32.56 77.91C32.6493 77.8532 32.7552 77.8283 32.8604 77.8392C32.9657 77.8501 33.0642 77.8961 33.14 77.97C34.38 79.22 36.99 79.55 37.01 79.56C37.1109 79.5704 37.2053 79.6146 37.2779 79.6854C37.3505 79.7562 37.397 79.8494 37.41 79.95L37.91 83.49C37.9232 83.5631 37.9172 83.6383 37.8927 83.7084C37.8682 83.7785 37.8259 83.8411 37.77 83.89C37.6939 83.9543 37.5994 83.9929 37.5 84ZM34 79.58C34.6626 80.9041 35.6717 82.0238 36.92 82.82L36.57 80.37C35.6827 80.2194 34.8187 79.9538 34 79.58Z" fill="#231F20"/>
<path d="M44.25 84.53L66.25 96.53L60.94 111.9C60.94 111.9 33.33 97.29 33.14 93.33C32.95 89.37 44.25 84.53 44.25 84.53Z" fill="#55EFC4"/>
<path d="M49.82 122.55C51.186 114.802 51.2974 106.884 50.15 99.1C49.31 94.02 49.64 90.45 47.95 87.7C42.3 78.47 20.28 81.22 17.08 87.63C13.88 94.04 19.85 117.44 19.85 117.44L49.82 122.55Z" fill="#55EFC4"/>
<path d="M29.8 70.9301C29.6772 70.3364 29.3942 69.7877 28.9817 69.3435C28.5692 68.8992 28.0429 68.5764 27.46 68.4101C27.1968 68.329 26.9198 68.3031 26.6462 68.3341C26.3726 68.3651 26.1084 68.4522 25.87 68.59C25.5862 68.8318 25.3704 69.1435 25.2441 69.4943C25.1178 69.8451 25.0854 70.2228 25.15 70.59C25.2346 71.7379 25.7531 72.8106 26.6 73.59C27.4443 74.3655 28.5537 74.7878 29.7 74.77" fill="white"/>
<path d="M29.64 75.21C28.3892 75.2115 27.1832 74.7441 26.26 73.9001C25.3254 73.0349 24.7507 71.8497 24.65 70.5801C24.5825 70.1327 24.6339 69.6755 24.7988 69.2543C24.9638 68.833 25.2367 68.4626 25.59 68.18C25.8858 67.9971 26.2176 67.8801 26.5628 67.8369C26.9079 67.7938 27.2583 67.8255 27.59 67.93C28.2622 68.1203 28.8694 68.4913 29.3454 69.0026C29.8215 69.5139 30.1482 70.146 30.29 70.8301C30.3136 70.9612 30.285 71.0963 30.2102 71.2065C30.1355 71.3168 30.0205 71.3934 29.89 71.42C29.7601 71.4434 29.6263 71.4145 29.5176 71.3396C29.409 71.2646 29.3343 71.1498 29.31 71.02C29.2003 70.5185 28.9562 70.0562 28.6039 69.6828C28.2516 69.3093 27.8043 69.0388 27.31 68.9001C27.1192 68.8323 26.916 68.8062 26.7142 68.8234C26.5124 68.8407 26.3166 68.9009 26.14 69C25.9417 69.1914 25.7919 69.4273 25.7032 69.6882C25.6145 69.9491 25.5894 70.2275 25.63 70.5C25.7019 71.5175 26.1598 72.469 26.91 73.1601C27.6669 73.8365 28.6556 74.1947 29.67 74.1601C29.8018 74.1626 29.9275 74.2161 30.0207 74.3093C30.114 74.4025 30.1675 74.5282 30.17 74.6601C30.17 74.7927 30.1173 74.9198 30.0236 75.0136C29.9298 75.1074 29.8026 75.1601 29.67 75.1601L29.64 75.21Z" fill="#231F20"/>
<path d="M41.6437 67.2312C41.8862 67.1555 41.9681 66.7266 41.8266 66.2732C41.6851 65.8198 41.3738 65.5136 41.1313 65.5893C40.8888 65.665 40.8069 66.0939 40.9484 66.5473C41.0899 67.0007 41.4011 67.3069 41.6437 67.2312Z" fill="#231F20"/>
<path d="M43.43 76.32C42.8322 76.7038 42.1774 76.9907 41.49 77.17C41.0422 77.3391 40.5571 77.3847 40.0856 77.302C39.6141 77.2193 39.1736 77.0114 38.81 76.7C38.5505 76.3812 38.3567 76.0141 38.24 75.62" fill="white"/>
<path d="M40.43 77.82C40.0602 77.8412 39.6901 77.7825 39.345 77.6479C38.9999 77.5133 38.6878 77.306 38.43 77.04C38.1249 76.6726 37.897 76.2475 37.76 75.79C37.7361 75.729 37.7246 75.6639 37.7263 75.5984C37.728 75.5329 37.7428 75.4684 37.7698 75.4087C37.7969 75.3491 37.8356 75.2954 37.8837 75.251C37.9318 75.2065 37.9884 75.1722 38.05 75.15C38.1117 75.1259 38.1775 75.1143 38.2437 75.1159C38.3099 75.1174 38.3752 75.1321 38.4356 75.1591C38.4961 75.1861 38.5506 75.2248 38.596 75.273C38.6414 75.3212 38.6767 75.378 38.7 75.44C38.7953 75.7774 38.9549 76.0932 39.17 76.37C39.78 77.04 41 76.79 41.36 76.69C41.993 76.5182 42.5965 76.2519 43.15 75.9C43.2615 75.8286 43.3967 75.8043 43.526 75.8324C43.6554 75.8605 43.7683 75.9387 43.84 76.05C43.8767 76.1048 43.902 76.1664 43.9143 76.2311C43.9267 76.2959 43.9258 76.3625 43.9118 76.4269C43.8978 76.4913 43.8709 76.5523 43.8328 76.6061C43.7947 76.6598 43.7461 76.7054 43.69 76.74C43.0478 77.1512 42.3463 77.4614 41.61 77.66C41.225 77.763 40.8285 77.8168 40.43 77.82Z" fill="#231F20"/>
<path d="M43.49 67.29C43.49 67.29 47.35 71.69 46.4 72.64C45.45 73.59 43.22 73.12 43.22 73.12" fill="white"/>
<path d="M44.45 73.74C44.0004 73.7368 43.5519 73.6933 43.11 73.61C43.0455 73.5958 42.9845 73.569 42.9304 73.5311C42.8763 73.4932 42.8303 73.445 42.795 73.3892C42.7596 73.3334 42.7357 73.2712 42.7246 73.2061C42.7134 73.141 42.7153 73.0744 42.73 73.01C42.743 72.9459 42.7687 72.8851 42.8056 72.8311C42.8425 72.7771 42.8899 72.731 42.9449 72.6956C42.9999 72.6602 43.0614 72.6361 43.1258 72.6249C43.1902 72.6136 43.2563 72.6153 43.32 72.63C43.87 72.74 45.43 72.91 46.05 72.29C46.26 71.85 44.86 69.62 43.11 67.62C43.0178 67.5249 42.9662 67.3975 42.9662 67.265C42.9662 67.1325 43.0178 67.0052 43.11 66.91C43.1556 66.8634 43.2101 66.8265 43.2702 66.8012C43.3303 66.7759 43.3948 66.7629 43.46 66.7629C43.5252 66.7629 43.5897 66.7759 43.6498 66.8012C43.7099 66.8265 43.7644 66.8634 43.81 66.91C45.37 68.68 47.81 71.83 46.71 72.91C46.0876 73.4606 45.2808 73.7568 44.45 73.74Z" fill="#231F20"/>
<path d="M60.9 112.44C60.8164 112.439 60.7342 112.419 60.66 112.38C60.51 112.3 45.33 104.19 39.79 101.18C39.7325 101.15 39.6815 101.108 39.6402 101.058C39.5989 101.007 39.5681 100.949 39.5495 100.887C39.5308 100.825 39.5248 100.759 39.5318 100.694C39.5388 100.63 39.5585 100.567 39.59 100.51C39.6205 100.451 39.6624 100.399 39.7133 100.357C39.7641 100.314 39.8229 100.282 39.8861 100.263C39.9494 100.243 40.0159 100.237 40.0818 100.243C40.1477 100.249 40.2117 100.269 40.27 100.3C45.8 103.3 60.98 111.41 61.13 111.5C61.1884 111.53 61.2403 111.57 61.2826 111.62C61.3249 111.67 61.3568 111.728 61.3764 111.791C61.396 111.853 61.4028 111.919 61.3966 111.984C61.3903 112.049 61.3711 112.112 61.34 112.17C61.2982 112.251 61.2351 112.319 61.1575 112.366C61.08 112.414 60.991 112.439 60.9 112.44Z" fill="#231F20"/>
<path d="M250 119.33L251.85 119.28C252.649 119.247 253.439 119.448 254.125 119.858C254.811 120.269 255.362 120.871 255.71 121.59L291.8 221.3C292.28 222.62 291.32 223.73 289.66 223.78L287.82 223.83C287.021 223.86 286.23 223.658 285.543 223.248C284.856 222.838 284.303 222.238 283.95 221.52L247.89 121.8C247.42 120.48 248.37 119.37 250 119.33Z" fill="white"/>
<path d="M287.74 224.33C286.855 224.346 285.985 224.105 285.234 223.636C284.484 223.168 283.885 222.492 283.51 221.69L247.42 122C247.292 121.674 247.244 121.322 247.281 120.974C247.317 120.626 247.437 120.292 247.63 120C247.911 119.636 248.274 119.344 248.689 119.148C249.105 118.952 249.561 118.856 250.02 118.87L251.86 118.82C252.762 118.789 253.654 119.021 254.426 119.488C255.199 119.955 255.818 120.637 256.21 121.45L292.3 221.17C292.429 221.496 292.477 221.848 292.441 222.196C292.404 222.544 292.284 222.878 292.09 223.17C291.811 223.533 291.449 223.824 291.036 224.021C290.622 224.217 290.168 224.313 289.71 224.3L287.86 224.35L287.74 224.33ZM250.05 119.83C249.749 119.813 249.449 119.867 249.173 119.986C248.897 120.106 248.653 120.289 248.46 120.52C248.354 120.683 248.289 120.869 248.272 121.063C248.255 121.256 248.285 121.451 248.36 121.63L284.45 221.35C284.767 221.969 285.253 222.485 285.851 222.839C286.449 223.193 287.135 223.37 287.83 223.35L289.68 223.3C289.981 223.31 290.28 223.253 290.555 223.132C290.83 223.01 291.075 222.829 291.27 222.6C291.374 222.436 291.437 222.25 291.453 222.056C291.469 221.863 291.437 221.668 291.36 221.49L255.27 121.77C254.959 121.147 254.474 120.627 253.875 120.272C253.275 119.917 252.586 119.743 251.89 119.77L250.05 119.82V119.83Z" fill="#D1D3D4"/>
<path d="M252 127.16L218.48 127.73C217.875 127.751 217.277 127.597 216.757 127.286C216.238 126.976 215.819 126.522 215.55 125.98C215.19 124.98 215.92 124.14 217.17 124.11L250.69 123.54C251.295 123.517 251.894 123.67 252.414 123.981C252.935 124.291 253.353 124.746 253.62 125.29C254 126.29 253.28 127.13 252 127.16Z" fill="white"/>
<path d="M218.42 128.23C217.725 128.24 217.042 128.049 216.453 127.68C215.864 127.311 215.394 126.779 215.1 126.15C214.994 125.883 214.955 125.593 214.986 125.308C215.017 125.022 215.118 124.748 215.28 124.51C215.502 124.22 215.791 123.987 216.121 123.83C216.452 123.674 216.815 123.598 217.18 123.61L250.7 123C251.411 122.967 252.116 123.148 252.723 123.518C253.331 123.889 253.814 124.433 254.11 125.08C254.216 125.345 254.256 125.632 254.226 125.916C254.197 126.2 254.098 126.472 253.94 126.71C253.719 127.003 253.431 127.238 253.101 127.396C252.77 127.555 252.406 127.631 252.04 127.62L218.52 128.19L218.42 128.23ZM250.79 124H250.73L217.2 124.57C216.993 124.557 216.785 124.593 216.594 124.674C216.403 124.756 216.234 124.881 216.1 125.04C216.033 125.148 215.992 125.271 215.982 125.398C215.971 125.525 215.991 125.652 216.04 125.77C216.269 126.217 216.622 126.588 217.057 126.839C217.491 127.091 217.988 127.213 218.49 127.19L252.01 126.62C252.217 126.633 252.425 126.597 252.616 126.516C252.807 126.434 252.976 126.309 253.11 126.15C253.18 126.043 253.222 125.92 253.232 125.793C253.243 125.665 253.221 125.537 253.17 125.42C252.945 124.985 252.603 124.622 252.182 124.371C251.762 124.12 251.28 123.992 250.79 124Z" fill="#D1D3D4"/>
<path d="M257.06 141.07L223.54 141.64C222.935 141.663 222.336 141.51 221.815 141.199C221.295 140.889 220.877 140.434 220.61 139.89C220.25 138.89 220.97 138.05 222.23 138.02L255.75 137.45C256.355 137.429 256.953 137.583 257.473 137.894C257.992 138.204 258.411 138.658 258.68 139.2C259 140.2 258.31 141 257.06 141.07Z" fill="white"/>
<path d="M223.45 142.14C222.757 142.149 222.075 141.957 221.488 141.588C220.901 141.219 220.433 140.689 220.14 140.06C220.034 139.795 219.994 139.508 220.024 139.224C220.053 138.94 220.152 138.667 220.31 138.43C220.532 138.136 220.822 137.901 221.154 137.742C221.487 137.584 221.852 137.508 222.22 137.52L255.74 136.95C256.45 136.925 257.151 137.109 257.757 137.479C258.363 137.848 258.847 138.388 259.15 139.03C259.255 139.297 259.295 139.585 259.265 139.871C259.235 140.156 259.138 140.43 258.98 140.67C258.755 140.96 258.465 141.192 258.133 141.349C257.801 141.505 257.437 141.581 257.07 141.57L223.55 142.14H223.45ZM255.83 138H255.76L222.24 138.57C222.033 138.556 221.825 138.592 221.634 138.673C221.443 138.755 221.273 138.881 221.14 139.04C221.07 139.147 221.028 139.27 221.018 139.397C221.007 139.525 221.029 139.653 221.08 139.77C221.308 140.217 221.661 140.589 222.096 140.841C222.53 141.093 223.028 141.214 223.53 141.19L257.05 140.62C257.257 140.634 257.465 140.598 257.656 140.517C257.847 140.435 258.017 140.309 258.15 140.15C258.217 140.042 258.258 139.919 258.268 139.792C258.279 139.665 258.259 139.538 258.21 139.42C257.983 138.987 257.64 138.625 257.22 138.374C256.8 138.123 256.319 137.994 255.83 138Z" fill="#D1D3D4"/>
<path d="M262.09 155L228.57 155.56C227.966 155.584 227.367 155.432 226.847 155.124C226.327 154.815 225.908 154.362 225.64 153.82C225.28 152.82 226.01 151.98 227.26 151.94L260.78 151.38C261.386 151.354 261.986 151.506 262.507 151.817C263.027 152.128 263.445 152.584 263.71 153.13C264.07 154.12 263.35 155 262.09 155Z" fill="white"/>
<path d="M228.49 156.06C227.795 156.07 227.112 155.878 226.523 155.509C225.934 155.141 225.464 154.609 225.17 153.98C225.063 153.713 225.023 153.423 225.055 153.137C225.086 152.851 225.187 152.577 225.35 152.34C225.573 152.05 225.861 151.816 226.191 151.658C226.521 151.5 226.884 151.422 227.25 151.43L260.77 150.87C261.481 150.839 262.185 151.02 262.792 151.39C263.399 151.761 263.883 152.304 264.18 152.95C264.286 153.215 264.326 153.502 264.296 153.786C264.267 154.07 264.168 154.342 264.01 154.58C263.788 154.871 263.499 155.105 263.169 155.263C262.839 155.421 262.476 155.499 262.11 155.49L228.59 156.05L228.49 156.06ZM260.86 151.87H260.8L227.27 152.43C227.063 152.421 226.857 152.459 226.667 152.541C226.477 152.622 226.307 152.745 226.17 152.9C226.102 153.01 226.061 153.135 226.053 153.264C226.044 153.393 226.067 153.522 226.12 153.64C226.346 154.086 226.697 154.457 227.13 154.708C227.564 154.958 228.06 155.077 228.56 155.05L262.08 154.49C262.287 154.501 262.494 154.464 262.684 154.382C262.875 154.301 263.045 154.177 263.18 154.02C263.25 153.913 263.292 153.79 263.302 153.663C263.313 153.535 263.291 153.407 263.24 153.29C263.015 152.855 262.673 152.492 262.252 152.241C261.832 151.99 261.35 151.862 260.86 151.87Z" fill="#D1D3D4"/>
<path d="M267.13 168.9L233.61 169.47C233.005 169.493 232.406 169.34 231.885 169.029C231.365 168.719 230.947 168.264 230.68 167.72C230.32 166.72 231.04 165.88 232.3 165.85L265.82 165.28C266.425 165.258 267.024 165.412 267.544 165.722C268.063 166.033 268.482 166.487 268.75 167.03C269.11 168 268.38 168.87 267.13 168.9Z" fill="white"/>
<path d="M233.52 170C232.827 170.009 232.145 169.817 231.558 169.448C230.971 169.079 230.503 168.549 230.21 167.92C230.105 167.653 230.065 167.365 230.095 167.079C230.125 166.794 230.222 166.52 230.38 166.28C230.604 165.99 230.895 165.757 231.227 165.6C231.559 165.444 231.923 165.368 232.29 165.38L265.81 164.81C266.52 164.78 267.224 164.962 267.831 165.332C268.438 165.702 268.922 166.245 269.22 166.89C269.326 167.155 269.366 167.442 269.336 167.726C269.307 168.01 269.208 168.282 269.05 168.52C268.827 168.813 268.538 169.048 268.205 169.206C267.873 169.365 267.508 169.441 267.14 169.43L233.62 170H233.52ZM265.9 165.81H265.83L232.31 166.38C232.103 166.366 231.895 166.402 231.704 166.483C231.513 166.565 231.343 166.691 231.21 166.85C231.14 166.957 231.098 167.08 231.088 167.207C231.077 167.335 231.099 167.463 231.15 167.58C231.379 168.027 231.732 168.398 232.167 168.649C232.601 168.901 233.098 169.023 233.6 169L267.12 168.43C267.327 168.444 267.535 168.408 267.726 168.327C267.917 168.245 268.087 168.119 268.22 167.96C268.287 167.852 268.328 167.729 268.338 167.602C268.349 167.475 268.329 167.348 268.28 167.23C268.058 166.79 267.718 166.422 267.297 166.165C266.876 165.909 266.392 165.776 265.9 165.78V165.81Z" fill="#D1D3D4"/>
<path d="M272.16 182.82L238.64 183.38C238.036 183.404 237.438 183.251 236.919 182.94C236.401 182.629 235.984 182.174 235.72 181.63C235.35 180.63 236.08 179.8 237.33 179.76L270.85 179.2C271.455 179.173 272.054 179.324 272.575 179.633C273.095 179.942 273.514 180.396 273.78 180.94C274.14 181.94 273.42 182.78 272.16 182.82Z" fill="white"/>
<path d="M238.56 183.88C237.866 183.89 237.184 183.699 236.597 183.33C236.01 182.961 235.542 182.429 235.25 181.8C235.14 181.536 235.097 181.248 235.127 180.963C235.157 180.678 235.257 180.406 235.42 180.17C235.641 179.878 235.929 179.643 236.26 179.485C236.59 179.326 236.954 179.249 237.32 179.26L270.84 178.7C271.55 178.668 272.253 178.847 272.86 179.216C273.467 179.585 273.951 180.126 274.25 180.77C274.356 181.037 274.396 181.325 274.366 181.611C274.337 181.896 274.238 182.171 274.08 182.41C273.856 182.699 273.568 182.932 273.238 183.09C272.908 183.248 272.546 183.327 272.18 183.32L238.66 183.88H238.56ZM270.93 179.69H270.87L237.34 180.25C237.133 180.241 236.927 180.279 236.737 180.361C236.547 180.442 236.377 180.565 236.24 180.72C236.174 180.829 236.135 180.952 236.127 181.079C236.118 181.206 236.14 181.333 236.19 181.45C236.417 181.897 236.768 182.268 237.2 182.52C237.633 182.772 238.13 182.893 238.63 182.87L272.15 182.31C272.357 182.321 272.564 182.284 272.754 182.202C272.945 182.121 273.115 181.997 273.25 181.84C273.32 181.731 273.362 181.607 273.372 181.477C273.383 181.348 273.361 181.219 273.31 181.1C273.083 180.667 272.741 180.306 272.32 180.057C271.9 179.808 271.419 179.681 270.93 179.69Z" fill="#D1D3D4"/>
<path d="M277.2 196.73L243.68 197.3C243.075 197.323 242.476 197.17 241.955 196.859C241.435 196.549 241.017 196.094 240.75 195.55C240.39 194.55 241.11 193.71 242.37 193.68L275.89 193.11C276.495 193.088 277.094 193.242 277.613 193.552C278.133 193.863 278.552 194.317 278.82 194.86C279.18 195.86 278.45 196.7 277.2 196.73Z" fill="white"/>
<path d="M243.59 197.8C242.897 197.809 242.215 197.617 241.628 197.248C241.041 196.879 240.573 196.349 240.28 195.72C240.174 195.453 240.134 195.165 240.164 194.879C240.193 194.594 240.292 194.319 240.45 194.08C240.674 193.79 240.965 193.557 241.297 193.4C241.629 193.244 241.993 193.168 242.36 193.18L275.88 192.61C276.59 192.583 277.292 192.765 277.899 193.135C278.505 193.505 278.989 194.046 279.29 194.69C279.396 194.955 279.436 195.242 279.406 195.526C279.377 195.81 279.278 196.082 279.12 196.32C278.897 196.613 278.608 196.848 278.275 197.006C277.943 197.165 277.578 197.241 277.21 197.23L243.69 197.8H243.59ZM276 193.61H275.93L242.41 194.18C242.203 194.166 241.995 194.202 241.804 194.283C241.613 194.365 241.443 194.491 241.31 194.65C241.24 194.757 241.198 194.88 241.188 195.007C241.177 195.135 241.199 195.263 241.25 195.38C241.478 195.827 241.831 196.199 242.266 196.451C242.7 196.703 243.198 196.824 243.7 196.8L277.22 196.23C277.427 196.242 277.634 196.206 277.825 196.125C278.016 196.043 278.186 195.918 278.32 195.76C278.387 195.652 278.428 195.529 278.438 195.402C278.449 195.275 278.429 195.148 278.38 195.03C278.154 194.596 277.812 194.233 277.391 193.983C276.971 193.732 276.489 193.603 276 193.61Z" fill="#D1D3D4"/>
<path d="M282.23 210.64L248.72 211.21C248.115 211.233 247.516 211.08 246.996 210.769C246.475 210.459 246.057 210.004 245.79 209.46C245.42 208.46 246.15 207.62 247.4 207.59L280.92 207.02C281.525 206.997 282.124 207.15 282.644 207.461C283.165 207.771 283.583 208.226 283.85 208.77C284.21 209.77 283.49 210.61 282.23 210.64Z" fill="white"/>
<path d="M248.63 211.71C247.936 211.72 247.254 211.529 246.667 211.16C246.08 210.791 245.612 210.259 245.32 209.63C245.211 209.365 245.17 209.078 245.2 208.794C245.229 208.509 245.329 208.236 245.49 208C245.71 207.707 245.998 207.471 246.329 207.312C246.659 207.154 247.023 207.078 247.39 207.09L280.91 206.52C281.62 206.491 282.323 206.674 282.93 207.044C283.537 207.414 284.02 207.955 284.32 208.6C284.426 208.867 284.466 209.155 284.436 209.441C284.407 209.726 284.308 210.001 284.15 210.24C283.927 210.53 283.639 210.762 283.308 210.919C282.978 211.075 282.615 211.151 282.25 211.14L248.73 211.71H248.63ZM281 207.52H280.94L247.41 208.09C247.203 208.077 246.995 208.113 246.804 208.194C246.613 208.276 246.444 208.401 246.31 208.56C246.244 208.669 246.205 208.792 246.197 208.919C246.188 209.046 246.21 209.173 246.26 209.29C246.486 209.737 246.836 210.11 247.27 210.362C247.703 210.614 248.2 210.735 248.7 210.71L282.22 210.14C282.428 210.155 282.636 210.121 282.827 210.039C283.019 209.957 283.188 209.831 283.32 209.67C283.39 209.563 283.432 209.44 283.442 209.313C283.453 209.185 283.431 209.057 283.38 208.94C283.155 208.505 282.813 208.142 282.392 207.891C281.972 207.64 281.49 207.512 281 207.52Z" fill="#D1D3D4"/>
<path d="M213.91 120L215.75 119.94C216.549 119.91 217.34 120.112 218.027 120.522C218.714 120.932 219.267 121.532 219.62 122.25L255.71 221.97C256.18 223.29 255.23 224.4 253.57 224.44H251.72C250.923 224.474 250.133 224.274 249.447 223.866C248.761 223.457 248.21 222.858 247.86 222.14L211.77 122.42C211.29 121.12 212.25 120 213.91 120Z" fill="white"/>
<path d="M251.62 225C250.736 225.017 249.867 224.777 249.116 224.31C248.366 223.844 247.766 223.17 247.39 222.37L211.3 122.61C211.171 122.284 211.123 121.932 211.159 121.584C211.196 121.236 211.316 120.902 211.51 120.61C211.79 120.248 212.151 119.958 212.565 119.764C212.979 119.569 213.433 119.475 213.89 119.49L215.74 119.44C216.644 119.398 217.54 119.626 218.314 120.094C219.089 120.563 219.707 121.25 220.09 122.07L256.18 221.79C256.308 222.116 256.356 222.468 256.319 222.816C256.283 223.164 256.163 223.498 255.97 223.79C255.689 224.154 255.326 224.446 254.911 224.642C254.495 224.838 254.039 224.934 253.58 224.92H251.74L251.62 225ZM213.92 120.51C213.621 120.493 213.322 120.547 213.048 120.667C212.773 120.786 212.531 120.969 212.34 121.2C212.231 121.362 212.165 121.548 212.148 121.742C212.13 121.936 212.162 122.131 212.24 122.31L248.33 222C248.642 222.622 249.127 223.142 249.726 223.497C250.325 223.851 251.014 224.026 251.71 224H253.55C253.851 224.018 254.151 223.965 254.427 223.845C254.703 223.725 254.948 223.542 255.14 223.31C255.246 223.147 255.311 222.961 255.328 222.767C255.345 222.574 255.315 222.379 255.24 222.2L219.15 122.48C218.84 121.856 218.356 121.335 217.756 120.98C217.156 120.625 216.466 120.452 215.77 120.48L213.92 120.51Z" fill="#D1D3D4"/>
<path d="M239.11 61.37C231.92 65.54 223.6 68.8 215.16 67.16C208 65.78 201.54 61 199 54.08C198.49 52.72 198.17 51.29 197.63 49.93C197.41 49.39 197.07 48.79 196.49 48.74C195.55 48.66 195.23 49.96 195.34 50.89C195.43 51.64 195.52 52.33 195.54 53.07C195.54 53.58 195.54 54.91 195.99 55.29L189.59 49.09C189.295 48.7528 188.915 48.5008 188.49 48.36C188.277 48.2965 188.047 48.3184 187.849 48.421C187.651 48.5236 187.501 48.6989 187.43 48.91C187.415 49.0944 187.441 49.28 187.507 49.453C187.572 49.6261 187.676 49.7822 187.81 49.91L190.36 53.2C189.23 52.228 188.052 51.3135 186.83 50.46C185.19 49.33 184.68 50.99 185.65 52.24L188.24 55.57C187.385 54.6924 186.462 53.8832 185.48 53.15C185.19 52.93 184.8 52.72 184.48 52.92C184.388 52.9997 184.323 53.1056 184.292 53.2235C184.262 53.3414 184.268 53.4657 184.31 53.58C184.396 53.8104 184.533 54.0188 184.71 54.19L187.12 56.94C186.7 56.52 184.62 54.56 184.06 55.63C183.74 56.24 184.93 57.21 185.29 57.57C187.64 59.87 190.02 62.07 192.45 64.24C198.98 70.08 206.45 75.49 215.26 77.48C224.91 79.67 235.51 77.18 243.64 71.61" fill="white"/>
<path d="M222.43 78.72C219.971 78.7265 217.519 78.4582 215.12 77.92C205.38 75.71 197.31 69.24 192.12 64.57C189.43 62.16 187.12 59.97 184.96 57.88L184.79 57.73C184.18 57.16 183.17 56.22 183.63 55.35C183.7 55.1981 183.808 55.0664 183.942 54.9668C184.077 54.8672 184.234 54.803 184.4 54.78H184.6L184.34 54.49C184.122 54.2631 183.952 53.9944 183.84 53.7C183.767 53.4834 183.764 53.2495 183.83 53.0309C183.897 52.8123 184.029 52.6197 184.21 52.48C184.344 52.3871 184.499 52.3286 184.661 52.3094C184.823 52.2902 184.988 52.311 185.14 52.37C184.847 52.0333 184.675 51.6082 184.651 51.1624C184.628 50.7166 184.754 50.2757 185.01 49.91C185.19 49.72 185.87 49.17 187.1 50.02L187.48 50.29L187.4 50.19C187.232 50.01 187.104 49.797 187.023 49.5645C186.942 49.3321 186.91 49.0853 186.93 48.84C186.961 48.6863 187.024 48.5406 187.113 48.4117C187.203 48.2828 187.317 48.1733 187.45 48.09C187.617 47.9812 187.804 47.9074 187.999 47.8731C188.195 47.8387 188.396 47.8444 188.59 47.89C189.102 48.0523 189.562 48.3494 189.92 48.75L195.06 53.75V53.14C195.04 52.5512 194.99 51.9637 194.91 51.38L194.86 51C194.799 50.5953 194.822 50.1825 194.927 49.7869C195.032 49.3914 195.217 49.0215 195.47 48.7C195.607 48.5542 195.776 48.4416 195.963 48.3706C196.15 48.2995 196.351 48.272 196.55 48.29C197.21 48.35 197.74 48.86 198.11 49.8C198.41 50.54 198.64 51.31 198.87 52.05C199.1 52.79 199.26 53.33 199.49 53.96C201.9 60.4 207.97 65.29 215.33 66.72C222.24 68.07 229.96 66.19 238.93 60.99C238.987 60.9488 239.051 60.92 239.12 60.9054C239.188 60.8908 239.259 60.8907 239.327 60.9051C239.396 60.9195 239.46 60.9482 239.517 60.9891C239.574 61.0301 239.621 61.0826 239.656 61.143C239.692 61.2035 239.714 61.2707 239.721 61.3403C239.729 61.4098 239.722 61.4802 239.7 61.5468C239.679 61.6134 239.644 61.6749 239.597 61.7271C239.551 61.7793 239.494 61.8212 239.43 61.85C230.24 67.18 222.3 69.09 215.14 67.7C207.44 66.21 201.08 61.07 198.55 54.31C198.31 53.66 198.11 53 197.91 52.31C197.71 51.62 197.46 50.84 197.18 50.14C197.03 49.75 196.78 49.29 196.46 49.26C196.408 49.2548 196.355 49.2621 196.307 49.2812C196.258 49.3003 196.215 49.3308 196.18 49.37C195.888 49.8079 195.773 50.3407 195.86 50.86V51.23C195.93 51.85 196 52.44 196.02 53.07C196.02 54.58 196.26 54.89 196.31 54.95C196.358 54.9949 196.396 55.0491 196.422 55.1093C196.448 55.1695 196.462 55.2344 196.462 55.3C196.462 55.3656 196.448 55.4305 196.422 55.4907C196.396 55.5509 196.358 55.6051 196.31 55.65C196.264 55.6965 196.21 55.7335 196.15 55.7588C196.09 55.784 196.025 55.7971 195.96 55.7971C195.895 55.7971 195.83 55.784 195.77 55.7588C195.71 55.7335 195.656 55.6965 195.61 55.65L189.21 49.46C188.976 49.1911 188.681 48.982 188.35 48.85C188.219 48.8275 188.084 48.8523 187.97 48.92C187.951 48.9302 187.933 48.9444 187.92 48.9616C187.906 48.9788 187.896 48.9987 187.89 49.02C187.89 49.16 188.07 49.43 188.17 49.56L190.73 52.86C190.8 52.9583 190.832 53.0785 190.82 53.1986C190.808 53.3186 190.753 53.4303 190.666 53.5131C190.578 53.5959 190.463 53.6443 190.343 53.6492C190.222 53.6541 190.104 53.6153 190.01 53.54C188.892 52.5756 187.724 51.671 186.51 50.83C186.1 50.55 185.81 50.5 185.72 50.59C185.63 50.68 185.56 51.31 186.01 51.89L188.6 55.22C188.681 55.3205 188.72 55.4484 188.709 55.5771C188.698 55.7057 188.637 55.825 188.54 55.91C188.446 55.9964 188.323 56.0444 188.195 56.0444C188.067 56.0444 187.944 55.9964 187.85 55.91C187.012 55.0515 186.11 54.2592 185.15 53.54C185.037 53.4371 184.899 53.3648 184.75 53.33C184.75 53.33 184.75 53.33 184.75 53.43C184.821 53.586 184.919 53.7282 185.04 53.85L187.46 56.6C187.549 56.693 187.598 56.8165 187.598 56.945C187.598 57.0735 187.549 57.197 187.46 57.29C187.365 57.3793 187.24 57.429 187.11 57.429C186.98 57.429 186.855 57.3793 186.76 57.29C185.76 56.29 184.84 55.77 184.54 55.82C184.48 55.95 184.54 56.24 185.45 57.04L185.63 57.22C187.75 59.3 190.09 61.47 192.77 63.87C197.91 68.47 205.85 74.87 215.36 76.99C224.55 79.08 235.01 76.91 243.36 71.2C243.414 71.1584 243.475 71.1282 243.541 71.1112C243.607 71.0941 243.675 71.0906 243.742 71.1009C243.809 71.1112 243.873 71.135 243.931 71.1709C243.989 71.2068 244.038 71.2541 244.077 71.3098C244.116 71.3655 244.143 71.4285 244.156 71.495C244.17 71.5614 244.17 71.63 244.156 71.6964C244.142 71.7629 244.115 71.8258 244.076 71.8814C244.037 71.9371 243.988 71.9842 243.93 72.02C237.593 76.3501 230.105 78.6837 222.43 78.72Z" fill="#231F20"/>
<path d="M272.5 171.17L273.4 177.76C273.4 177.76 255.06 179.66 255.77 178.08C257.114 175.79 258.59 173.579 260.19 171.46" fill="white"/>
<path d="M259.64 179.2C257.37 179.2 255.71 179.03 255.38 178.56C255.307 178.462 255.263 178.346 255.25 178.225C255.238 178.103 255.259 177.981 255.31 177.87C256.67 175.547 258.166 173.307 259.79 171.16C259.871 171.056 259.989 170.988 260.12 170.969C260.25 170.95 260.383 170.983 260.49 171.06C260.596 171.14 260.666 171.258 260.685 171.389C260.704 171.521 260.67 171.654 260.59 171.76C260.59 171.81 257.26 176.27 256.35 178.02C257.87 178.48 265.61 178.02 272.84 177.32L272 171.23C271.983 171.097 272.019 170.963 272.1 170.857C272.182 170.751 272.302 170.682 272.435 170.665C272.568 170.648 272.702 170.684 272.808 170.765C272.914 170.847 272.983 170.967 273 171.1L273.91 177.69C273.919 177.757 273.915 177.825 273.898 177.89C273.881 177.955 273.851 178.016 273.81 178.07C273.722 178.176 273.597 178.245 273.46 178.26C269.42 178.68 263.59 179.2 259.64 179.2Z" fill="#231F20"/>
<path d="M246.8 145.89C246.8 145.89 250.63 150.7 249.93 151.58C249.23 152.46 228.93 153.46 229.8 151.35C230.67 149.24 236.11 144.75 236.11 144.75" fill="white"/>
<path d="M237.79 153.11C234.12 153.11 230.79 152.88 229.79 152.28C229.58 152.19 229.415 152.02 229.329 151.809C229.243 151.598 229.243 151.361 229.33 151.15C230.24 148.95 235.55 144.55 235.78 144.36C235.882 144.277 236.013 144.238 236.144 144.251C236.275 144.264 236.396 144.328 236.48 144.43C236.523 144.481 236.555 144.54 236.574 144.603C236.594 144.667 236.6 144.734 236.594 144.8C236.587 144.866 236.568 144.93 236.536 144.988C236.505 145.047 236.462 145.098 236.41 145.14C234.96 146.33 231.1 149.75 230.3 151.43C231.86 152.57 247.65 152.02 249.51 151.25C249.51 150.62 248.13 148.38 246.4 146.2C246.358 146.15 246.326 146.092 246.306 146.029C246.287 145.966 246.28 145.9 246.287 145.835C246.293 145.77 246.313 145.707 246.344 145.649C246.376 145.591 246.419 145.541 246.47 145.5C246.575 145.418 246.709 145.38 246.841 145.395C246.974 145.41 247.096 145.476 247.18 145.58C249.04 147.92 251.09 150.91 250.31 151.89C249.78 152.57 243.36 153.11 237.79 153.11Z" fill="#231F20"/>
<path d="M239.68 94.39C239.68 94.39 216.77 108.61 217.06 116.3C217.25 121.52 233.28 147.74 233.28 147.74L248.65 146.89C248.65 146.89 234.65 125.5 237.74 122.37C240.83 119.24 258 110.61 258 110.61L258.31 172.1C258.31 172.1 274 171 274 170.11C274 169.22 277.39 97 277.39 97L239.68 94.39Z" fill="#231F20"/>
<path d="M272.91 28.3C272.839 27.3451 272.44 26.4442 271.78 25.75C271.437 25.4239 270.99 25.2298 270.517 25.2024C270.045 25.1749 269.578 25.3158 269.2 25.6C269.32 23.9 267.78 22.6 266.28 21.75C264.409 20.7216 262.382 20.0055 260.28 19.63C258.891 19.4041 257.487 19.2871 256.08 19.28C253.97 19.28 251.72 19.41 250.08 20.7C249.134 21.5412 248.445 22.632 248.091 23.8472C247.738 25.0624 247.734 26.3527 248.08 27.57C248.799 30.0078 250.185 32.1965 252.08 33.89C254.22 36.1375 256.877 37.8267 259.82 38.81C261.571 39.3024 263.381 39.558 265.2 39.57C268.11 39.67 269.37 38.3 270.86 36.08C272.513 33.8443 273.247 31.0601 272.91 28.3Z" fill="white"/>
<path d="M265.4 40.0799H265.11C263.247 40.0626 261.395 39.8003 259.6 39.2999C256.565 38.3109 253.819 36.5944 251.6 34.2999C249.635 32.5427 248.2 30.2702 247.46 27.7399C247.093 26.426 247.105 25.0352 247.494 23.7277C247.884 22.4202 248.634 21.2494 249.66 20.3499C251.48 18.9499 253.89 18.7899 256.01 18.8299C257.441 18.8336 258.869 18.954 260.28 19.1899C262.449 19.5664 264.541 20.2997 266.47 21.3599C267.55 21.9499 269.24 23.1299 269.59 24.8299C270.021 24.7141 270.473 24.7083 270.907 24.8132C271.34 24.918 271.74 25.1301 272.07 25.4299C272.817 26.202 273.273 27.2093 273.36 28.2799C273.75 30.9899 273.04 33.5699 271.14 36.3999C269.78 38.4599 268.45 40.0799 265.4 40.0799ZM255.57 19.7699C253.726 19.6268 251.886 20.0903 250.33 21.0899C248.33 22.6199 247.98 25.3899 248.48 27.4499C249.182 29.7989 250.521 31.907 252.35 33.5399C254.434 35.7289 257.023 37.3735 259.89 38.3299C261.599 38.812 263.365 39.061 265.14 39.0699C267.66 39.1599 268.8 38.1299 270.36 35.7999C271.984 33.6839 272.722 31.02 272.42 28.3699C272.361 27.5259 272.007 26.7296 271.42 26.1199C271.172 25.8754 270.846 25.7255 270.499 25.6962C270.152 25.667 269.805 25.7603 269.52 25.9599C269.45 26.0316 269.359 26.0791 269.26 26.0953C269.161 26.1114 269.059 26.0956 268.97 26.0499C268.878 26.0092 268.801 25.9414 268.75 25.8555C268.698 25.7697 268.673 25.67 268.68 25.5699C268.79 23.9599 267.06 22.7599 266.02 22.1899C264.189 21.178 262.201 20.4785 260.14 20.1199C258.778 19.8959 257.4 19.7822 256.02 19.7799L255.57 19.7699Z" fill="#231F20"/>
<path d="M265.88 55.45C265.53 47.9 267.06 32.59 267.06 32.59C267.06 32.59 257.44 33.14 254.2 28.51C250.2 31.62 249.43 40.36 250.15 42.97C251.59 48.14 258.29 46.97 258.29 46.97L257.43 56.41L265.88 55.45Z" fill="white"/>
<path d="M257.43 56.94C257.3 56.9388 257.175 56.8888 257.08 56.8C257.029 56.747 256.99 56.6842 256.964 56.6155C256.938 56.5467 256.926 56.4734 256.93 56.4L257.74 47.56C255.95 47.7 250.93 47.65 249.67 43.11C248.9 40.34 249.75 31.37 253.89 28.11C254.002 28.0276 254.142 27.9918 254.28 28.01C254.347 28.0199 254.41 28.0437 254.467 28.0799C254.524 28.116 254.573 28.1638 254.61 28.22C257.61 32.56 266.93 32.08 267.03 32.08C267.102 32.0732 267.175 32.0833 267.243 32.1093C267.31 32.1353 267.371 32.1766 267.42 32.23C267.47 32.2828 267.508 32.3462 267.53 32.4153C267.553 32.4845 267.559 32.5579 267.55 32.63C267.55 32.78 266.04 47.99 266.38 55.41C266.388 55.5368 266.347 55.6619 266.265 55.759C266.183 55.856 266.066 55.9173 265.94 55.93L257.49 56.93L257.43 56.94ZM258.29 46.5C258.415 46.5 258.537 46.5463 258.63 46.63C258.684 46.6829 258.727 46.7469 258.755 46.8176C258.782 46.8883 258.794 46.9642 258.79 47.04L257.99 55.87L265.37 55C265.13 48.22 266.24 35.89 266.5 33.11C264.41 33.11 257.26 32.99 254.13 29.24C250.61 32.51 250.02 40.62 250.63 42.84C251.93 47.5 257.95 46.55 258.21 46.51L258.29 46.5Z" fill="#231F20"/>
<path d="M258.29 47C258.29 47 261.06 46.65 262.43 45.28C262.43 45.28 260.6 49.86 257.78 50.54L258.29 47Z" fill="#231F20"/>
<path d="M257.78 51C257.725 51.0008 257.67 50.9906 257.618 50.97C257.567 50.9494 257.52 50.9188 257.48 50.88C257.425 50.8304 257.382 50.7681 257.356 50.6984C257.33 50.6288 257.321 50.5538 257.33 50.48L257.84 46.93C257.855 46.8327 257.901 46.7429 257.971 46.6743C258.041 46.6057 258.132 46.562 258.23 46.55C258.23 46.55 260.87 46.2 262.11 44.96C262.186 44.8861 262.284 44.84 262.39 44.8292C262.495 44.8183 262.601 44.8432 262.69 44.9C262.777 44.9586 262.841 45.0451 262.872 45.1451C262.903 45.2451 262.898 45.3526 262.86 45.45C262.78 45.65 260.91 50.25 257.86 50.98L257.78 51ZM258.7 47.4L258.34 49.85C259.591 49.0544 260.604 47.9348 261.27 46.61C260.45 46.9792 259.586 47.2446 258.7 47.4Z" fill="#231F20"/>
<path d="M252.3 50.5699L230.35 62.5699L235.66 77.9999C235.66 77.9999 263.27 63.3899 263.45 59.4399C263.63 55.4899 252.3 50.5699 252.3 50.5699Z" fill="#55EFC4"/>
<path d="M239.11 94.81C239.11 94.81 240.16 79.1 242.11 67.13C242.95 62.04 242.63 58.48 244.32 55.73C249.97 46.49 271.99 49.25 275.19 55.66C278.39 62.07 277.39 97 277.39 97L239.11 94.81Z" fill="#55EFC4"/>
<path d="M265.49 38C265.612 37.4073 265.895 36.8596 266.308 36.417C266.721 35.9743 267.247 35.6536 267.83 35.49C268.091 35.4061 268.367 35.3787 268.639 35.4097C268.912 35.4408 269.175 35.5295 269.41 35.67C269.688 35.906 269.9 36.209 270.028 36.5503C270.156 36.8915 270.194 37.2597 270.14 37.62C270.056 38.7641 269.538 39.8329 268.693 40.608C267.847 41.383 266.737 41.8059 265.59 41.79" fill="white"/>
<path d="M265.65 42.24H265.58C265.514 42.2387 265.45 42.2244 265.389 42.1981C265.329 42.1718 265.275 42.1338 265.229 42.0865C265.184 42.0391 265.148 41.9832 265.124 41.9221C265.1 41.8609 265.089 41.7956 265.09 41.73C265.09 41.6639 265.103 41.5985 265.129 41.5377C265.155 41.4769 265.193 41.422 265.241 41.3762C265.288 41.3304 265.345 41.2948 265.406 41.2714C265.468 41.2479 265.534 41.2373 265.6 41.24C266.613 41.2826 267.601 40.9232 268.35 40.24C269.104 39.5505 269.565 38.5988 269.64 37.58C269.678 37.3075 269.652 37.0298 269.563 36.7693C269.475 36.5088 269.326 36.2727 269.13 36.08C268.953 35.9814 268.757 35.9216 268.556 35.9043C268.354 35.8871 268.151 35.9129 267.96 35.98C267.465 36.1167 267.016 36.3866 266.664 36.7604C266.311 37.1342 266.068 37.5975 265.96 38.1C265.933 38.2284 265.858 38.3417 265.75 38.4162C265.642 38.4907 265.51 38.5207 265.38 38.5C265.249 38.4733 265.135 38.3967 265.06 38.2864C264.985 38.1762 264.956 38.0411 264.98 37.91C265.12 37.225 265.446 36.5918 265.922 36.0802C266.398 35.5685 267.007 35.1982 267.68 35.01C268.011 34.9028 268.362 34.8696 268.708 34.9128C269.053 34.956 269.385 35.0745 269.68 35.26C270.032 35.5407 270.304 35.9097 270.467 36.3295C270.631 36.7493 270.68 37.2049 270.61 37.65C270.519 38.9127 269.952 40.0938 269.024 40.955C268.096 41.8162 266.876 42.2932 265.61 42.29L265.65 42.24Z" fill="#231F20"/>
<path d="M254.323 33.5693C254.465 33.1159 254.383 32.687 254.14 32.6113C253.898 32.5356 253.586 32.8419 253.445 33.2953C253.303 33.7487 253.385 34.1776 253.628 34.2532C253.87 34.3289 254.182 34.0227 254.323 33.5693Z" fill="#231F20"/>
<path d="M251.85 43.35C252.45 43.7301 253.104 44.0167 253.79 44.2C254.24 44.3689 254.726 44.4144 255.199 44.3317C255.672 44.2491 256.114 44.0413 256.48 43.73C256.732 43.4063 256.925 43.0407 257.05 42.65" fill="white"/>
<path d="M254.86 44.85C254.455 44.8484 254.051 44.7946 253.66 44.69C252.925 44.4876 252.224 44.1775 251.58 43.77C251.469 43.6983 251.39 43.5853 251.362 43.456C251.334 43.3266 251.359 43.1914 251.43 43.08C251.465 43.0239 251.51 42.9753 251.564 42.9372C251.618 42.8991 251.679 42.8722 251.743 42.8582C251.808 42.8442 251.874 42.8433 251.939 42.8557C252.004 42.868 252.065 42.8933 252.12 42.93C252.677 43.282 253.284 43.5483 253.92 43.72C254.28 43.81 255.5 44.07 256.11 43.4C256.318 43.1185 256.477 42.8041 256.58 42.47C256.627 42.3472 256.721 42.2479 256.84 42.1936C256.96 42.1393 257.097 42.1344 257.22 42.18C257.345 42.2251 257.446 42.3179 257.502 42.4379C257.559 42.5579 257.565 42.6953 257.52 42.82C257.379 43.2758 257.151 43.7001 256.85 44.07C256.591 44.3321 256.281 44.5369 255.938 44.6713C255.595 44.8056 255.228 44.8665 254.86 44.85Z" fill="#231F20"/>
<path d="M251.8 34.3199C251.8 34.3199 247.94 38.7199 248.88 39.6699C249.82 40.6199 252.07 40.1399 252.07 40.1399" fill="white"/>
<path d="M250.84 40.7701C250.002 40.8269 249.175 40.5583 248.53 40.0201C247.42 38.9101 249.87 35.7601 251.42 34.0201C251.515 33.9278 251.642 33.8762 251.775 33.8762C251.908 33.8762 252.035 33.9278 252.13 34.0201C252.177 34.0665 252.214 34.1218 252.239 34.1828C252.265 34.2437 252.278 34.3091 252.278 34.3751C252.278 34.4411 252.265 34.5064 252.239 34.5674C252.214 34.6283 252.177 34.6836 252.13 34.7301C250.38 36.7301 248.99 38.9601 249.21 39.4101C249.82 40.0101 251.38 39.8501 251.93 39.7401C252.063 39.7135 252.2 39.7408 252.313 39.8158C252.425 39.8908 252.503 40.0075 252.53 40.1401C252.557 40.2727 252.529 40.4104 252.454 40.5229C252.379 40.6354 252.263 40.7135 252.13 40.7401C251.702 40.7948 251.27 40.8049 250.84 40.7701Z" fill="#231F20"/>
<path d="M235.66 78.4699C235.57 78.4713 235.481 78.4477 235.403 78.4019C235.326 78.356 235.262 78.2896 235.22 78.2099C235.159 78.0928 235.145 77.9564 235.183 77.8295C235.22 77.7027 235.305 77.5952 235.42 77.5299C235.57 77.4499 250.76 69.3399 256.29 66.3399C256.347 66.3085 256.41 66.2887 256.474 66.2817C256.539 66.2748 256.605 66.2808 256.667 66.2994C256.729 66.318 256.787 66.3489 256.838 66.3902C256.888 66.4315 256.93 66.4824 256.96 66.5399C256.993 66.5974 257.014 66.6609 257.022 66.7267C257.03 66.7925 257.024 66.8592 257.005 66.9227C256.987 66.9863 256.955 67.0454 256.913 67.0965C256.871 67.1476 256.819 67.1896 256.76 67.22C251.23 70.22 236.05 78.33 235.89 78.41C235.82 78.4498 235.741 78.4704 235.66 78.4699Z" fill="#231F20"/>
<path d="M101.57 154.4C101.503 154.399 101.437 154.383 101.376 154.354C101.316 154.325 101.262 154.282 101.22 154.23C101.181 154.184 101.152 154.13 101.134 154.072C101.116 154.014 101.109 153.953 101.115 153.893C101.12 153.832 101.138 153.773 101.166 153.72C101.195 153.666 101.233 153.619 101.28 153.58L140 121.86C140.095 121.784 140.216 121.748 140.337 121.759C140.458 121.77 140.571 121.828 140.65 121.92C140.688 121.967 140.717 122.022 140.734 122.08C140.752 122.138 140.757 122.199 140.751 122.26C140.744 122.32 140.726 122.379 140.696 122.432C140.667 122.485 140.628 122.532 140.58 122.57L101.92 154.29C101.823 154.372 101.697 154.411 101.57 154.4Z" fill="#D1D3D4"/>
<path d="M140.24 154.4C140.134 154.398 140.031 154.359 139.95 154.29L101.28 122.57C101.233 122.531 101.195 122.484 101.166 122.43C101.138 122.377 101.12 122.318 101.115 122.258C101.109 122.197 101.116 122.136 101.134 122.078C101.152 122.02 101.181 121.967 101.22 121.92C101.299 121.828 101.412 121.77 101.533 121.759C101.654 121.748 101.775 121.784 101.87 121.86L140.53 153.58C140.578 153.618 140.617 153.665 140.646 153.718C140.676 153.771 140.694 153.83 140.701 153.89C140.707 153.951 140.702 154.012 140.684 154.07C140.667 154.129 140.638 154.183 140.6 154.23C140.556 154.283 140.501 154.325 140.438 154.354C140.376 154.383 140.309 154.399 140.24 154.4Z" fill="#D1D3D4"/>
<path d="M258 111.1C257.887 111.106 257.776 111.073 257.684 111.006C257.593 110.939 257.528 110.843 257.5 110.733C257.472 110.624 257.482 110.508 257.529 110.405C257.577 110.303 257.658 110.219 257.76 110.17C257.82 110.17 263.03 107.36 264.35 104.85C264.38 104.792 264.422 104.742 264.472 104.7C264.523 104.659 264.581 104.628 264.643 104.609C264.705 104.591 264.771 104.585 264.836 104.592C264.9 104.599 264.963 104.619 265.02 104.65C265.078 104.68 265.13 104.72 265.173 104.77C265.215 104.82 265.247 104.878 265.266 104.941C265.286 105.003 265.293 105.069 265.287 105.134C265.28 105.199 265.261 105.262 265.23 105.32C263.77 108.1 258.45 110.93 258.23 111.05C258.157 111.081 258.079 111.098 258 111.1Z" fill="white"/>
<path d="M31.56 168.23C31.4698 168.231 31.3811 168.208 31.3034 168.162C31.2258 168.116 31.1623 168.05 31.12 167.97C29.19 164.39 23.06 156.29 23 156.21C22.9503 156.159 22.9119 156.099 22.8875 156.032C22.863 155.965 22.853 155.894 22.8582 155.823C22.8633 155.753 22.8835 155.684 22.9173 155.621C22.9512 155.559 22.9979 155.504 23.0545 155.462C23.111 155.419 23.176 155.388 23.2452 155.372C23.3144 155.357 23.3862 155.356 23.4557 155.37C23.5253 155.384 23.5911 155.412 23.6488 155.454C23.7064 155.495 23.7545 155.548 23.79 155.61C24.04 155.94 30.03 163.85 32 167.5C32.0311 167.558 32.0503 167.621 32.0566 167.686C32.0628 167.751 32.056 167.817 32.0364 167.879C32.0168 167.942 31.9849 168 31.9426 168.05C31.9003 168.099 31.8484 168.14 31.79 168.17C31.7199 168.21 31.6406 168.23 31.56 168.23Z" fill="white"/>
</svg>
